TiroDevaHindi-Regular.ufo
<glyph name="dCandrabinduInverted" format="2">
  <unicode hex="0900"/>
  <outline>
    <contour>
      <point x="40" y="765" type="line"/>
      <point x="-5" y="864"/>
      <point x="-71" y="930"/>
      <point x="-160" y="930" type="curve" smooth="yes"/>
      <point x="-228" y="930"/>
      <point x="-298" y="892"/>
      <point x="-336" y="790" type="curve"/>
      <point x="-267" y="737" type="line"/>
      <point x="-247" y="792"/>
      <point x="-201" y="865"/>
      <point x="-134" y="865" type="curve" smooth="yes"/>
      <point x="-90" y="865"/>
      <point x="-40" y="834"/>
      <point x="6" y="747" type="curve"/>
    </contour>
    <contour>
      <point x="-131" y="672" type="line"/>
      <point x="-67" y="737" type="line"/>
      <point x="-131" y="800" type="line"/>
      <point x="-196" y="737" type="line"/>
    </contour>
  </outline>
</glyph>
<glyph name="dA" format="2">
  <advance width="787"/>
  <unicode hex="0905"/>
  <outline>
    <contour>
      <point x="309" y="71" type="curve" smooth="yes"/>
      <point x="406" y="71"/>
      <point x="479" y="131"/>
      <point x="479" y="213" type="curve" smooth="yes"/>
      <point x="479" y="236"/>
      <point x="474" y="261"/>
      <point x="460" y="285" type="curve"/>
      <point x="413" y="360" type="line"/>
      <point x="390" y="387"/>
      <point x="364" y="413"/>
      <point x="299" y="413" type="curve" smooth="yes"/>
      <point x="254" y="413"/>
      <point x="209" y="394"/>
      <point x="173" y="374" type="curve"/>
      <point x="216" y="301" type="line"/>
      <point x="247" y="316"/>
      <point x="290" y="335"/>
      <point x="327" y="335" type="curve" smooth="yes"/>
      <point x="371" y="335"/>
      <point x="409" y="309"/>
      <point x="409" y="260" type="curve" smooth="yes"/>
      <point x="409" y="190"/>
      <point x="345" y="144"/>
      <point x="279" y="144" type="curve" smooth="yes"/>
      <point x="175" y="144"/>
      <point x="126" y="238"/>
      <point x="74" y="333" type="curve"/>
      <point x="36" y="311" type="line"/>
      <point x="105" y="179"/>
      <point x="179" y="71"/>
    </contour>
    <contour>
      <point x="382" y="357" type="line"/>
      <point x="423" y="392"/>
      <point x="429" y="421"/>
      <point x="429" y="447" type="curve" smooth="yes"/>
      <point x="429" y="510"/>
      <point x="382" y="633"/>
      <point x="260" y="633" type="curve" smooth="yes"/>
      <point x="217" y="633"/>
      <point x="154" y="617"/>
      <point x="95" y="583" type="curve"/>
      <point x="139" y="508" type="line"/>
      <point x="194" y="542"/>
      <point x="258" y="561"/>
      <point x="296" y="561" type="curve" smooth="yes"/>
      <point x="342" y="561"/>
      <point x="363" y="535"/>
      <point x="363" y="501" type="curve" smooth="yes"/>
      <point x="363" y="464"/>
      <point x="337" y="426"/>
      <point x="291" y="403" type="curve"/>
    </contour>
    <contour>
      <point x="575" y="238" type="curve" smooth="yes"/>
      <point x="594" y="238"/>
      <point x="610" y="240"/>
      <point x="625" y="250" type="curve"/>
      <point x="626" y="359" type="line"/>
      <point x="604" y="330"/>
      <point x="560" y="311"/>
      <point x="519" y="311" type="curve" smooth="yes"/>
      <point x="460" y="311"/>
      <point x="435" y="335"/>
      <point x="413" y="360" type="curve"/>
      <point x="454" y="262" type="line"/>
      <point x="472" y="271" type="line"/>
      <point x="499" y="254"/>
      <point x="537" y="238"/>
    </contour>
    <contour>
      <point x="700" y="-10" type="line"/>
      <point x="698" y="580" type="line"/>
      <point x="614" y="580" type="line"/>
      <point x="610" y="42" type="line"/>
      <point x="690" y="-10" type="line"/>
    </contour>
    <contour>
      <point x="815" y="545" type="line"/>
      <point x="815" y="555" type="line"/>
      <point x="781" y="620" type="line"/>
      <point x="473" y="620" type="line"/>
      <point x="473" y="610" type="line"/>
      <point x="507" y="545" type="line"/>
    </contour>
  </outline>
</glyph>
<glyph name="dVocalicR" format="2">
  <advance width="811"/>
  <unicode hex="090B"/>
  <outline>
    <contour>
      <point x="468" y="-10" type="line"/>
      <point x="467" y="278" type="line"/>
      <point x="488" y="275"/>
      <point x="509" y="274"/>
      <point x="528" y="274" type="curve" smooth="yes"/>
      <point x="616" y="274"/>
      <point x="723" y="310"/>
      <point x="723" y="377" type="curve" smooth="yes"/>
      <point x="723" y="426"/>
      <point x="651" y="468"/>
      <point x="609" y="468" type="curve" smooth="yes"/>
      <point x="588" y="468"/>
      <point x="575" y="460"/>
      <point x="575" y="436" type="curve" smooth="yes"/>
      <point x="575" y="416"/>
      <point x="584" y="396"/>
      <point x="599" y="368" type="curve"/>
      <point x="576" y="348"/>
      <point x="529" y="328"/>
      <point x="467" y="328" type="curve"/>
      <point x="466" y="581" type="line"/>
      <point x="382" y="581" type="line"/>
      <point x="378" y="42" type="line"/>
      <point x="458" y="-10" type="line"/>
    </contour>
    <contour>
      <point x="379" y="243" type="line"/>
      <point x="391" y="232" type="line"/>
      <point x="409" y="349" type="line"/>
      <point x="84" y="138" type="line"/>
      <point x="143" y="80" type="line"/>
    </contour>
    <contour>
      <point x="395" y="343" type="line"/>
      <point x="274" y="437"/>
      <point x="249" y="470"/>
      <point x="190" y="470" type="curve" smooth="yes"/>
      <point x="148" y="470"/>
      <point x="94" y="442"/>
      <point x="35" y="417" type="curve"/>
      <point x="35" y="412" type="line"/>
      <point x="88" y="343" type="line"/>
      <point x="133" y="366"/>
      <point x="186" y="397"/>
      <point x="221" y="397" type="curve" smooth="yes"/>
      <point x="260" y="397"/>
      <point x="301" y="362"/>
      <point x="374" y="309" type="curve"/>
    </contour>
    <contour>
      <point x="595" y="22" type="line"/>
      <point x="722" y="41"/>
      <point x="772" y="89"/>
      <point x="772" y="157" type="curve" smooth="yes"/>
      <point x="772" y="208"/>
      <point x="741" y="266"/>
      <point x="680" y="329" type="curve"/>
      <point x="637" y="309" type="line"/>
      <point x="683" y="262"/>
      <point x="704" y="227"/>
      <point x="704" y="195" type="curve" smooth="yes"/>
      <point x="704" y="139"/>
      <point x="646" y="113"/>
      <point x="542" y="96" type="curve"/>
      <point x="542" y="91" type="line"/>
    </contour>
    <contour>
      <point x="839" y="545" type="line"/>
      <point x="839" y="555" type="line"/>
      <point x="805" y="620" type="line"/>
      <point x="-28" y="620" type="line"/>
      <point x="-28" y="610" type="line"/>
      <point x="6" y="545" type="line"/>
    </contour>
  </outline>
</glyph>
<glyph name="dVocalicL" format="2">
  <advance width="682"/>
  <unicode hex="090C"/>
  <outline>
    <contour>
      <point x="569" y="-87" type="curve" smooth="yes"/>
      <point x="633" y="-87"/>
      <point x="692" y="-53"/>
      <point x="732" y="-4" type="curve"/>
      <point x="668" y="51" type="line"/>
      <point x="625" y="-3"/>
      <point x="581" y="-32"/>
      <point x="541" y="-32" type="curve" smooth="yes"/>
      <point x="508" y="-32"/>
      <point x="492" y="-12"/>
      <point x="492" y="14" type="curve" smooth="yes"/>
      <point x="492" y="86"/>
      <point x="619" y="131"/>
      <point x="619" y="257" type="curve" smooth="yes"/>
      <point x="619" y="352"/>
      <point x="547" y="443"/>
      <point x="462" y="443" type="curve" smooth="yes"/>
      <point x="377" y="443"/>
      <point x="298" y="348"/>
      <point x="263" y="261" type="curve"/>
      <point x="339" y="223" type="line"/>
      <point x="389" y="325"/>
      <point x="443" y="371"/>
      <point x="492" y="371" type="curve" smooth="yes"/>
      <point x="531" y="371"/>
      <point x="556" y="342"/>
      <point x="556" y="298" type="curve" smooth="yes"/>
      <point x="556" y="197"/>
      <point x="422" y="135"/>
      <point x="422" y="43" type="curve" smooth="yes"/>
      <point x="422" y="-15"/>
      <point x="477" y="-87"/>
    </contour>
    <contour>
      <point x="254" y="-10" type="line"/>
      <point x="297" y="25" type="line"/>
      <point x="167" y="133"/>
      <point x="129" y="192"/>
      <point x="129" y="264" type="curve" smooth="yes"/>
      <point x="129" y="337"/>
      <point x="168" y="380"/>
      <point x="222" y="380" type="curve" smooth="yes"/>
      <point x="259" y="380"/>
      <point x="292" y="358"/>
      <point x="312" y="332" type="curve"/>
      <point x="336" y="362" type="line"/>
      <point x="298" y="407"/>
      <point x="255" y="454"/>
      <point x="186" y="454" type="curve" smooth="yes"/>
      <point x="101" y="454"/>
      <point x="49" y="381"/>
      <point x="49" y="298" type="curve" smooth="yes"/>
      <point x="49" y="194"/>
      <point x="127" y="109"/>
      <point x="244" y="-10" type="curve"/>
    </contour>
    <contour>
      <point x="710" y="545" type="line"/>
      <point x="710" y="555" type="line"/>
      <point x="676" y="620" type="line"/>
      <point x="-28" y="620" type="line"/>
      <point x="-28" y="610" type="line"/>
      <point x="6" y="545" type="line"/>
    </contour>
    <contour>
      <point x="515" y="399" type="line"/>
      <point x="514" y="571" type="line"/>
      <point x="433" y="571" type="line"/>
      <point x="434" y="399" type="line"/>
    </contour>
  </outline>
</glyph>
<glyph name="dKa" format="2">
  <advance width="763"/>
  <unicode hex="0915"/>
  <outline>
    <contour>
      <point x="645" y="68" type="line"/>
      <point x="690" y="130"/>
      <point x="716" y="181"/>
      <point x="716" y="243" type="curve" smooth="yes"/>
      <point x="716" y="363"/>
      <point x="619" y="425"/>
      <point x="571" y="425" type="curve" smooth="yes"/>
      <point x="528" y="425"/>
      <point x="456" y="374"/>
      <point x="398" y="328" type="curve" smooth="yes"/>
      <point x="329" y="275"/>
      <point x="241" y="202"/>
      <point x="184" y="202" type="curve" smooth="yes"/>
      <point x="148" y="202"/>
      <point x="117" y="226"/>
      <point x="117" y="277" type="curve" smooth="yes"/>
      <point x="117" y="342"/>
      <point x="172" y="378"/>
      <point x="229" y="378" type="curve" smooth="yes"/>
      <point x="286" y="378"/>
      <point x="340" y="342"/>
      <point x="375" y="301" type="curve"/>
      <point x="375" y="355" type="line"/>
      <point x="335" y="409"/>
      <point x="276" y="455"/>
      <point x="203" y="455" type="curve" smooth="yes"/>
      <point x="124" y="455"/>
      <point x="45" y="402"/>
      <point x="45" y="316" type="curve" smooth="yes"/>
      <point x="45" y="233"/>
      <point x="121" y="138"/>
      <point x="224" y="138" type="curve" smooth="yes"/>
      <point x="280" y="138"/>
      <point x="304" y="158"/>
      <point x="413" y="237" type="curve" smooth="yes"/>
      <point x="445" y="260"/>
      <point x="546" y="350"/>
      <point x="604" y="350" type="curve" smooth="yes"/>
      <point x="629" y="350"/>
      <point x="652" y="331"/>
      <point x="652" y="297" type="curve" smooth="yes"/>
      <point x="652" y="253"/>
      <point x="614" y="182"/>
      <point x="568" y="127" type="curve"/>
      <point x="637" y="68" type="line"/>
    </contour>
    <contour>
      <point x="454" y="-10" type="line"/>
      <point x="451" y="581" type="line"/>
      <point x="369" y="581" type="line"/>
      <point x="364" y="44" type="line"/>
      <point x="444" y="-10" type="line"/>
    </contour>
    <contour>
      <point x="791" y="545" type="line"/>
      <point x="791" y="555" type="line"/>
      <point x="757" y="620" type="line"/>
      <point x="-28" y="620" type="line"/>
      <point x="-28" y="610" type="line"/>
      <point x="6" y="545" type="line"/>
    </contour>
  </outline>
</glyph>
<glyph name="dNga" format="2">
  <advance width="653"/>
  <unicode hex="0919"/>
  <outline>
    <contour>
      <point x="355" y="7" type="curve" smooth="yes"/>
      <point x="485" y="7"/>
      <point x="536" y="85"/>
      <point x="536" y="137" type="curve" smooth="yes"/>
      <point x="536" y="219"/>
      <point x="459" y="298"/>
      <point x="404" y="298" type="curve" smooth="yes"/>
      <point x="364" y="298"/>
      <point x="261" y="273"/>
      <point x="238" y="273" type="curve" smooth="yes"/>
      <point x="214" y="273"/>
      <point x="185" y="298"/>
      <point x="185" y="339" type="curve" smooth="yes"/>
      <point x="185" y="370"/>
      <point x="208" y="385"/>
      <point x="250" y="385" type="curve" smooth="yes"/>
      <point x="454" y="385" type="line"/>
      <point x="466" y="393" type="line"/>
      <point x="466" y="445"/>
      <point x="465" y="527"/>
      <point x="464" y="581" type="curve"/>
      <point x="383" y="581" type="line"/>
      <point x="383" y="460" type="line"/>
      <point x="232" y="460" type="line" smooth="yes"/>
      <point x="150" y="460"/>
      <point x="113" y="427"/>
      <point x="113" y="378" type="curve" smooth="yes"/>
      <point x="113" y="293"/>
      <point x="205" y="201"/>
      <point x="271" y="201" type="curve" smooth="yes"/>
      <point x="305" y="201"/>
      <point x="391" y="225"/>
      <point x="430" y="225" type="curve" smooth="yes"/>
      <point x="454" y="225"/>
      <point x="468" y="209"/>
      <point x="468" y="187" type="curve" smooth="yes"/>
      <point x="468" y="144"/>
      <point x="442" y="82"/>
      <point x="331" y="82" type="curve" smooth="yes"/>
      <point x="196" y="82"/>
      <point x="118" y="175"/>
      <point x="64" y="281" type="curve"/>
      <point x="26" y="259" type="line"/>
      <point x="103" y="96"/>
      <point x="226" y="7"/>
    </contour>
    <contour>
      <point x="681" y="545" type="line"/>
      <point x="681" y="555" type="line"/>
      <point x="647" y="620" type="line"/>
      <point x="-28" y="620" type="line"/>
      <point x="-28" y="610" type="line"/>
      <point x="6" y="545" type="line"/>
    </contour>
    <contour>
      <point x="647" y="341" type="line"/>
      <point x="577" y="411" type="line"/>
      <point x="508" y="341" type="line"/>
      <point x="577" y="273" type="line"/>
    </contour>
  </outline>
</glyph>
<glyph name="dJha" format="2">
  <advance width="758"/>
  <unicode hex="091D"/>
  <outline>
    <contour>
      <point x="259" y="19" type="curve" smooth="yes"/>
      <point x="351" y="19"/>
      <point x="477" y="78"/>
      <point x="477" y="162" type="curve" smooth="yes"/>
      <point x="477" y="223"/>
      <point x="412" y="319"/>
      <point x="349" y="319" type="curve" smooth="yes"/>
      <point x="313" y="319"/>
      <point x="207" y="291"/>
      <point x="169" y="291" type="curve" smooth="yes"/>
      <point x="131" y="291"/>
      <point x="114" y="320"/>
      <point x="114" y="346" type="curve" smooth="yes"/>
      <point x="114" y="372"/>
      <point x="130" y="395"/>
      <point x="218" y="395" type="curve" smooth="yes"/>
      <point x="422" y="395" type="line"/>
      <point x="434" y="403" type="line"/>
      <point x="434" y="452"/>
      <point x="433" y="522"/>
      <point x="432" y="577" type="curve"/>
      <point x="353" y="577" type="line"/>
      <point x="353" y="469" type="line"/>
      <point x="191" y="469" type="line" smooth="yes"/>
      <point x="99" y="469"/>
      <point x="47" y="448"/>
      <point x="47" y="385" type="curve" smooth="yes"/>
      <point x="47" y="313"/>
      <point x="116" y="220"/>
      <point x="201" y="220" type="curve" smooth="yes"/>
      <point x="247" y="220"/>
      <point x="330" y="247"/>
      <point x="366" y="247" type="curve" smooth="yes"/>
      <point x="388" y="247"/>
      <point x="411" y="238"/>
      <point x="411" y="201" type="curve" smooth="yes"/>
      <point x="411" y="133"/>
      <point x="327" y="90"/>
      <point x="243" y="87" type="curve"/>
      <point x="197" y="148"/>
      <point x="152" y="177"/>
      <point x="125" y="177" type="curve" smooth="yes"/>
      <point x="101" y="177"/>
      <point x="89" y="153"/>
      <point x="89" y="126" type="curve" smooth="yes"/>
      <point x="89" y="48"/>
      <point x="189" y="19"/>
    </contour>
    <contour>
      <point x="337" y="-155" type="line"/>
      <point x="389" y="-122" type="line"/>
      <point x="268" y="45" type="line"/>
      <point x="214" y="44" type="line"/>
      <point x="328" y="-155" type="line"/>
    </contour>
    <contour>
      <point x="551" y="214" type="curve" smooth="yes"/>
      <point x="566" y="214"/>
      <point x="586" y="216"/>
      <point x="593" y="221" type="curve"/>
      <point x="596" y="321" type="line"/>
      <point x="563" y="289"/>
      <point x="534" y="277"/>
      <point x="488" y="277" type="curve" smooth="yes"/>
      <point x="443" y="277"/>
      <point x="413" y="290"/>
      <point x="394" y="303" type="curve"/>
      <point x="437" y="236" type="line"/>
      <point x="450" y="249" type="line"/>
      <point x="471" y="231"/>
      <point x="505" y="214"/>
    </contour>
    <contour>
      <point x="671" y="-10" type="line"/>
      <point x="669" y="577" type="line"/>
      <point x="585" y="577" type="line"/>
      <point x="581" y="42" type="line"/>
      <point x="661" y="-10" type="line"/>
    </contour>
    <contour>
      <point x="786" y="545" type="line"/>
      <point x="786" y="555" type="line"/>
      <point x="752" y="620" type="line"/>
      <point x="-28" y="620" type="line"/>
      <point x="-28" y="610" type="line"/>
      <point x="6" y="545" type="line"/>
    </contour>
  </outline>
  <guideline angle="125.746" x="301" y="0"/>
</glyph>
<glyph name="dTa" format="2">
  <advance width="573"/>
  <unicode hex="0924"/>
  <outline>
    <contour>
      <point x="223" y="-10" type="line"/>
      <point x="266" y="25" type="line"/>
      <point x="154" y="153"/>
      <point x="125" y="188"/>
      <point x="125" y="248" type="curve" smooth="yes"/>
      <point x="125" y="311"/>
      <point x="172" y="360"/>
      <point x="269" y="360" type="curve" smooth="yes"/>
      <point x="424" y="360" type="line"/>
      <point x="425" y="435" type="line"/>
      <point x="258" y="435" type="line" smooth="yes"/>
      <point x="131" y="435"/>
      <point x="48" y="393"/>
      <point x="48" y="294" type="curve" smooth="yes"/>
      <point x="48" y="208"/>
      <point x="118" y="112"/>
      <point x="213" y="-10" type="curve"/>
    </contour>
    <contour>
      <point x="486" y="-10" type="line"/>
      <point x="484" y="591" type="line"/>
      <point x="400" y="591" type="line"/>
      <point x="396" y="42" type="line"/>
      <point x="476" y="-10" type="line"/>
    </contour>
    <contour>
      <point x="601" y="545" type="line"/>
      <point x="601" y="555" type="line"/>
      <point x="567" y="620" type="line"/>
      <point x="-28" y="620" type="line"/>
      <point x="-28" y="610" type="line"/>
      <point x="6" y="545" type="line"/>
    </contour>
  </outline>
</glyph>
<glyph name="dTha" format="2">
  <advance width="652"/>
  <unicode hex="0925"/>
  <outline>
    <contour>
      <point x="339" y="133" type="curve" smooth="yes"/>
      <point x="394" y="133"/>
      <point x="439" y="151"/>
      <point x="502" y="203" type="curve"/>
      <point x="504" y="316" type="line"/>
      <point x="452" y="251"/>
      <point x="371" y="197"/>
      <point x="301" y="197" type="curve" smooth="yes"/>
      <point x="242" y="197"/>
      <point x="187" y="236"/>
      <point x="187" y="296" type="curve"/>
      <point x="291" y="333"/>
      <point x="364" y="372"/>
      <point x="364" y="454" type="curve" smooth="yes"/>
      <point x="364" y="534"/>
      <point x="290" y="633"/>
      <point x="186" y="633" type="curve" smooth="yes"/>
      <point x="107" y="633"/>
      <point x="54" y="580"/>
      <point x="54" y="518" type="curve" smooth="yes"/>
      <point x="54" y="465"/>
      <point x="93" y="419"/>
      <point x="156" y="419" type="curve" smooth="yes"/>
      <point x="164" y="419"/>
      <point x="168" y="419"/>
      <point x="181" y="421" type="curve"/>
      <point x="181" y="432" type="line"/>
      <point x="155" y="445"/>
      <point x="132" y="461"/>
      <point x="132" y="490" type="curve" smooth="yes"/>
      <point x="132" y="534"/>
      <point x="181" y="562"/>
      <point x="226" y="562" type="curve" smooth="yes"/>
      <point x="263" y="562"/>
      <point x="294" y="545"/>
      <point x="294" y="500" type="curve" smooth="yes"/>
      <point x="294" y="427"/>
      <point x="218" y="393"/>
      <point x="97" y="358" type="curve"/>
      <point x="123" y="235"/>
      <point x="219" y="133"/>
    </contour>
    <contour>
      <point x="565" y="-10" type="line"/>
      <point x="563" y="583" type="line"/>
      <point x="479" y="583" type="line"/>
      <point x="475" y="42" type="line"/>
      <point x="555" y="-10" type="line"/>
    </contour>
    <contour>
      <point x="680" y="545" type="line"/>
      <point x="680" y="555" type="line"/>
      <point x="646" y="620" type="line"/>
      <point x="373" y="620" type="line"/>
      <point x="373" y="610" type="line"/>
      <point x="407" y="545" type="line"/>
    </contour>
  </outline>
</glyph>
<glyph name="dLa" format="2">
  <advance width="686"/>
  <unicode hex="0932"/>
  <outline>
    <contour>
      <point x="264" y="-10" type="line"/>
      <point x="307" y="25" type="line"/>
      <point x="168" y="134"/>
      <point x="129" y="192"/>
      <point x="129" y="265" type="curve" smooth="yes"/>
      <point x="129" y="336"/>
      <point x="168" y="376"/>
      <point x="222" y="376" type="curve" smooth="yes"/>
      <point x="256" y="376"/>
      <point x="287" y="358"/>
      <point x="309" y="333" type="curve"/>
      <point x="330" y="365" type="line"/>
      <point x="294" y="407"/>
      <point x="252" y="450"/>
      <point x="187" y="450" type="curve" smooth="yes"/>
      <point x="101" y="450"/>
      <point x="49" y="382"/>
      <point x="49" y="299" type="curve" smooth="yes"/>
      <point x="49" y="193"/>
      <point x="130" y="110"/>
      <point x="254" y="-10" type="curve"/>
    </contour>
    <contour>
      <point x="340" y="225" type="line"/>
      <point x="389" y="331"/>
      <point x="429" y="374"/>
      <point x="481" y="374" type="curve" smooth="yes"/>
      <point x="496" y="374"/>
      <point x="509" y="368"/>
      <point x="521" y="365" type="curve"/>
      <point x="523" y="406" type="line"/>
      <point x="495" y="428"/>
      <point x="464" y="439"/>
      <point x="439" y="439" type="curve" smooth="yes"/>
      <point x="354" y="439"/>
      <point x="292" y="337"/>
      <point x="263" y="263" type="curve"/>
    </contour>
    <contour>
      <point x="599" y="-10" type="line"/>
      <point x="597" y="571" type="line"/>
      <point x="513" y="571" type="line"/>
      <point x="509" y="42" type="line"/>
      <point x="589" y="-10" type="line"/>
    </contour>
    <contour>
      <point x="714" y="545" type="line"/>
      <point x="714" y="555" type="line"/>
      <point x="680" y="620" type="line"/>
      <point x="-28" y="620" type="line"/>
      <point x="-28" y="610" type="line"/>
      <point x="6" y="545" type="line"/>
    </contour>
  </outline>
</glyph>
<glyph name="dSha" format="2">
  <advance width="708"/>
  <unicode hex="0936"/>
  <outline>
    <contour>
      <point x="160" y="177" type="curve" smooth="yes"/>
      <point x="255" y="177"/>
      <point x="429" y="265"/>
      <point x="429" y="417" type="curve" smooth="yes"/>
      <point x="429" y="538"/>
      <point x="315" y="612"/>
      <point x="238" y="612" type="curve" smooth="yes"/>
      <point x="173" y="612"/>
      <point x="95" y="565"/>
      <point x="95" y="486" type="curve" smooth="yes"/>
      <point x="95" y="411"/>
      <point x="162" y="346"/>
      <point x="297" y="297" type="curve"/>
      <point x="329" y="327" type="line"/>
      <point x="223" y="371"/>
      <point x="180" y="418"/>
      <point x="180" y="471" type="curve" smooth="yes"/>
      <point x="180" y="509"/>
      <point x="201" y="552"/>
      <point x="259" y="552" type="curve" smooth="yes"/>
      <point x="298" y="552"/>
      <point x="352" y="532"/>
      <point x="352" y="448" type="curve" smooth="yes"/>
      <point x="352" y="353"/>
      <point x="289" y="284"/>
      <point x="187" y="257" type="curve"/>
      <point x="152" y="280"/>
      <point x="111" y="302"/>
      <point x="74" y="302" type="curve" smooth="yes"/>
      <point x="49" y="302"/>
      <point x="40" y="292"/>
      <point x="40" y="277" type="curve" smooth="yes"/>
      <point x="40" y="239"/>
      <point x="91" y="177"/>
    </contour>
    <contour>
      <point x="367" y="-20" type="line"/>
      <point x="418" y="22" type="line"/>
      <point x="223" y="220" type="line"/>
      <point x="165" y="217" type="line"/>
      <point x="357" y="-20" type="line"/>
    </contour>
    <contour>
      <point x="621" y="-15" type="line"/>
      <point x="619" y="581" type="line"/>
      <point x="535" y="581" type="line"/>
      <point x="531" y="37" type="line"/>
      <point x="611" y="-15" type="line"/>
    </contour>
    <contour>
      <point x="146" y="545" type="line"/>
      <point x="247" y="594" type="line"/>
      <point x="351" y="545" type="line"/>
      <point x="736" y="545" type="line"/>
      <point x="736" y="555" type="line"/>
      <point x="702" y="620" type="line"/>
      <point x="-28" y="620" type="line"/>
      <point x="-28" y="610" type="line"/>
      <point x="6" y="545" type="line"/>
    </contour>
  </outline>
</glyph>
<glyph name="dHa" format="2">
  <advance width="532"/>
  <unicode hex="0939"/>
  <outline>
    <contour>
      <point x="440" y="-121" type="line"/>
      <point x="237" y="-68"/>
      <point x="178" y="13"/>
      <point x="178" y="84" type="curve" smooth="yes"/>
      <point x="178" y="161"/>
      <point x="249" y="239"/>
      <point x="343" y="239" type="curve" smooth="yes"/>
      <point x="390" y="239"/>
      <point x="418" y="222"/>
      <point x="418" y="183" type="curve" smooth="yes"/>
      <point x="418" y="136"/>
      <point x="380" y="106"/>
      <point x="336" y="85" type="curve"/>
      <point x="383" y="18" type="line"/>
      <point x="452" y="47"/>
      <point x="488" y="91"/>
      <point x="488" y="145" type="curve" smooth="yes"/>
      <point x="488" y="201"/>
      <point x="445" y="297"/>
      <point x="319" y="297" type="curve" smooth="yes"/>
      <point x="201" y="297"/>
      <point x="96" y="212"/>
      <point x="96" y="103" type="curve" smooth="yes"/>
      <point x="96" y="1"/>
      <point x="189" y="-105"/>
      <point x="429" y="-164" type="curve"/>
    </contour>
    <contour>
      <point x="163" y="227" type="line"/>
      <point x="142" y="244"/>
      <point x="122" y="276"/>
      <point x="122" y="306" type="curve" smooth="yes"/>
      <point x="122" y="360"/>
      <point x="168" y="385"/>
      <point x="247" y="385" type="curve" smooth="yes"/>
      <point x="435" y="385" type="line"/>
      <point x="447" y="393" type="line"/>
      <point x="447" y="445"/>
      <point x="446" y="527"/>
      <point x="445" y="581" type="curve"/>
      <point x="364" y="581" type="line"/>
      <point x="364" y="460" type="line"/>
      <point x="229" y="460" type="line" smooth="yes"/>
      <point x="105" y="460"/>
      <point x="49" y="412"/>
      <point x="49" y="341" type="curve" smooth="yes"/>
      <point x="49" y="284"/>
      <point x="88" y="225"/>
      <point x="134" y="191" type="curve"/>
    </contour>
    <contour>
      <point x="560" y="545" type="line"/>
      <point x="560" y="555" type="line"/>
      <point x="526" y="620" type="line"/>
      <point x="-28" y="620" type="line"/>
      <point x="-28" y="610" type="line"/>
      <point x="6" y="545" type="line"/>
    </contour>
  </outline>
</glyph>
<glyph name="dSignOe" format="2">
  <unicode hex="093A"/>
  <outline>
    <contour>
      <point x="-89" y="608" type="line"/>
      <point x="-90" y="756" type="line"/>
      <point x="-161" y="812" type="line"/>
      <point x="-171" y="812" type="line"/>
      <point x="-173" y="608" type="line"/>
    </contour>
  </outline>
</glyph>
<glyph name="dGrave" format="2">
  <unicode hex="0953"/>
  <outline>
    <contour>
      <point x="-247" y="852" type="line"/>
      <point x="-61" y="672" type="line"/>
      <point x="-27" y="707" type="line"/>
      <point x="-214" y="886" type="line"/>
    </contour>
  </outline>
</glyph>
<glyph name="dAcute" format="2">
  <unicode hex="0954"/>
  <outline>
    <contour>
      <point x="-48" y="886" type="line"/>
      <point x="-235" y="707" type="line"/>
      <point x="-201" y="672" type="line"/>
      <point x="-15" y="852" type="line"/>
    </contour>
  </outline>
</glyph>
<glyph name="dSignCandraELong" format="2">
  <unicode hex="0955"/>
  <outline>
    <contour>
      <point x="-331" y="918" type="line"/>
      <point x="-286" y="823"/>
      <point x="-222" y="759"/>
      <point x="-134" y="759" type="curve" smooth="yes"/>
      <point x="-67" y="759"/>
      <point x="1" y="796"/>
      <point x="39" y="893" type="curve"/>
      <point x="-30" y="946" type="line"/>
      <point x="-50" y="894"/>
      <point x="-94" y="825"/>
      <point x="-160" y="825" type="curve" smooth="yes"/>
      <point x="-203" y="825"/>
      <point x="-252" y="854"/>
      <point x="-297" y="936" type="curve"/>
    </contour>
    <contour>
      <point x="-301" y="722" type="line"/>
      <point x="-301" y="672" type="line"/>
      <point x="18" y="672" type="line"/>
      <point x="18" y="722" type="line"/>
    </contour>
  </outline>
</glyph>
<glyph name="dSignUe" format="2">
  <unicode hex="0956"/>
  <outline>
    <contour>
      <point x="-453" y="-81" type="line"/>
      <point x="-400" y="-141"/>
      <point x="-329" y="-184"/>
      <point x="-232" y="-184" type="curve" smooth="yes"/>
      <point x="-152" y="-184"/>
      <point x="-69" y="-154"/>
      <point x="-22" y="-89" type="curve"/>
      <point x="-87" y="-39" type="line"/>
      <point x="-114" y="-71"/>
      <point x="-173" y="-117"/>
      <point x="-259" y="-117" type="curve" smooth="yes"/>
      <point x="-313" y="-117"/>
      <point x="-371" y="-100"/>
      <point x="-427" y="-52" type="curve"/>
    </contour>
  </outline>
</glyph>
<glyph name="dSignUue" format="2">
  <unicode hex="0957"/>
  <outline>
    <contour>
      <point x="-450" y="-80" type="line"/>
      <point x="-397" y="-140"/>
      <point x="-331" y="-183"/>
      <point x="-235" y="-183" type="curve" smooth="yes"/>
      <point x="-154" y="-183"/>
      <point x="-69" y="-152"/>
      <point x="-22" y="-87" type="curve"/>
      <point x="-85" y="-39" type="line"/>
      <point x="-112" y="-71"/>
      <point x="-171" y="-117"/>
      <point x="-258" y="-117" type="curve" smooth="yes"/>
      <point x="-311" y="-117"/>
      <point x="-369" y="-100"/>
      <point x="-425" y="-52" type="curve"/>
    </contour>
    <contour>
      <point x="-450" y="-215" type="line"/>
      <point x="-400" y="-271"/>
      <point x="-327" y="-318"/>
      <point x="-219" y="-318" type="curve" smooth="yes"/>
      <point x="-144" y="-318"/>
      <point x="-66" y="-295"/>
      <point x="-17" y="-245" type="curve"/>
      <point x="-78" y="-191" type="line"/>
      <point x="-103" y="-213"/>
      <point x="-158" y="-252"/>
      <point x="-247" y="-252" type="curve" smooth="yes"/>
      <point x="-305" y="-252"/>
      <point x="-369" y="-235"/>
      <point x="-425" y="-187" type="curve"/>
    </contour>
  </outline>
</glyph>
<glyph name="dVocalicRr" format="2">
  <advance width="851"/>
  <unicode hex="0960"/>
  <outline>
    <contour>
      <point x="716" y="-28" type="curve" smooth="yes"/>
      <point x="779" y="-28"/>
      <point x="825" y="-2"/>
      <point x="847" y="13" type="curve"/>
      <point x="797" y="77" type="line"/>
      <point x="748" y="49"/>
      <point x="709" y="40"/>
      <point x="676" y="40" type="curve" smooth="yes"/>
      <point x="622" y="40"/>
      <point x="609" y="65"/>
      <point x="609" y="84" type="curve" smooth="yes"/>
      <point x="609" y="113"/>
      <point x="630" y="148"/>
      <point x="781" y="179" type="curve"/>
      <point x="783" y="184" type="line"/>
      <point x="758" y="245"/>
      <point x="737" y="289"/>
      <point x="707" y="338" type="curve"/>
      <point x="660" y="318" type="line"/>
      <point x="676" y="286"/>
      <point x="690" y="264"/>
      <point x="699" y="238" type="curve"/>
      <point x="592" y="210"/>
      <point x="545" y="169"/>
      <point x="545" y="115" type="curve" smooth="yes"/>
      <point x="545" y="62"/>
      <point x="600" y="-28"/>
    </contour>
    <contour>
      <point x="379" y="243" type="line"/>
      <point x="395" y="233" type="line"/>
      <point x="389" y="336" type="line"/>
      <point x="84" y="138" type="line"/>
      <point x="143" y="80" type="line"/>
    </contour>
    <contour>
      <point x="399" y="340" type="line"/>
      <point x="276" y="437"/>
      <point x="249" y="470"/>
      <point x="190" y="470" type="curve" smooth="yes"/>
      <point x="148" y="470"/>
      <point x="94" y="442"/>
      <point x="35" y="417" type="curve"/>
      <point x="35" y="412" type="line"/>
      <point x="88" y="343" type="line"/>
      <point x="133" y="366"/>
      <point x="186" y="397"/>
      <point x="221" y="397" type="curve" smooth="yes"/>
      <point x="265" y="397"/>
      <point x="309" y="355"/>
      <point x="398" y="291" type="curve"/>
    </contour>
    <contour>
      <point x="468" y="-10" type="line"/>
      <point x="466" y="581" type="line"/>
      <point x="382" y="581" type="line"/>
      <point x="378" y="42" type="line"/>
      <point x="458" y="-10" type="line"/>
    </contour>
    <contour>
      <point x="549" y="278" type="curve" smooth="yes"/>
      <point x="637" y="278"/>
      <point x="748" y="323"/>
      <point x="748" y="386" type="curve" smooth="yes"/>
      <point x="748" y="435"/>
      <point x="674" y="477"/>
      <point x="632" y="477" type="curve" smooth="yes"/>
      <point x="611" y="477"/>
      <point x="598" y="469"/>
      <point x="598" y="445" type="curve" smooth="yes"/>
      <point x="598" y="425"/>
      <point x="606" y="404"/>
      <point x="621" y="376" type="curve"/>
      <point x="598" y="353"/>
      <point x="552" y="331"/>
      <point x="490" y="331" type="curve" smooth="yes"/>
      <point x="447" y="331" type="line"/>
      <point x="446" y="289" type="line"/>
      <point x="479" y="281"/>
      <point x="521" y="278"/>
    </contour>
    <contour>
      <point x="879" y="545" type="line"/>
      <point x="879" y="555" type="line"/>
      <point x="845" y="620" type="line"/>
      <point x="-28" y="620" type="line"/>
      <point x="-28" y="610" type="line"/>
      <point x="6" y="545" type="line"/>
    </contour>
  </outline>
</glyph>
<glyph name="Danda" format="2">
  <advance width="256"/>
  <unicode hex="0964"/>
  <outline>
    <contour>
      <point x="171" y="-15" type="line"/>
      <point x="171" y="580" type="line"/>
      <point x="95" y="630" type="line"/>
      <point x="85" y="630" type="line"/>
      <point x="85" y="35" type="line"/>
      <point x="161" y="-15" type="line"/>
    </contour>
  </outline>
</glyph>
<glyph name="dThree" format="2">
  <advance width="527"/>
  <unicode hex="0969"/>
  <outline>
    <contour>
      <point x="327" y="-146" type="line"/>
      <point x="379" y="-113" type="line"/>
      <point x="254" y="59" type="line"/>
      <point x="254" y="70" type="line"/>
      <point x="201" y="152"/>
      <point x="158" y="192"/>
      <point x="129" y="192" type="curve" smooth="yes"/>
      <point x="105" y="192"/>
      <point x="90" y="164"/>
      <point x="90" y="122" type="curve" smooth="yes"/>
      <point x="90" y="58"/>
      <point x="129" y="21"/>
      <point x="251" y="21" type="curve" smooth="yes"/>
      <point x="363" y="21"/>
      <point x="457" y="95"/>
      <point x="457" y="183" type="curve" smooth="yes"/>
      <point x="457" y="295"/>
      <point x="321" y="377"/>
      <point x="256" y="377" type="curve" smooth="yes"/>
      <point x="213" y="377"/>
      <point x="159" y="357"/>
      <point x="123" y="339" type="curve"/>
      <point x="165" y="268" type="line"/>
      <point x="198" y="283"/>
      <point x="252" y="301"/>
      <point x="292" y="301" type="curve" smooth="yes"/>
      <point x="343" y="301"/>
      <point x="383" y="271"/>
      <point x="383" y="211" type="curve" smooth="yes"/>
      <point x="383" y="143"/>
      <point x="326" y="83"/>
      <point x="216" y="93" type="curve"/>
      <point x="190" y="79" type="line"/>
      <point x="318" y="-146" type="line"/>
    </contour>
    <contour>
      <point x="349" y="320" type="line"/>
      <point x="395" y="353"/>
      <point x="411" y="379"/>
      <point x="411" y="422" type="curve" smooth="yes"/>
      <point x="411" y="530"/>
      <point x="309" y="598"/>
      <point x="219" y="598" type="curve" smooth="yes"/>
      <point x="169" y="598"/>
      <point x="101" y="577"/>
      <point x="45" y="548" type="curve"/>
      <point x="89" y="473" type="line"/>
      <point x="144" y="505"/>
      <point x="210" y="526"/>
      <point x="257" y="526" type="curve" smooth="yes"/>
      <point x="307" y="526"/>
      <point x="340" y="502"/>
      <point x="340" y="462" type="curve" smooth="yes"/>
      <point x="340" y="420"/>
      <point x="310" y="385"/>
      <point x="265" y="365" type="curve"/>
    </contour>
  </outline>
</glyph>
<glyph name="dDdaMarwari" format="2">
  <advance width="509"/>
  <unicode hex="0978"/>
  <outline>
    <contour>
      <point x="343" y="-10" type="line"/>
      <point x="400" y="34"/>
      <point x="471" y="101"/>
      <point x="471" y="190" type="curve" smooth="yes"/>
      <point x="471" y="281"/>
      <point x="397" y="404"/>
      <point x="251" y="404" type="curve" smooth="yes"/>
      <point x="223" y="404"/>
      <point x="172" y="397"/>
      <point x="148" y="391" type="curve" smooth="yes"/>
      <point x="76" y="374"/>
      <point x="50" y="369"/>
      <point x="50" y="344" type="curve" smooth="yes"/>
      <point x="50" y="297"/>
      <point x="144" y="211"/>
      <point x="187" y="211" type="curve" smooth="yes"/>
      <point x="200" y="211"/>
      <point x="209" y="219"/>
      <point x="209" y="236" type="curve" smooth="yes"/>
      <point x="207" y="581" type="line"/>
      <point x="125" y="581" type="line"/>
      <point x="124" y="370" type="line"/>
      <point x="173" y="296" type="line"/>
      <point x="225" y="321"/>
      <point x="268" y="329"/>
      <point x="301" y="329" type="curve" smooth="yes"/>
      <point x="362" y="329"/>
      <point x="406" y="294"/>
      <point x="406" y="234" type="curve" smooth="yes"/>
      <point x="406" y="150"/>
      <point x="318" y="86"/>
      <point x="267" y="47" type="curve"/>
      <point x="333" y="-10" type="line"/>
    </contour>
    <contour>
      <point x="537" y="545" type="line"/>
      <point x="537" y="555" type="line"/>
      <point x="503" y="620" type="line"/>
      <point x="-28" y="620" type="line"/>
      <point x="-28" y="610" type="line"/>
      <point x="6" y="545" type="line"/>
    </contour>
  </outline>
</glyph>
<glyph name="dJjya" format="2">
  <advance width="582"/>
  <unicode hex="097A"/>
  <outline>
    <contour>
      <point x="610" y="545" type="line"/>
      <point x="610" y="555" type="line"/>
      <point x="576" y="620" type="line"/>
      <point x="-28" y="620" type="line"/>
      <point x="-28" y="610" type="line"/>
      <point x="6" y="545" type="line"/>
    </contour>
    <contour>
      <point x="419" y="251" type="line"/>
      <point x="206" y="558" type="line"/>
      <point x="178" y="523" type="line"/>
      <point x="386" y="223" type="line"/>
    </contour>
    <contour>
      <point x="152" y="561" type="line"/>
      <point x="179" y="520"/>
      <point x="191" y="491"/>
      <point x="191" y="469" type="curve" smooth="yes"/>
      <point x="191" y="424"/>
      <point x="144" y="395"/>
      <point x="40" y="370" type="curve"/>
      <point x="64" y="238"/>
      <point x="170" y="131"/>
      <point x="289" y="131" type="curve" smooth="yes"/>
      <point x="334" y="131"/>
      <point x="390" y="146"/>
      <point x="433" y="184" type="curve"/>
      <point x="427" y="277" type="line"/>
      <point x="368" y="222"/>
      <point x="301" y="194"/>
      <point x="250" y="194" type="curve" smooth="yes"/>
      <point x="182" y="194"/>
      <point x="129" y="249"/>
      <point x="127" y="309" type="curve"/>
      <point x="224" y="336"/>
      <point x="258" y="374"/>
      <point x="258" y="425" type="curve" smooth="yes"/>
      <point x="258" y="461"/>
      <point x="240" y="502"/>
      <point x="204" y="562" type="curve"/>
    </contour>
    <contour>
      <point x="414" y="581" type="line"/>
      <point x="410" y="42" type="line"/>
      <point x="490" y="-10" type="line"/>
      <point x="500" y="-10" type="line"/>
      <point x="498" y="581" type="line"/>
    </contour>
  </outline>
</glyph>
<glyph name="dGga" format="2">
  <advance width="583"/>
  <unicode hex="097B"/>
  <outline>
    <contour>
      <point x="204" y="180" type="curve" smooth="yes"/>
      <point x="219" y="180"/>
      <point x="227" y="188"/>
      <point x="227" y="205" type="curve" smooth="yes"/>
      <point x="225" y="581" type="line"/>
      <point x="143" y="581" type="line"/>
      <point x="142" y="357" type="line"/>
      <point x="78" y="357" type="line" smooth="yes"/>
      <point x="60" y="357"/>
      <point x="53" y="346"/>
      <point x="53" y="334" type="curve" smooth="yes"/>
      <point x="53" y="280"/>
      <point x="160" y="180"/>
    </contour>
    <contour>
      <point x="495" y="0" type="line"/>
      <point x="495" y="10" type="line"/>
      <point x="470" y="57" type="line"/>
      <point x="103" y="57" type="line"/>
      <point x="103" y="47" type="line"/>
      <point x="128" y="0" type="line"/>
    </contour>
    <contour>
      <point x="496" y="0" type="line"/>
      <point x="494" y="581" type="line"/>
      <point x="411" y="581" type="line"/>
      <point x="407" y="41" type="line"/>
      <point x="486" y="0" type="line"/>
    </contour>
    <contour>
      <point x="611" y="545" type="line"/>
      <point x="611" y="555" type="line"/>
      <point x="577" y="620" type="line"/>
      <point x="-28" y="620" type="line"/>
      <point x="-28" y="610" type="line"/>
      <point x="6" y="545" type="line"/>
    </contour>
  </outline>
  <guideline angle="90" x="53" y="0"/>
</glyph>
<glyph name="dJja" format="2">
  <advance width="730"/>
  <unicode hex="097C"/>
  <outline>
    <contour>
      <point x="320" y="109" type="curve" smooth="yes"/>
      <point x="394" y="109"/>
      <point x="459" y="152"/>
      <point x="459" y="227" type="curve" smooth="yes"/>
      <point x="459" y="282"/>
      <point x="425" y="323"/>
      <point x="362" y="385" type="curve"/>
      <point x="282" y="375" type="line"/>
      <point x="347" y="347"/>
      <point x="380" y="307"/>
      <point x="380" y="266" type="curve" smooth="yes"/>
      <point x="380" y="224"/>
      <point x="347" y="190"/>
      <point x="293" y="190" type="curve" smooth="yes"/>
      <point x="206" y="190"/>
      <point x="131" y="285"/>
      <point x="63" y="425" type="curve"/>
      <point x="22" y="407" type="line"/>
      <point x="95" y="253"/>
      <point x="186" y="109"/>
    </contour>
    <contour>
      <point x="640" y="0" type="line"/>
      <point x="640" y="10" type="line"/>
      <point x="615" y="57" type="line"/>
      <point x="87" y="57" type="line"/>
      <point x="87" y="47" type="line"/>
      <point x="112" y="0" type="line"/>
    </contour>
    <contour>
      <point x="601" y="369" type="line"/>
      <point x="602" y="444" type="line"/>
      <point x="255" y="444" type="line"/>
      <point x="255" y="433" type="line"/>
      <point x="282" y="375" type="line"/>
      <point x="362" y="369" type="line"/>
    </contour>
    <contour>
      <point x="643" y="0" type="line"/>
      <point x="641" y="581" type="line"/>
      <point x="557" y="581" type="line"/>
      <point x="553" y="52" type="line"/>
      <point x="633" y="0" type="line"/>
    </contour>
    <contour>
      <point x="758" y="545" type="line"/>
      <point x="758" y="555" type="line"/>
      <point x="724" y="620" type="line"/>
      <point x="-28" y="620" type="line"/>
      <point x="-28" y="610" type="line"/>
      <point x="6" y="545" type="line"/>
    </contour>
  </outline>
  <guideline angle="90" x="17" y="0"/>
</glyph>
<glyph name="dGlottalStop" format="2">
  <advance width="423"/>
  <unicode hex="097D"/>
  <outline>
    <contour>
      <point x="162" y="43" type="line"/>
      <point x="243" y="-10" type="line"/>
      <point x="253" y="-10" type="line"/>
      <point x="249" y="243" type="line" smooth="yes"/>
      <point x="248" y="279"/>
      <point x="264" y="292"/>
      <point x="306" y="328" type="curve" smooth="yes"/>
      <point x="346" y="362"/>
      <point x="388" y="398"/>
      <point x="388" y="452" type="curve" smooth="yes"/>
      <point x="388" y="508"/>
      <point x="343" y="633"/>
      <point x="220" y="633" type="curve" smooth="yes"/>
      <point x="168" y="633"/>
      <point x="104" y="611"/>
      <point x="60" y="586" type="curve"/>
      <point x="104" y="511" type="line"/>
      <point x="147" y="537"/>
      <point x="208" y="561"/>
      <point x="255" y="561" type="curve" smooth="yes"/>
      <point x="308" y="561"/>
      <point x="323" y="530"/>
      <point x="323" y="500" type="curve" smooth="yes"/>
      <point x="323" y="452"/>
      <point x="286" y="421"/>
      <point x="242" y="385" type="curve" smooth="yes"/>
      <point x="201" y="352"/>
      <point x="168" y="324"/>
      <point x="167" y="271" type="curve" smooth="yes"/>
    </contour>
  </outline>
</glyph>
<glyph name="dDdda" format="2">
  <advance width="577"/>
  <unicode hex="097E"/>
  <outline>
    <contour>
      <point x="355" y="27" type="curve" smooth="yes"/>
      <point x="485" y="27"/>
      <point x="536" y="104"/>
      <point x="536" y="155" type="curve" smooth="yes"/>
      <point x="536" y="235"/>
      <point x="459" y="313"/>
      <point x="404" y="313" type="curve" smooth="yes"/>
      <point x="364" y="313"/>
      <point x="261" y="288"/>
      <point x="238" y="288" type="curve" smooth="yes"/>
      <point x="214" y="288"/>
      <point x="185" y="313"/>
      <point x="185" y="352" type="curve" smooth="yes"/>
      <point x="185" y="381"/>
      <point x="208" y="395"/>
      <point x="250" y="395" type="curve" smooth="yes"/>
      <point x="461" y="395" type="line"/>
      <point x="473" y="403" type="line"/>
      <point x="473" y="455"/>
      <point x="472" y="505"/>
      <point x="471" y="582" type="curve"/>
      <point x="390" y="581" type="line"/>
      <point x="390" y="470" type="line"/>
      <point x="232" y="470" type="line" smooth="yes"/>
      <point x="150" y="470"/>
      <point x="113" y="438"/>
      <point x="113" y="390" type="curve" smooth="yes"/>
      <point x="113" y="307"/>
      <point x="205" y="216"/>
      <point x="271" y="216" type="curve" smooth="yes"/>
      <point x="305" y="216"/>
      <point x="391" y="240"/>
      <point x="430" y="240" type="curve" smooth="yes"/>
      <point x="454" y="240"/>
      <point x="468" y="225"/>
      <point x="468" y="203" type="curve" smooth="yes"/>
      <point x="468" y="162"/>
      <point x="442" y="102"/>
      <point x="331" y="102" type="curve" smooth="yes"/>
      <point x="196" y="102"/>
      <point x="118" y="195"/>
      <point x="64" y="301" type="curve"/>
      <point x="26" y="279" type="line"/>
      <point x="103" y="116"/>
      <point x="226" y="27"/>
    </contour>
    <contour>
      <point x="561" y="-77" type="line"/>
      <point x="561" y="-67" type="line"/>
      <point x="536" y="-20" type="line"/>
      <point x="87" y="-20" type="line"/>
      <point x="87" y="-30" type="line"/>
      <point x="112" y="-77" type="line"/>
    </contour>
    <contour>
      <point x="605" y="545" type="line"/>
      <point x="605" y="555" type="line"/>
      <point x="571" y="620" type="line"/>
      <point x="-28" y="620" type="line"/>
      <point x="-28" y="610" type="line"/>
      <point x="6" y="545" type="line"/>
    </contour>
  </outline>
  <guideline angle="90" x="536" y="0"/>
</glyph>
<glyph name="dBba" format="2">
  <advance width="602"/>
  <unicode hex="097F"/>
  <outline>
    <contour>
      <point x="256" y="133" type="curve" smooth="yes"/>
      <point x="341" y="133"/>
      <point x="445" y="176"/>
      <point x="445" y="278" type="curve" smooth="yes"/>
      <point x="445" y="385"/>
      <point x="358" y="472"/>
      <point x="235" y="472" type="curve" smooth="yes"/>
      <point x="128" y="472"/>
      <point x="41" y="413"/>
      <point x="41" y="326" type="curve" smooth="yes"/>
      <point x="41" y="249"/>
      <point x="111" y="133"/>
    </contour>
    <contour>
      <point x="509" y="0" type="line"/>
      <point x="509" y="10" type="line"/>
      <point x="484" y="57" type="line"/>
      <point x="81" y="57" type="line"/>
      <point x="81" y="47" type="line"/>
      <point x="106" y="0" type="line"/>
    </contour>
    <contour>
      <point x="226" y="197" type="curve" smooth="yes"/>
      <point x="162" y="197"/>
      <point x="112" y="234"/>
      <point x="112" y="287" type="curve" smooth="yes"/>
      <point x="112" y="358"/>
      <point x="191" y="399"/>
      <point x="268" y="399" type="curve" smooth="yes"/>
      <point x="329" y="399"/>
      <point x="384" y="378"/>
      <point x="384" y="320" type="curve" smooth="yes"/>
      <point x="384" y="249"/>
      <point x="310" y="197"/>
    </contour>
    <contour>
      <point x="340" y="221" type="line"/>
      <point x="198" y="399" type="line"/>
      <point x="157" y="381" type="line"/>
      <point x="301" y="200" type="line"/>
    </contour>
    <contour>
      <point x="515" y="0" type="line"/>
      <point x="513" y="591" type="line"/>
      <point x="429" y="591" type="line"/>
      <point x="428" y="362" type="line"/>
      <point x="401" y="362" type="line"/>
      <point x="399" y="207" type="line"/>
      <point x="426" y="207" type="line"/>
      <point x="425" y="52" type="line"/>
      <point x="505" y="0" type="line"/>
    </contour>
    <contour>
      <point x="630" y="545" type="line"/>
      <point x="630" y="555" type="line"/>
      <point x="596" y="620" type="line"/>
      <point x="-28" y="620" type="line"/>
      <point x="-28" y="610" type="line"/>
      <point x="6" y="545" type="line"/>
    </contour>
  </outline>
  <guideline angle="90" x="41" y="0"/>
</glyph>
<glyph name="niFractionOneQuarter" format="2">
  <advance width="256"/>
  <unicode hex="A830"/>
  <outline>
    <contour>
      <point x="171" y="-5" type="line"/>
      <point x="171" y="578" type="line"/>
      <point x="95" y="628" type="line"/>
      <point x="85" y="628" type="line"/>
      <point x="85" y="45" type="line"/>
      <point x="161" y="-5" type="line"/>
    </contour>
  </outline>
</glyph>
<glyph name="niFractionOneHalf" format="2">
  <advance width="462"/>
  <unicode hex="A831"/>
  <outline>
    <contour>
      <point x="171" y="-5" type="line"/>
      <point x="171" y="578" type="line"/>
      <point x="95" y="628" type="line"/>
      <point x="85" y="628" type="line"/>
      <point x="85" y="45" type="line"/>
      <point x="161" y="-5" type="line"/>
    </contour>
    <contour>
      <point x="377" y="-5" type="line"/>
      <point x="377" y="578" type="line"/>
      <point x="301" y="628" type="line"/>
      <point x="291" y="628" type="line"/>
      <point x="291" y="45" type="line"/>
      <point x="367" y="-5" type="line"/>
    </contour>
  </outline>
</glyph>
<glyph name="niFractionThreeQuarters" format="2">
  <advance width="668"/>
  <unicode hex="A832"/>
  <outline>
    <contour>
      <point x="171" y="-5" type="line"/>
      <point x="171" y="578" type="line"/>
      <point x="95" y="628" type="line"/>
      <point x="85" y="628" type="line"/>
      <point x="85" y="45" type="line"/>
      <point x="161" y="-5" type="line"/>
    </contour>
    <contour>
      <point x="377" y="-5" type="line"/>
      <point x="377" y="578" type="line"/>
      <point x="301" y="628" type="line"/>
      <point x="291" y="628" type="line"/>
      <point x="291" y="45" type="line"/>
      <point x="367" y="-5" type="line"/>
    </contour>
    <contour>
      <point x="583" y="-5" type="line"/>
      <point x="583" y="578" type="line"/>
      <point x="507" y="628" type="line"/>
      <point x="497" y="628" type="line"/>
      <point x="497" y="45" type="line"/>
      <point x="573" y="-5" type="line"/>
    </contour>
  </outline>
</glyph>
<glyph name="niFractionOneSixteenth" format="2">
  <advance width="628"/>
  <unicode hex="A833"/>
  <outline>
    <contour>
      <point x="588" y="540" type="line"/>
      <point x="530" y="600" type="line"/>
      <point x="40" y="499" type="line"/>
      <point x="40" y="489" type="line"/>
      <point x="99" y="428" type="line"/>
      <point x="588" y="530" type="line"/>
    </contour>
  </outline>
</glyph>
<glyph name="niFractionOneEighth" format="2">
  <advance width="628"/>
  <unicode hex="A834"/>
  <outline>
    <contour>
      <point x="588" y="540" type="line"/>
      <point x="530" y="600" type="line"/>
      <point x="40" y="499" type="line"/>
      <point x="40" y="489" type="line"/>
      <point x="99" y="428" type="line"/>
      <point x="588" y="530" type="line"/>
    </contour>
    <contour>
      <point x="588" y="331" type="line"/>
      <point x="530" y="391" type="line"/>
      <point x="40" y="290" type="line"/>
      <point x="40" y="280" type="line"/>
      <point x="99" y="219" type="line"/>
      <point x="588" y="321" type="line"/>
    </contour>
  </outline>
  <guideline angle="0" x="0" y="305"/>
</glyph>
<glyph name="niQuarterMark" format="2">
  <advance width="459"/>
  <unicode hex="A836"/>
  <outline>
    <contour>
      <point x="215" y="454" type="curve" smooth="yes"/>
      <point x="137" y="454"/>
      <point x="60" y="392"/>
      <point x="60" y="302" type="curve" smooth="yes"/>
      <point x="60" y="204"/>
      <point x="148" y="121"/>
      <point x="241" y="121" type="curve" smooth="yes"/>
      <point x="324" y="121"/>
      <point x="399" y="186"/>
      <point x="399" y="271" type="curve" smooth="yes"/>
      <point x="399" y="360"/>
      <point x="313" y="454"/>
    </contour>
    <contour>
      <point x="257" y="387" type="curve" smooth="yes"/>
      <point x="303" y="387"/>
      <point x="325" y="356"/>
      <point x="325" y="314" type="curve" smooth="yes"/>
      <point x="325" y="246"/>
      <point x="267" y="188"/>
      <point x="202" y="188" type="curve" smooth="yes"/>
      <point x="154" y="188"/>
      <point x="129" y="222"/>
      <point x="129" y="260" type="curve" smooth="yes"/>
      <point x="129" y="323"/>
      <point x="193" y="387"/>
    </contour>
  </outline>
</glyph>
<glyph name="niPlaceholderMark" format="2">
  <advance width="487"/>
  <unicode hex="A837"/>
  <outline>
    <contour>
      <point x="255" y="383" type="line"/>
      <point x="255" y="412" type="line"/>
      <point x="330" y="447"/>
      <point x="401" y="488"/>
      <point x="457" y="542" type="curve"/>
      <point x="415" y="620" type="line"/>
      <point x="408" y="620" type="line"/>
      <point x="323" y="536"/>
      <point x="277" y="501"/>
      <point x="130" y="397" type="curve" smooth="yes"/>
      <point x="89" y="368"/>
      <point x="60" y="326"/>
      <point x="60" y="270" type="curve"/>
    </contour>
    <contour>
      <point x="241" y="90" type="curve" smooth="yes"/>
      <point x="324" y="90"/>
      <point x="399" y="156"/>
      <point x="399" y="239" type="curve" smooth="yes"/>
      <point x="399" y="319"/>
      <point x="327" y="411"/>
      <point x="230" y="411" type="curve" smooth="yes"/>
      <point x="172" y="411"/>
      <point x="60" y="383"/>
      <point x="60" y="270" type="curve" smooth="yes"/>
      <point x="60" y="174"/>
      <point x="148" y="90"/>
    </contour>
    <contour>
      <point x="202" y="157" type="curve" smooth="yes"/>
      <point x="153" y="157"/>
      <point x="129" y="191"/>
      <point x="129" y="229" type="curve" smooth="yes"/>
      <point x="129" y="292"/>
      <point x="193" y="356"/>
      <point x="258" y="356" type="curve" smooth="yes"/>
      <point x="303" y="356"/>
      <point x="325" y="325"/>
      <point x="325" y="283" type="curve" smooth="yes"/>
      <point x="325" y="215"/>
      <point x="267" y="157"/>
    </contour>
  </outline>
</glyph>
<glyph name="niRupeeMark" format="2">
  <advance width="195"/>
  <unicode hex="A838"/>
  <outline>
    <contour>
      <point x="70" y="628" type="line"/>
      <point x="59" y="628" type="line"/>
      <point x="79" y="455"/>
      <point x="86" y="321"/>
      <point x="86" y="234" type="curve" smooth="yes"/>
      <point x="86" y="73"/>
      <point x="62" y="8"/>
      <point x="35" y="-30" type="curve" smooth="yes"/>
      <point x="-21" y="-109"/>
      <point x="-142" y="-136"/>
      <point x="-297" y="-139" type="curve"/>
      <point x="-297" y="-147" type="line"/>
      <point x="-267" y="-221" type="line"/>
      <point x="-81" y="-216"/>
      <point x="40" y="-171"/>
      <point x="97" y="-80" type="curve" smooth="yes"/>
      <point x="130" y="-27"/>
      <point x="147" y="49"/>
      <point x="147" y="192" type="curve" smooth="yes"/>
      <point x="147" y="296"/>
      <point x="138" y="423"/>
      <point x="118" y="590" type="curve"/>
    </contour>
  </outline>
</glyph>
<glyph name="niQuantityMark" format="2">
  <advance width="326"/>
  <unicode hex="A839"/>
  <outline>
    <contour>
      <point x="296" y="536" type="line"/>
      <point x="267" y="608" type="line"/>
      <point x="140" y="598"/>
      <point x="59" y="560"/>
      <point x="59" y="396" type="curve" smooth="yes"/>
      <point x="59" y="291"/>
      <point x="92" y="159"/>
      <point x="92" y="76" type="curve" smooth="yes"/>
      <point x="92" y="-41"/>
      <point x="11" y="-131"/>
      <point x="-297" y="-139" type="curve"/>
      <point x="-297" y="-147" type="line"/>
      <point x="-267" y="-221" type="line"/>
      <point x="56" y="-208"/>
      <point x="151" y="-96"/>
      <point x="151" y="45" type="curve" smooth="yes"/>
      <point x="151" y="143"/>
      <point x="117" y="272"/>
      <point x="117" y="368" type="curve" smooth="yes"/>
      <point x="117" y="480"/>
      <point x="163" y="514"/>
      <point x="296" y="528" type="curve"/>
    </contour>
  </outline>
</glyph>
<glyph name="dSignAy" format="2">
  <unicode hex="A8FF"/>
  <outline>
    <contour>
      <point x="-92" y="608" type="line"/>
      <point x="-73" y="647"/>
      <point x="-63" y="689"/>
      <point x="-63" y="719" type="curve" smooth="yes"/>
      <point x="-63" y="782"/>
      <point x="-98" y="814"/>
      <point x="-146" y="846" type="curve" smooth="yes"/>
      <point x="-212" y="890"/>
      <point x="-255" y="903"/>
      <point x="-255" y="958" type="curve" smooth="yes"/>
      <point x="-255" y="966"/>
      <point x="-254" y="974"/>
      <point x="-253" y="980" type="curve"/>
      <point x="-286" y="988" type="line"/>
      <point x="-293" y="966"/>
      <point x="-299" y="939"/>
      <point x="-299" y="912" type="curve" smooth="yes"/>
      <point x="-299" y="841"/>
      <point x="-258" y="817"/>
      <point x="-196" y="780" type="curve" smooth="yes"/>
      <point x="-149" y="752"/>
      <point x="-111" y="726"/>
      <point x="-111" y="673" type="curve" smooth="yes"/>
      <point x="-111" y="658"/>
      <point x="-115" y="632"/>
      <point x="-127" y="608" type="curve"/>
    </contour>
    <contour>
      <point x="-136" y="608" type="line"/>
      <point x="-143" y="708"/>
      <point x="-182" y="759"/>
      <point x="-271" y="759" type="curve" smooth="yes"/>
      <point x="-301" y="759"/>
      <point x="-344" y="753"/>
      <point x="-371" y="753" type="curve" smooth="yes"/>
      <point x="-418" y="753"/>
      <point x="-436" y="772"/>
      <point x="-450" y="821" type="curve"/>
      <point x="-484" y="811" type="line"/>
      <point x="-466" y="733"/>
      <point x="-442" y="674"/>
      <point x="-356" y="674" type="curve" smooth="yes"/>
      <point x="-326" y="674"/>
      <point x="-289" y="681"/>
      <point x="-259" y="681" type="curve" smooth="yes"/>
      <point x="-217" y="681"/>
      <point x="-174" y="667"/>
      <point x="-169" y="609" type="curve"/>
      <point x="-169" y="608" type="line"/>
    </contour>
  </outline>
</glyph>
<glyph name="dBBha" format="2">
  <advance width="987"/>
  <outline>
    <component base="dBha" xOffset="271"/>
    <contour>
      <point x="41" y="291" type="curve" smooth="yes"/>
      <point x="41" y="214"/>
      <point x="111" y="98"/>
      <point x="256" y="98" type="curve" smooth="yes"/>
      <point x="356" y="98"/>
      <point x="450" y="154"/>
      <point x="450" y="247" type="curve" smooth="yes"/>
      <point x="450" y="331"/>
      <point x="374" y="437"/>
      <point x="234" y="437" type="curve" smooth="yes"/>
      <point x="129" y="437"/>
      <point x="41" y="378"/>
    </contour>
    <contour>
      <point x="379" y="545" type="line"/>
      <point x="408" y="620" type="line"/>
      <point x="-28" y="620" type="line"/>
      <point x="-28" y="610" type="line"/>
      <point x="6" y="545" type="line"/>
    </contour>
    <contour>
      <point x="359" y="162" type="line"/>
      <point x="180" y="386" type="line"/>
      <point x="139" y="369" type="line"/>
      <point x="320" y="141" type="line"/>
    </contour>
    <contour>
      <point x="384" y="285" type="curve" smooth="yes"/>
      <point x="384" y="214"/>
      <point x="310" y="162"/>
      <point x="226" y="162" type="curve" smooth="yes"/>
      <point x="162" y="162"/>
      <point x="112" y="199"/>
      <point x="112" y="252" type="curve" smooth="yes"/>
      <point x="112" y="324"/>
      <point x="192" y="364"/>
      <point x="268" y="364" type="curve" smooth="yes"/>
      <point x="329" y="364"/>
      <point x="384" y="343"/>
    </contour>
  </outline>
</glyph>
<glyph name="dBJa" format="2">
  <advance width="1058"/>
  <outline>
    <contour>
      <point x="648" y="85" type="curve" smooth="yes"/>
      <point x="722" y="85"/>
      <point x="787" y="130"/>
      <point x="787" y="208" type="curve" smooth="yes"/>
      <point x="787" y="264"/>
      <point x="754" y="307"/>
      <point x="691" y="371" type="curve"/>
      <point x="610" y="361" type="line"/>
      <point x="675" y="332"/>
      <point x="708" y="289"/>
      <point x="708" y="246" type="curve" smooth="yes"/>
      <point x="708" y="202"/>
      <point x="675" y="166"/>
      <point x="621" y="166" type="curve" smooth="yes"/>
      <point x="530" y="166"/>
      <point x="437" y="275"/>
      <point x="368" y="471" type="curve"/>
      <point x="327" y="453" type="line"/>
      <point x="350" y="365"/>
      <point x="469" y="85"/>
    </contour>
    <contour>
      <point x="226" y="162" type="curve" smooth="yes"/>
      <point x="162" y="162"/>
      <point x="112" y="199"/>
      <point x="112" y="252" type="curve" smooth="yes"/>
      <point x="112" y="323"/>
      <point x="191" y="364"/>
      <point x="268" y="364" type="curve" smooth="yes"/>
      <point x="329" y="364"/>
      <point x="384" y="343"/>
      <point x="384" y="285" type="curve" smooth="yes"/>
      <point x="384" y="211"/>
      <point x="304" y="162"/>
    </contour>
    <contour>
      <point x="256" y="98" type="curve" smooth="yes"/>
      <point x="349" y="98"/>
      <point x="437" y="146"/>
      <point x="449" y="228" type="curve"/>
      <point x="354" y="405" type="line"/>
      <point x="321" y="425"/>
      <point x="281" y="437"/>
      <point x="234" y="437" type="curve" smooth="yes"/>
      <point x="129" y="437"/>
      <point x="41" y="378"/>
      <point x="41" y="291" type="curve" smooth="yes"/>
      <point x="41" y="214"/>
      <point x="111" y="98"/>
    </contour>
    <contour>
      <point x="359" y="162" type="line"/>
      <point x="175" y="393" type="line"/>
      <point x="139" y="369" type="line"/>
      <point x="316" y="146" type="line"/>
    </contour>
    <contour>
      <point x="1086" y="545" type="line"/>
      <point x="1086" y="555" type="line"/>
      <point x="1052" y="620" type="line"/>
      <point x="-28" y="620" type="line"/>
      <point x="-28" y="610" type="line"/>
      <point x="6" y="545" type="line"/>
    </contour>
    <contour>
      <point x="929" y="355" type="line"/>
      <point x="930" y="430" type="line"/>
      <point x="583" y="430" type="line"/>
      <point x="583" y="419" type="line"/>
      <point x="610" y="361" type="line"/>
      <point x="690" y="355" type="line"/>
    </contour>
    <contour>
      <point x="971" y="-10" type="line"/>
      <point x="969" y="581" type="line"/>
      <point x="885" y="581" type="line"/>
      <point x="881" y="42" type="line"/>
      <point x="961" y="-10" type="line"/>
    </contour>
  </outline>
</glyph>
<glyph name="dBb.half" format="2">
  <advance width="342"/>
  <outline>
    <contour>
      <point x="81" y="47" type="line"/>
      <point x="106" y="0" type="line"/>
      <point x="444" y="0" type="line"/>
      <point x="444" y="10" type="line"/>
      <point x="419" y="57" type="line"/>
      <point x="81" y="57" type="line"/>
    </contour>
    <contour>
      <point x="41" y="326" type="curve" smooth="yes"/>
      <point x="41" y="249"/>
      <point x="111" y="133"/>
      <point x="256" y="133" type="curve" smooth="yes"/>
      <point x="356" y="133"/>
      <point x="450" y="189"/>
      <point x="450" y="282" type="curve" smooth="yes"/>
      <point x="450" y="366"/>
      <point x="374" y="472"/>
      <point x="234" y="472" type="curve" smooth="yes"/>
      <point x="129" y="472"/>
      <point x="41" y="413"/>
    </contour>
    <contour>
      <point x="442" y="545" type="line"/>
      <point x="442" y="555" type="line"/>
      <point x="408" y="620" type="line"/>
      <point x="-28" y="620" type="line"/>
      <point x="-28" y="610" type="line"/>
      <point x="6" y="545" type="line"/>
    </contour>
    <contour>
      <point x="340" y="221" type="line"/>
      <point x="198" y="399" type="line"/>
      <point x="157" y="381" type="line"/>
      <point x="301" y="200" type="line"/>
    </contour>
    <contour>
      <point x="384" y="320" type="curve" smooth="yes"/>
      <point x="384" y="246"/>
      <point x="304" y="197"/>
      <point x="226" y="197" type="curve" smooth="yes"/>
      <point x="162" y="197"/>
      <point x="112" y="234"/>
      <point x="112" y="287" type="curve" smooth="yes"/>
      <point x="112" y="358"/>
      <point x="191" y="399"/>
      <point x="268" y="399" type="curve" smooth="yes"/>
      <point x="329" y="399"/>
      <point x="384" y="378"/>
    </contour>
  </outline>
  <guideline angle="90" x="41" y="0"/>
</glyph>
<glyph name="dCRa" format="2">
  <advance width="676"/>
  <outline>
    <contour>
      <point x="546" y="210" type="line"/>
      <point x="546" y="316" type="line"/>
      <point x="422" y="210"/>
      <point x="358" y="192"/>
      <point x="314" y="192" type="curve" smooth="yes"/>
      <point x="266" y="192"/>
      <point x="221" y="215"/>
      <point x="221" y="277" type="curve" smooth="yes"/>
      <point x="221" y="365"/>
      <point x="314" y="373"/>
      <point x="402" y="373" type="curve"/>
      <point x="402" y="409" type="line"/>
      <point x="204" y="409" type="line"/>
      <point x="169" y="380"/>
      <point x="149" y="351"/>
      <point x="149" y="310" type="curve" smooth="yes"/>
      <point x="149" y="237"/>
      <point x="216" y="142"/>
      <point x="330" y="136" type="curve"/>
    </contour>
    <contour>
      <point x="527" y="200" type="line"/>
      <point x="527" y="272" type="line"/>
      <point x="310" y="154" type="line"/>
      <point x="310" y="136" type="line"/>
      <point x="174" y="36" type="line"/>
      <point x="233" y="-21" type="line"/>
    </contour>
    <contour>
      <point x="183" y="370" type="line"/>
      <point x="351" y="393" type="line"/>
      <point x="402" y="373" type="line"/>
      <point x="416" y="373"/>
      <point x="422" y="373"/>
      <point x="444" y="372" type="curve"/>
      <point x="444" y="382" type="line"/>
      <point x="411" y="446" type="line"/>
      <point x="37" y="446" type="line"/>
      <point x="37" y="436" type="line"/>
      <point x="72" y="370" type="line"/>
    </contour>
    <contour>
      <point x="589" y="-10" type="line"/>
      <point x="587" y="581" type="line"/>
      <point x="503" y="581" type="line"/>
      <point x="499" y="42" type="line"/>
      <point x="579" y="-10" type="line"/>
    </contour>
    <contour>
      <point x="704" y="545" type="line"/>
      <point x="704" y="555" type="line"/>
      <point x="670" y="620" type="line"/>
      <point x="-28" y="620" type="line"/>
      <point x="-28" y="610" type="line"/>
      <point x="6" y="545" type="line"/>
    </contour>
  </outline>
</glyph>
<glyph name="dDBhYa" format="2">
  <advance width="1155"/>
  <outline>
    <component base="dDBha"/>
    <contour>
      <point x="1068" y="-45" type="line"/>
      <point x="1066" y="545" type="line"/>
      <point x="1183" y="545" type="line"/>
      <point x="1183" y="555" type="line"/>
      <point x="1149" y="620" type="line"/>
      <point x="628" y="620" type="line"/>
      <point x="628" y="610" type="line"/>
      <point x="662" y="545" type="line"/>
      <point x="982" y="545" type="line"/>
      <point x="978" y="7" type="line"/>
      <point x="1058" y="-45" type="line"/>
    </contour>
    <contour>
      <point x="872" y="50" type="curve" smooth="yes"/>
      <point x="907" y="50"/>
      <point x="945" y="60"/>
      <point x="977" y="80" type="curve"/>
      <point x="1004" y="68" type="line"/>
      <point x="1007" y="199" type="line"/>
      <point x="940" y="139"/>
      <point x="884" y="113"/>
      <point x="841" y="113" type="curve" smooth="yes"/>
      <point x="792" y="113"/>
      <point x="754" y="146"/>
      <point x="753" y="187" type="curve"/>
      <point x="844" y="215"/>
      <point x="880" y="251"/>
      <point x="880" y="302" type="curve" smooth="yes"/>
      <point x="880" y="357"/>
      <point x="837" y="449"/>
      <point x="713" y="449" type="curve" smooth="yes"/>
      <point x="502" y="449" type="line"/>
      <point x="517" y="376" type="line"/>
      <point x="738" y="376" type="line" smooth="yes"/>
      <point x="804" y="376"/>
      <point x="810" y="359"/>
      <point x="810" y="343" type="curve" smooth="yes"/>
      <point x="810" y="302"/>
      <point x="762" y="272"/>
      <point x="667" y="247" type="curve"/>
      <point x="687" y="135"/>
      <point x="771" y="50"/>
    </contour>
  </outline>
</glyph>
<glyph name="dDGRa" format="2">
  <advance width="517"/>
  <outline>
    <contour>
      <point x="546" y="-221" type="line"/>
      <point x="387" y="177" type="line"/>
      <point x="362" y="145"/>
      <point x="321" y="129"/>
      <point x="269" y="129" type="curve" smooth="yes"/>
      <point x="199" y="129"/>
      <point x="130" y="178"/>
      <point x="130" y="273" type="curve" smooth="yes"/>
      <point x="130" y="341"/>
      <point x="185" y="374"/>
      <point x="270" y="374" type="curve" smooth="yes"/>
      <point x="411" y="374" type="line"/>
      <point x="423" y="382" type="line"/>
      <point x="423" y="434"/>
      <point x="422" y="528"/>
      <point x="420" y="580" type="curve"/>
      <point x="340" y="580" type="line"/>
      <point x="340" y="449" type="line"/>
      <point x="265" y="449" type="line" smooth="yes"/>
      <point x="139" y="449"/>
      <point x="55" y="420"/>
      <point x="55" y="316" type="curve" smooth="yes"/>
      <point x="55" y="181"/>
      <point x="183" y="62"/>
      <point x="321" y="62" type="curve" smooth="yes"/>
      <point x="385" y="62"/>
      <point x="473" y="99"/>
      <point x="473" y="161" type="curve" smooth="yes"/>
      <point x="473" y="208"/>
      <point x="397" y="252"/>
      <point x="352" y="252" type="curve" smooth="yes"/>
      <point x="331" y="252"/>
      <point x="317" y="242"/>
      <point x="317" y="220" type="curve" smooth="yes"/>
      <point x="317" y="204"/>
      <point x="327" y="168"/>
      <point x="348" y="104" type="curve" smooth="yes"/>
      <point x="448" y="-196" type="line"/>
      <point x="536" y="-224" type="line"/>
    </contour>
    <contour>
      <point x="161" y="-139" type="curve" smooth="yes"/>
      <point x="176" y="-139"/>
      <point x="184" y="-131"/>
      <point x="184" y="-114" type="curve" smooth="yes"/>
      <point x="183" y="138" type="line"/>
      <point x="112" y="200" type="line"/>
      <point x="110" y="17" type="line"/>
      <point x="51" y="17" type="line" smooth="yes"/>
      <point x="33" y="17"/>
      <point x="26" y="6"/>
      <point x="26" y="-6" type="curve" smooth="yes"/>
      <point x="26" y="-57"/>
      <point x="117" y="-139"/>
    </contour>
    <contour>
      <point x="418" y="1" type="line"/>
      <point x="375" y="66" type="line"/>
      <point x="222" y="-126" type="line"/>
      <point x="295" y="-165" type="line"/>
    </contour>
    <contour>
      <point x="545" y="545" type="line"/>
      <point x="545" y="555" type="line"/>
      <point x="511" y="620" type="line"/>
      <point x="-28" y="620" type="line"/>
      <point x="-28" y="610" type="line"/>
      <point x="6" y="545" type="line"/>
    </contour>
  </outline>
</glyph>
<glyph name="dDNa" format="2">
  <advance width="517"/>
  <outline>
    <contour>
      <point x="487" y="-98" type="line"/>
      <point x="539" y="-65" type="line"/>
      <point x="374" y="164" type="line"/>
      <point x="346" y="131"/>
      <point x="305" y="124"/>
      <point x="270" y="124" type="curve" smooth="yes"/>
      <point x="200" y="124"/>
      <point x="130" y="178"/>
      <point x="130" y="273" type="curve" smooth="yes"/>
      <point x="130" y="341"/>
      <point x="185" y="374"/>
      <point x="270" y="374" type="curve" smooth="yes"/>
      <point x="411" y="374" type="line"/>
      <point x="423" y="382" type="line"/>
      <point x="423" y="434"/>
      <point x="422" y="508"/>
      <point x="421" y="574" type="curve"/>
      <point x="340" y="574" type="line"/>
      <point x="340" y="449" type="line"/>
      <point x="265" y="449" type="line" smooth="yes"/>
      <point x="139" y="449"/>
      <point x="55" y="420"/>
      <point x="55" y="316" type="curve" smooth="yes"/>
      <point x="55" y="194"/>
      <point x="165" y="58"/>
      <point x="330" y="58" type="curve" smooth="yes"/>
      <point x="447" y="58"/>
      <point x="475" y="133"/>
      <point x="475" y="159" type="curve" smooth="yes"/>
      <point x="475" y="206"/>
      <point x="397" y="250"/>
      <point x="352" y="250" type="curve" smooth="yes"/>
      <point x="331" y="250"/>
      <point x="317" y="240"/>
      <point x="317" y="218" type="curve" smooth="yes"/>
      <point x="317" y="193"/>
      <point x="335" y="153"/>
      <point x="369" y="93" type="curve" smooth="yes"/>
      <point x="478" y="-98" type="line"/>
    </contour>
    <contour>
      <point x="237" y="-156" type="curve" smooth="yes"/>
      <point x="257" y="-156"/>
      <point x="263" y="-146"/>
      <point x="263" y="-133" type="curve" smooth="yes"/>
      <point x="263" y="-124"/>
      <point x="262" y="-106"/>
      <point x="238" y="-48" type="curve"/>
      <point x="419" y="81" type="line"/>
      <point x="267" y="81" type="line"/>
      <point x="267" y="63" type="line"/>
      <point x="141" y="-21" type="line" smooth="yes"/>
      <point x="122" y="-34"/>
      <point x="104" y="-48"/>
      <point x="104" y="-66" type="curve" smooth="yes"/>
      <point x="104" y="-107"/>
      <point x="194" y="-156"/>
    </contour>
    <contour>
      <point x="545" y="545" type="line"/>
      <point x="545" y="555" type="line"/>
      <point x="511" y="620" type="line"/>
      <point x="-28" y="620" type="line"/>
      <point x="-28" y="610" type="line"/>
      <point x="6" y="545" type="line"/>
    </contour>
  </outline>
</glyph>
<glyph name="dDVRa" format="2">
  <advance width="517"/>
  <outline>
    <contour>
      <point x="535" y="-170" type="line"/>
      <point x="589" y="-135" type="line"/>
      <point x="369" y="176" type="line"/>
      <point x="347" y="141"/>
      <point x="300" y="133"/>
      <point x="266" y="133" type="curve" smooth="yes"/>
      <point x="196" y="133"/>
      <point x="130" y="183"/>
      <point x="130" y="278" type="curve" smooth="yes"/>
      <point x="130" y="346"/>
      <point x="185" y="379"/>
      <point x="270" y="379" type="curve" smooth="yes"/>
      <point x="411" y="379" type="line"/>
      <point x="423" y="387" type="line"/>
      <point x="423" y="439"/>
      <point x="422" y="507"/>
      <point x="421" y="571" type="curve"/>
      <point x="340" y="571" type="line"/>
      <point x="340" y="454" type="line"/>
      <point x="265" y="454" type="line" smooth="yes"/>
      <point x="139" y="454"/>
      <point x="55" y="425"/>
      <point x="55" y="321" type="curve" smooth="yes"/>
      <point x="55" y="186"/>
      <point x="175" y="66"/>
      <point x="318" y="66" type="curve" smooth="yes"/>
      <point x="366" y="66"/>
      <point x="372" y="67"/>
      <point x="406" y="82" type="curve" smooth="yes"/>
      <point x="452" y="103"/>
      <point x="471" y="147"/>
      <point x="471" y="168" type="curve" smooth="yes"/>
      <point x="471" y="212"/>
      <point x="394" y="257"/>
      <point x="349" y="257" type="curve" smooth="yes"/>
      <point x="328" y="257"/>
      <point x="314" y="247"/>
      <point x="314" y="225" type="curve" smooth="yes"/>
      <point x="314" y="176"/>
      <point x="376" y="91"/>
      <point x="401" y="41" type="curve"/>
      <point x="526" y="-170" type="line"/>
    </contour>
    <contour>
      <point x="383" y="-91" type="line" smooth="yes"/>
      <point x="406" y="-68"/>
      <point x="424" y="-41"/>
      <point x="440" y="7" type="curve"/>
      <point x="383" y="92" type="line"/>
      <point x="361" y="-40"/>
      <point x="279" y="-67"/>
      <point x="228" y="-67" type="curve" smooth="yes"/>
      <point x="200" y="-67"/>
      <point x="169" y="-58"/>
      <point x="169" y="-22" type="curve" smooth="yes"/>
      <point x="169" y="30"/>
      <point x="231" y="64"/>
      <point x="282" y="75" type="curve"/>
      <point x="191" y="124" type="line"/>
      <point x="121" y="91"/>
      <point x="98" y="60"/>
      <point x="98" y="18" type="curve" smooth="yes"/>
      <point x="98" y="-46"/>
      <point x="152" y="-128"/>
      <point x="260" y="-128" type="curve"/>
      <point x="240" y="-85" type="line"/>
      <point x="240" y="-129" type="line"/>
      <point x="151" y="-211" type="line"/>
      <point x="214" y="-260" type="line"/>
    </contour>
    <contour>
      <point x="550" y="545" type="line"/>
      <point x="550" y="555" type="line"/>
      <point x="516" y="620" type="line"/>
      <point x="-28" y="620" type="line"/>
      <point x="-28" y="610" type="line"/>
      <point x="6" y="545" type="line"/>
    </contour>
  </outline>
</glyph>
<glyph name="dDhR.half" format="2">
  <advance width="428"/>
  <outline>
    <contour>
      <point x="389" y="133" type="line"/>
      <point x="512" y="293" type="line"/>
      <point x="416" y="212"/>
      <point x="347" y="192"/>
      <point x="299" y="192" type="curve" smooth="yes"/>
      <point x="246" y="192"/>
      <point x="200" y="221"/>
      <point x="200" y="265" type="curve" smooth="yes"/>
      <point x="200" y="310"/>
      <point x="247" y="350"/>
      <point x="389" y="363" type="curve"/>
      <point x="352" y="441" type="line"/>
      <point x="292" y="435"/>
      <point x="253" y="417"/>
      <point x="215" y="417" type="curve" smooth="yes"/>
      <point x="172" y="417"/>
      <point x="127" y="441"/>
      <point x="127" y="493" type="curve" smooth="yes"/>
      <point x="127" y="535"/>
      <point x="158" y="564"/>
      <point x="204" y="564" type="curve" smooth="yes"/>
      <point x="243" y="564"/>
      <point x="270" y="545"/>
      <point x="287" y="491" type="curve"/>
      <point x="296" y="491" type="line"/>
      <point x="297" y="499"/>
      <point x="298" y="508"/>
      <point x="298" y="518" type="curve" smooth="yes"/>
      <point x="298" y="576"/>
      <point x="265" y="633"/>
      <point x="180" y="633" type="curve" smooth="yes"/>
      <point x="107" y="633"/>
      <point x="54" y="591"/>
      <point x="54" y="525" type="curve" smooth="yes"/>
      <point x="54" y="459"/>
      <point x="109" y="403"/>
      <point x="172" y="373" type="curve"/>
      <point x="174" y="389" type="line"/>
      <point x="138" y="364"/>
      <point x="127" y="333"/>
      <point x="127" y="308" type="curve" smooth="yes"/>
      <point x="127" y="240"/>
      <point x="205" y="128"/>
      <point x="351" y="132" type="curve"/>
    </contour>
    <contour>
      <point x="548" y="221" type="line"/>
      <point x="512" y="293" type="line"/>
      <point x="406" y="190" type="line"/>
      <point x="320" y="156" type="line"/>
      <point x="154" y="43" type="line"/>
      <point x="212" y="-15" type="line"/>
    </contour>
    <contour>
      <point x="528" y="545" type="line"/>
      <point x="528" y="555" type="line"/>
      <point x="494" y="620" type="line"/>
      <point x="359" y="620" type="line"/>
      <point x="359" y="610" type="line"/>
      <point x="393" y="545" type="line"/>
    </contour>
  </outline>
</glyph>
<glyph name="dEight.sups" format="2">
  <advance width="498"/>
  <outline>
    <contour>
      <point x="417" y="229" type="line"/>
      <point x="472" y="264"/>
      <point x="488" y="295"/>
      <point x="488" y="326" type="curve" smooth="yes"/>
      <point x="488" y="386"/>
      <point x="425" y="437"/>
      <point x="374" y="437" type="curve" smooth="yes"/>
      <point x="340" y="437"/>
      <point x="305" y="414"/>
      <point x="263" y="414" type="curve" smooth="yes"/>
      <point x="229" y="414"/>
      <point x="201" y="428"/>
      <point x="201" y="476" type="curve" smooth="yes"/>
      <point x="201" y="525"/>
      <point x="232" y="583"/>
      <point x="274" y="624" type="curve"/>
      <point x="175" y="624" type="line"/>
      <point x="143" y="575"/>
      <point x="127" y="533"/>
      <point x="127" y="500" type="curve" smooth="yes"/>
      <point x="127" y="418"/>
      <point x="217" y="351"/>
      <point x="302" y="351" type="curve" smooth="yes"/>
      <point x="348" y="351"/>
      <point x="377" y="373"/>
      <point x="403" y="373" type="curve" smooth="yes"/>
      <point x="421" y="373"/>
      <point x="433" y="365"/>
      <point x="433" y="350" type="curve" smooth="yes"/>
      <point x="433" y="328"/>
      <point x="402" y="302"/>
      <point x="362" y="282" type="curve"/>
    </contour>
    <contour>
      <point x="443" y="606" type="line"/>
      <point x="443" y="615" type="line"/>
      <point x="414" y="672" type="line"/>
      <point x="75" y="672" type="line"/>
      <point x="75" y="663" type="line"/>
      <point x="104" y="606" type="line"/>
    </contour>
  </outline>
</glyph>
<glyph name="dFive.ss04sups" format="2">
  <advance width="469"/>
  <outline>
    <contour>
      <point x="494" y="224" type="line"/>
      <point x="379" y="462" type="line"/>
      <point x="343" y="478" type="line"/>
      <point x="325" y="453"/>
      <point x="287" y="432"/>
      <point x="248" y="432" type="curve" smooth="yes"/>
      <point x="204" y="432"/>
      <point x="177" y="459"/>
      <point x="177" y="504" type="curve" smooth="yes"/>
      <point x="177" y="539"/>
      <point x="195" y="610"/>
      <point x="218" y="676" type="curve"/>
      <point x="148" y="717" type="line"/>
      <point x="136" y="717" type="line"/>
      <point x="120" y="654"/>
      <point x="107" y="573"/>
      <point x="107" y="543" type="curve" smooth="yes"/>
      <point x="107" y="454"/>
      <point x="204" y="368"/>
      <point x="282" y="368" type="curve" smooth="yes"/>
      <point x="359" y="368"/>
      <point x="436" y="448"/>
      <point x="436" y="491" type="curve" smooth="yes"/>
      <point x="436" y="527"/>
      <point x="378" y="568"/>
      <point x="342" y="568" type="curve" smooth="yes"/>
      <point x="322" y="568"/>
      <point x="313" y="554"/>
      <point x="313" y="541" type="curve" smooth="yes"/>
      <point x="313" y="524"/>
      <point x="331" y="460"/>
      <point x="348" y="439" type="curve"/>
      <point x="432" y="207" type="line"/>
      <point x="440" y="205" type="line"/>
    </contour>
  </outline>
</glyph>
<glyph name="dFive.sups" format="2">
  <advance width="447"/>
  <outline>
    <contour>
      <point x="303" y="205" type="line"/>
      <point x="348" y="234" type="line"/>
      <point x="257" y="352" type="line" smooth="yes"/>
      <point x="203" y="421"/>
      <point x="172" y="442"/>
      <point x="154" y="442" type="curve" smooth="yes"/>
      <point x="134" y="442"/>
      <point x="122" y="421"/>
      <point x="122" y="394" type="curve" smooth="yes"/>
      <point x="122" y="332"/>
      <point x="185" y="318"/>
      <point x="239" y="318" type="curve" smooth="yes"/>
      <point x="300" y="318"/>
      <point x="395" y="368"/>
      <point x="395" y="477" type="curve"/>
      <point x="397" y="658" type="line"/>
      <point x="334" y="699" type="line"/>
      <point x="325" y="699" type="line"/>
      <point x="328" y="477" type="line"/>
      <point x="328" y="404"/>
      <point x="283" y="370"/>
      <point x="203" y="368" type="curve"/>
      <point x="295" y="205" type="line"/>
    </contour>
    <contour>
      <point x="266" y="451" type="curve" smooth="yes"/>
      <point x="293" y="451"/>
      <point x="318" y="460"/>
      <point x="343" y="483" type="curve"/>
      <point x="343" y="577" type="line"/>
      <point x="302" y="523"/>
      <point x="262" y="510"/>
      <point x="237" y="510" type="curve" smooth="yes"/>
      <point x="201" y="510"/>
      <point x="177" y="535"/>
      <point x="177" y="574" type="curve" smooth="yes"/>
      <point x="177" y="597"/>
      <point x="183" y="629"/>
      <point x="194" y="670" type="curve"/>
      <point x="129" y="717" type="line"/>
      <point x="120" y="717" type="line"/>
      <point x="112" y="676"/>
      <point x="106" y="633"/>
      <point x="106" y="613" type="curve" smooth="yes"/>
      <point x="106" y="526"/>
      <point x="195" y="451"/>
    </contour>
  </outline>
</glyph>
<glyph name="dFour.sups" format="2">
  <advance width="450"/>
  <outline>
    <contour>
      <point x="265" y="314" type="curve" smooth="yes"/>
      <point x="322" y="314"/>
      <point x="370" y="353"/>
      <point x="370" y="408" type="curve" smooth="yes"/>
      <point x="370" y="456"/>
      <point x="328" y="506"/>
      <point x="257" y="571" type="curve" smooth="yes"/>
      <point x="207" y="617"/>
      <point x="152" y="661"/>
      <point x="91" y="714" type="curve"/>
      <point x="50" y="674" type="line"/>
      <point x="118" y="624"/>
      <point x="181" y="579"/>
      <point x="236" y="529" type="curve" smooth="yes"/>
      <point x="277" y="492"/>
      <point x="311" y="460"/>
      <point x="311" y="430" type="curve" smooth="yes"/>
      <point x="311" y="392"/>
      <point x="277" y="360"/>
      <point x="240" y="360" type="curve" smooth="yes"/>
      <point x="211" y="360"/>
      <point x="194" y="381"/>
      <point x="194" y="405" type="curve" smooth="yes"/>
      <point x="194" y="429"/>
      <point x="209" y="471"/>
      <point x="261" y="515" type="curve" smooth="yes"/>
      <point x="280" y="531"/>
      <point x="374" y="608"/>
      <point x="430" y="655" type="curve"/>
      <point x="396" y="717" type="line"/>
      <point x="390" y="717" type="line"/>
      <point x="365" y="696"/>
      <point x="233" y="587"/>
      <point x="216" y="571" type="curve" smooth="yes"/>
      <point x="152" y="511"/>
      <point x="137" y="464"/>
      <point x="137" y="432" type="curve" smooth="yes"/>
      <point x="137" y="370"/>
      <point x="195" y="314"/>
    </contour>
  </outline>
  <guideline angle="316.593" x="0" y="758"/>
  <guideline angle="45" x="-350" y="0"/>
</glyph>
<glyph name="dGJa" format="2">
  <advance width="1033"/>
  <outline>
    <contour>
      <point x="623" y="85" type="curve" smooth="yes"/>
      <point x="697" y="85"/>
      <point x="762" y="130"/>
      <point x="762" y="208" type="curve" smooth="yes"/>
      <point x="762" y="264"/>
      <point x="728" y="308"/>
      <point x="666" y="371" type="curve"/>
      <point x="585" y="361" type="line"/>
      <point x="650" y="332"/>
      <point x="683" y="289"/>
      <point x="683" y="246" type="curve" smooth="yes"/>
      <point x="683" y="202"/>
      <point x="650" y="166"/>
      <point x="596" y="166" type="curve" smooth="yes"/>
      <point x="507" y="166"/>
      <point x="430" y="265"/>
      <point x="361" y="411" type="curve"/>
      <point x="320" y="393" type="line"/>
      <point x="394" y="234"/>
      <point x="487" y="85"/>
    </contour>
    <contour>
      <point x="204" y="170" type="curve" smooth="yes"/>
      <point x="219" y="170"/>
      <point x="227" y="178"/>
      <point x="227" y="195" type="curve" smooth="yes"/>
      <point x="225" y="581" type="line"/>
      <point x="143" y="581" type="line"/>
      <point x="142" y="347" type="line"/>
      <point x="78" y="347" type="line" smooth="yes"/>
      <point x="60" y="347"/>
      <point x="53" y="336"/>
      <point x="53" y="324" type="curve" smooth="yes"/>
      <point x="53" y="270"/>
      <point x="160" y="170"/>
    </contour>
    <contour>
      <point x="1061" y="545" type="line"/>
      <point x="1061" y="555" type="line"/>
      <point x="1027" y="620" type="line"/>
      <point x="-28" y="620" type="line"/>
      <point x="-28" y="610" type="line"/>
      <point x="6" y="545" type="line"/>
    </contour>
    <contour>
      <point x="894" y="355" type="line"/>
      <point x="895" y="430" type="line"/>
      <point x="558" y="430" type="line"/>
      <point x="558" y="419" type="line"/>
      <point x="585" y="361" type="line"/>
      <point x="665" y="355" type="line"/>
    </contour>
    <contour>
      <point x="946" y="-10" type="line"/>
      <point x="944" y="581" type="line"/>
      <point x="860" y="581" type="line"/>
      <point x="856" y="42" type="line"/>
      <point x="936" y="-10" type="line"/>
    </contour>
  </outline>
</glyph>
<glyph name="dGg.half" format="2">
  <advance width="307"/>
  <outline>
    <contour>
      <point x="204" y="180" type="curve" smooth="yes"/>
      <point x="219" y="180"/>
      <point x="227" y="188"/>
      <point x="227" y="205" type="curve" smooth="yes"/>
      <point x="225" y="581" type="line"/>
      <point x="143" y="581" type="line"/>
      <point x="142" y="357" type="line"/>
      <point x="78" y="357" type="line" smooth="yes"/>
      <point x="60" y="357"/>
      <point x="53" y="346"/>
      <point x="53" y="334" type="curve" smooth="yes"/>
      <point x="53" y="280"/>
      <point x="160" y="180"/>
    </contour>
    <contour>
      <point x="415" y="0" type="line"/>
      <point x="415" y="10" type="line"/>
      <point x="390" y="57" type="line"/>
      <point x="103" y="57" type="line"/>
      <point x="103" y="47" type="line"/>
      <point x="128" y="0" type="line"/>
    </contour>
    <contour>
      <point x="407" y="545" type="line"/>
      <point x="407" y="555" type="line"/>
      <point x="373" y="620" type="line"/>
      <point x="-28" y="620" type="line"/>
      <point x="-28" y="610" type="line"/>
      <point x="6" y="545" type="line"/>
    </contour>
  </outline>
  <guideline angle="90" x="53" y="0"/>
</glyph>
<glyph name="dGh.half" format="2">
  <advance width="376"/>
  <outline>
    <contour>
      <point x="90" y="577" type="line"/>
      <point x="65" y="542"/>
      <point x="56" y="522"/>
      <point x="56" y="499" type="curve" smooth="yes"/>
      <point x="56" y="440"/>
      <point x="113" y="397"/>
      <point x="162" y="359" type="curve"/>
      <point x="204" y="388" type="line"/>
      <point x="160" y="414"/>
      <point x="145" y="451"/>
      <point x="145" y="476" type="curve" smooth="yes"/>
      <point x="145" y="516"/>
      <point x="181" y="541"/>
      <point x="237" y="549" type="curve"/>
    </contour>
    <contour>
      <point x="323" y="428" type="line"/>
      <point x="223" y="420"/>
      <point x="133" y="391"/>
      <point x="133" y="313" type="curve" smooth="yes"/>
      <point x="133" y="240"/>
      <point x="211" y="133"/>
      <point x="323" y="133" type="curve" smooth="yes"/>
      <point x="368" y="133"/>
      <point x="438" y="150"/>
      <point x="509" y="218" type="curve"/>
      <point x="466" y="288" type="line"/>
      <point x="382" y="221"/>
      <point x="321" y="198"/>
      <point x="284" y="198" type="curve" smooth="yes"/>
      <point x="240" y="198"/>
      <point x="207" y="228"/>
      <point x="207" y="266" type="curve" smooth="yes"/>
      <point x="207" y="308"/>
      <point x="250" y="344"/>
      <point x="363" y="346" type="curve"/>
    </contour>
    <contour>
      <point x="466" y="545" type="line"/>
      <point x="466" y="555" type="line"/>
      <point x="432" y="620" type="line"/>
      <point x="-28" y="620" type="line"/>
      <point x="-28" y="610" type="line"/>
      <point x="6" y="545" type="line"/>
    </contour>
  </outline>
</glyph>
<glyph name="dGhNa" format="2">
  <advance width="624"/>
  <outline>
    <contour>
      <point x="498" y="193" type="line"/>
      <point x="468" y="279" type="line"/>
      <point x="385" y="212"/>
      <point x="322" y="198"/>
      <point x="284" y="198" type="curve" smooth="yes"/>
      <point x="240" y="198"/>
      <point x="207" y="228"/>
      <point x="207" y="266" type="curve" smooth="yes"/>
      <point x="207" y="308"/>
      <point x="250" y="344"/>
      <point x="363" y="346" type="curve"/>
      <point x="323" y="428" type="line"/>
      <point x="223" y="421"/>
      <point x="133" y="391"/>
      <point x="133" y="313" type="curve" smooth="yes"/>
      <point x="133" y="257"/>
      <point x="183" y="155"/>
      <point x="296" y="143" type="curve"/>
    </contour>
    <contour>
      <point x="262" y="-62" type="curve" smooth="yes"/>
      <point x="282" y="-62"/>
      <point x="288" y="-53"/>
      <point x="288" y="-38" type="curve" smooth="yes"/>
      <point x="288" y="-27"/>
      <point x="286" y="-15"/>
      <point x="265" y="44" type="curve"/>
      <point x="474" y="191" type="line"/>
      <point x="275" y="191" type="line"/>
      <point x="275" y="144" type="line"/>
      <point x="171" y="75" type="line" smooth="yes"/>
      <point x="147" y="59"/>
      <point x="129" y="46"/>
      <point x="129" y="28" type="curve" smooth="yes"/>
      <point x="129" y="-13"/>
      <point x="219" y="-62"/>
    </contour>
    <contour>
      <point x="204" y="388" type="line"/>
      <point x="160" y="414"/>
      <point x="145" y="451"/>
      <point x="145" y="476" type="curve" smooth="yes"/>
      <point x="145" y="516"/>
      <point x="181" y="541"/>
      <point x="237" y="549" type="curve"/>
      <point x="87" y="567" type="line"/>
      <point x="64" y="542"/>
      <point x="56" y="522"/>
      <point x="56" y="499" type="curve" smooth="yes"/>
      <point x="56" y="440"/>
      <point x="113" y="397"/>
      <point x="162" y="359" type="curve"/>
    </contour>
    <contour>
      <point x="537" y="-10" type="line"/>
      <point x="535" y="581" type="line"/>
      <point x="451" y="581" type="line"/>
      <point x="447" y="42" type="line"/>
      <point x="527" y="-10" type="line"/>
    </contour>
    <contour>
      <point x="652" y="545" type="line"/>
      <point x="652" y="555" type="line"/>
      <point x="618" y="620" type="line"/>
      <point x="-28" y="620" type="line"/>
      <point x="-28" y="610" type="line"/>
      <point x="6" y="545" type="line"/>
    </contour>
  </outline>
</glyph>
<glyph name="dHLa" format="2">
  <advance width="646"/>
  <outline>
    <contour>
      <point x="427" y="3" type="line"/>
      <point x="461" y="84"/>
      <point x="488" y="116"/>
      <point x="529" y="116" type="curve" smooth="yes"/>
      <point x="538" y="116"/>
      <point x="546" y="115"/>
      <point x="554" y="112" type="curve"/>
      <point x="555" y="107"/>
      <point x="555" y="103"/>
      <point x="555" y="99" type="curve" smooth="yes"/>
      <point x="555" y="59"/>
      <point x="538" y="14"/>
      <point x="496" y="-29" type="curve"/>
      <point x="561" y="-80" type="line"/>
      <point x="603" y="-39"/>
      <point x="623" y="14"/>
      <point x="623" y="65" type="curve" smooth="yes"/>
      <point x="623" y="182"/>
      <point x="518" y="300"/>
      <point x="341" y="300" type="curve" smooth="yes"/>
      <point x="266" y="300"/>
      <point x="203" y="280"/>
      <point x="155" y="245" type="curve"/>
      <point x="141" y="262"/>
      <point x="130" y="284"/>
      <point x="130" y="306" type="curve" smooth="yes"/>
      <point x="130" y="360"/>
      <point x="176" y="385"/>
      <point x="255" y="385" type="curve" smooth="yes"/>
      <point x="443" y="385" type="line"/>
      <point x="455" y="393" type="line"/>
      <point x="455" y="440"/>
      <point x="454" y="495"/>
      <point x="453" y="545" type="curve"/>
      <point x="674" y="545" type="line"/>
      <point x="674" y="555" type="line"/>
      <point x="640" y="620" type="line"/>
      <point x="-28" y="620" type="line"/>
      <point x="-28" y="610" type="line"/>
      <point x="6" y="545" type="line"/>
      <point x="372" y="545" type="line"/>
      <point x="372" y="460" type="line"/>
      <point x="237" y="460" type="line" smooth="yes"/>
      <point x="113" y="460"/>
      <point x="57" y="412"/>
      <point x="57" y="341" type="curve" smooth="yes"/>
      <point x="57" y="294"/>
      <point x="84" y="248"/>
      <point x="120" y="214" type="curve"/>
      <point x="85" y="176"/>
      <point x="66" y="128"/>
      <point x="66" y="75" type="curve" smooth="yes"/>
      <point x="66" y="-42"/>
      <point x="158" y="-163"/>
      <point x="405" y="-229" type="curve"/>
      <point x="417" y="-190" type="line"/>
      <point x="195" y="-127"/>
      <point x="145" y="-22"/>
      <point x="145" y="58" type="curve" smooth="yes"/>
      <point x="145" y="165"/>
      <point x="241" y="245"/>
      <point x="367" y="245" type="curve" smooth="yes"/>
      <point x="456" y="245"/>
      <point x="520" y="205"/>
      <point x="544" y="149" type="curve"/>
      <point x="525" y="161"/>
      <point x="510" y="165"/>
      <point x="494" y="165" type="curve" smooth="yes"/>
      <point x="464" y="165"/>
      <point x="440" y="152"/>
      <point x="420" y="131" type="curve"/>
      <point x="394" y="155"/>
      <point x="362" y="177"/>
      <point x="321" y="177" type="curve" smooth="yes"/>
      <point x="254" y="177"/>
      <point x="213" y="122"/>
      <point x="213" y="63" type="curve" smooth="yes"/>
      <point x="213" y="-16"/>
      <point x="289" y="-96"/>
      <point x="437" y="-143" type="curve"/>
      <point x="449" y="-106" type="line"/>
      <point x="325" y="-63"/>
      <point x="284" y="-7"/>
      <point x="284" y="47" type="curve" smooth="yes"/>
      <point x="284" y="90"/>
      <point x="311" y="119"/>
      <point x="348" y="119" type="curve" smooth="yes"/>
      <point x="365" y="119"/>
      <point x="382" y="112"/>
      <point x="397" y="102" type="curve"/>
      <point x="383" y="81"/>
      <point x="372" y="57"/>
      <point x="362" y="32" type="curve"/>
    </contour>
  </outline>
  <guideline angle="72.693" x="462" y="0"/>
</glyph>
<glyph name="dHMYa" format="2">
  <advance width="1072"/>
  <outline>
    <contour>
      <point x="321" y="304" type="curve" smooth="yes"/>
      <point x="255" y="304"/>
      <point x="195" y="277"/>
      <point x="154" y="236" type="curve"/>
      <point x="136" y="253"/>
      <point x="122" y="280"/>
      <point x="122" y="306" type="curve" smooth="yes"/>
      <point x="122" y="360"/>
      <point x="168" y="385"/>
      <point x="247" y="385" type="curve" smooth="yes"/>
      <point x="433" y="385" type="line"/>
      <point x="445" y="393" type="line"/>
      <point x="445" y="440"/>
      <point x="444" y="495"/>
      <point x="443" y="545" type="curve"/>
      <point x="658" y="545" type="line"/>
      <point x="679" y="511"/>
      <point x="688" y="486"/>
      <point x="688" y="467" type="curve" smooth="yes"/>
      <point x="688" y="421"/>
      <point x="641" y="392"/>
      <point x="537" y="366" type="curve"/>
      <point x="549" y="290"/>
      <point x="586" y="219"/>
      <point x="635" y="173" type="curve"/>
      <point x="634" y="171" type="line"/>
      <point x="486" y="171" type="line"/>
      <point x="471" y="228"/>
      <point x="423" y="304"/>
    </contour>
    <contour>
      <point x="750" y="169" type="curve" smooth="yes"/>
      <point x="680" y="169"/>
      <point x="626" y="235"/>
      <point x="623" y="307" type="curve"/>
      <point x="720" y="335"/>
      <point x="760" y="372"/>
      <point x="760" y="424" type="curve" smooth="yes"/>
      <point x="760" y="458"/>
      <point x="744" y="494"/>
      <point x="714" y="545" type="curve"/>
      <point x="899" y="545" type="line"/>
      <point x="896" y="237" type="line"/>
      <point x="843" y="194"/>
      <point x="793" y="169"/>
    </contour>
    <contour>
      <point x="895" y="42" type="line"/>
      <point x="975" y="-10" type="line"/>
      <point x="985" y="-10" type="line"/>
      <point x="983" y="545" type="line"/>
      <point x="1100" y="545" type="line"/>
      <point x="1100" y="555" type="line"/>
      <point x="1066" y="620" type="line"/>
      <point x="-28" y="620" type="line"/>
      <point x="-28" y="610" type="line"/>
      <point x="6" y="545" type="line"/>
      <point x="362" y="545" type="line"/>
      <point x="362" y="460" type="line"/>
      <point x="229" y="460" type="line" smooth="yes"/>
      <point x="105" y="460"/>
      <point x="49" y="412"/>
      <point x="49" y="341" type="curve" smooth="yes"/>
      <point x="49" y="289"/>
      <point x="82" y="233"/>
      <point x="124" y="199" type="curve"/>
      <point x="107" y="171"/>
      <point x="96" y="138"/>
      <point x="96" y="105" type="curve" smooth="yes"/>
      <point x="96" y="3"/>
      <point x="184" y="-103"/>
      <point x="429" y="-164" type="curve"/>
      <point x="440" y="-121" type="line"/>
      <point x="233" y="-67"/>
      <point x="178" y="15"/>
      <point x="178" y="86" type="curve" smooth="yes"/>
      <point x="178" y="163"/>
      <point x="252" y="246"/>
      <point x="344" y="246" type="curve" smooth="yes"/>
      <point x="371" y="246"/>
      <point x="421" y="236"/>
      <point x="425" y="171" type="curve"/>
      <point x="364" y="171" type="line" smooth="yes"/>
      <point x="346" y="171"/>
      <point x="339" y="160"/>
      <point x="339" y="148" type="curve" smooth="yes"/>
      <point x="339" y="100"/>
      <point x="430" y="12"/>
      <point x="468" y="12" type="curve" smooth="yes"/>
      <point x="483" y="12"/>
      <point x="491" y="20"/>
      <point x="491" y="37" type="curve" smooth="yes"/>
      <point x="491" y="106" type="line"/>
      <point x="734" y="106" type="line" smooth="yes"/>
      <point x="827" y="106"/>
      <point x="851" y="114"/>
      <point x="895" y="142" type="curve"/>
      <point x="897" y="142" type="line"/>
    </contour>
  </outline>
</glyph>
<glyph name="dHMa" format="2">
  <advance width="763"/>
  <outline>
    <contour>
      <point x="333" y="113" type="curve" smooth="yes"/>
      <point x="333" y="65"/>
      <point x="431" y="-30"/>
      <point x="469" y="-30" type="curve" smooth="yes"/>
      <point x="484" y="-30"/>
      <point x="492" y="-22"/>
      <point x="492" y="-5" type="curve" smooth="yes"/>
      <point x="492" y="62" type="line"/>
      <point x="587" y="62" type="line"/>
      <point x="586" y="-81" type="line"/>
      <point x="666" y="-133" type="line"/>
      <point x="676" y="-133" type="line"/>
      <point x="674" y="545" type="line"/>
      <point x="791" y="545" type="line"/>
      <point x="791" y="555" type="line"/>
      <point x="757" y="620" type="line"/>
      <point x="-28" y="620" type="line"/>
      <point x="-28" y="610" type="line"/>
      <point x="6" y="545" type="line"/>
      <point x="362" y="545" type="line"/>
      <point x="362" y="460" type="line"/>
      <point x="229" y="460" type="line" smooth="yes"/>
      <point x="105" y="460"/>
      <point x="49" y="412"/>
      <point x="49" y="341" type="curve" smooth="yes"/>
      <point x="49" y="289"/>
      <point x="83" y="234"/>
      <point x="124" y="199" type="curve"/>
      <point x="106" y="171"/>
      <point x="96" y="140"/>
      <point x="96" y="106" type="curve" smooth="yes"/>
      <point x="96" y="4"/>
      <point x="182" y="-103"/>
      <point x="429" y="-164" type="curve"/>
      <point x="440" y="-121" type="line"/>
      <point x="232" y="-67"/>
      <point x="178" y="16"/>
      <point x="178" y="87" type="curve" smooth="yes"/>
      <point x="178" y="164"/>
      <point x="252" y="243"/>
      <point x="344" y="243" type="curve" smooth="yes"/>
      <point x="373" y="243"/>
      <point x="426" y="239"/>
      <point x="426" y="164" type="curve" smooth="yes"/>
      <point x="426" y="155"/>
      <point x="425" y="146"/>
      <point x="424" y="136" type="curve"/>
      <point x="358" y="136" type="line" smooth="yes"/>
      <point x="340" y="136"/>
      <point x="333" y="125"/>
    </contour>
    <contour>
      <point x="590" y="545" type="line"/>
      <point x="588" y="136" type="line"/>
      <point x="492" y="136" type="line"/>
      <point x="492" y="194"/>
      <point x="448" y="301"/>
      <point x="321" y="301" type="curve" smooth="yes"/>
      <point x="256" y="301"/>
      <point x="196" y="275"/>
      <point x="154" y="236" type="curve"/>
      <point x="136" y="253"/>
      <point x="122" y="280"/>
      <point x="122" y="306" type="curve" smooth="yes"/>
      <point x="122" y="360"/>
      <point x="168" y="385"/>
      <point x="247" y="385" type="curve" smooth="yes"/>
      <point x="433" y="385" type="line"/>
      <point x="445" y="393" type="line"/>
      <point x="445" y="440"/>
      <point x="444" y="495"/>
      <point x="443" y="545" type="curve"/>
    </contour>
  </outline>
</glyph>
<glyph name="dHNa" format="2">
  <advance width="591"/>
  <outline>
    <contour>
      <point x="390" y="-142" type="line"/>
      <point x="212" y="-92"/>
      <point x="160" y="-7"/>
      <point x="160" y="71" type="curve" smooth="yes"/>
      <point x="160" y="170"/>
      <point x="246" y="244"/>
      <point x="353" y="244" type="curve" smooth="yes"/>
      <point x="388" y="244"/>
      <point x="417" y="236"/>
      <point x="440" y="222" type="curve"/>
      <point x="302" y="107" type="line" smooth="yes"/>
      <point x="260" y="72"/>
      <point x="246" y="60"/>
      <point x="246" y="43" type="curve" smooth="yes"/>
      <point x="246" y="3"/>
      <point x="325" y="-30"/>
      <point x="366" y="-30" type="curve" smooth="yes"/>
      <point x="388" y="-30"/>
      <point x="394" y="-19"/>
      <point x="394" y="-5" type="curve" smooth="yes"/>
      <point x="394" y="7"/>
      <point x="389" y="23"/>
      <point x="368" y="63" type="curve"/>
      <point x="482" y="161" type="line"/>
      <point x="486" y="140"/>
      <point x="488" y="111"/>
      <point x="488" y="68" type="curve" smooth="yes"/>
      <point x="488" y="15"/>
      <point x="485" y="-29"/>
      <point x="483" y="-71" type="curve"/>
      <point x="555" y="-117" type="line"/>
      <point x="563" y="-117" type="line"/>
      <point x="561" y="75" type="line" smooth="yes"/>
      <point x="560" y="210"/>
      <point x="458" y="300"/>
      <point x="323" y="300" type="curve" smooth="yes"/>
      <point x="256" y="300"/>
      <point x="197" y="277"/>
      <point x="153" y="241" type="curve"/>
      <point x="138" y="259"/>
      <point x="127" y="283"/>
      <point x="127" y="306" type="curve" smooth="yes"/>
      <point x="127" y="360"/>
      <point x="173" y="385"/>
      <point x="252" y="385" type="curve" smooth="yes"/>
      <point x="440" y="385" type="line"/>
      <point x="452" y="393" type="line"/>
      <point x="452" y="440"/>
      <point x="451" y="495"/>
      <point x="450" y="545" type="curve"/>
      <point x="619" y="545" type="line"/>
      <point x="619" y="555" type="line"/>
      <point x="585" y="620" type="line"/>
      <point x="-28" y="620" type="line"/>
      <point x="-28" y="610" type="line"/>
      <point x="6" y="545" type="line"/>
      <point x="369" y="545" type="line"/>
      <point x="369" y="460" type="line"/>
      <point x="234" y="460" type="line" smooth="yes"/>
      <point x="110" y="460"/>
      <point x="54" y="412"/>
      <point x="54" y="341" type="curve" smooth="yes"/>
      <point x="54" y="293"/>
      <point x="82" y="242"/>
      <point x="120" y="207" type="curve"/>
      <point x="94" y="173"/>
      <point x="79" y="132"/>
      <point x="79" y="88" type="curve" smooth="yes"/>
      <point x="79" y="-25"/>
      <point x="175" y="-129"/>
      <point x="379" y="-184" type="curve"/>
    </contour>
  </outline>
</glyph>
<glyph name="dHNna" format="2">
  <advance width="599"/>
  <outline>
    <contour>
      <point x="398" y="-155" type="line"/>
      <point x="218" y="-103"/>
      <point x="156" y="-7"/>
      <point x="156" y="71" type="curve" smooth="yes"/>
      <point x="156" y="125"/>
      <point x="182" y="171"/>
      <point x="223" y="203" type="curve"/>
      <point x="223" y="161"/>
      <point x="222" y="117"/>
      <point x="222" y="87" type="curve" smooth="yes"/>
      <point x="222" y="42"/>
      <point x="288" y="-31"/>
      <point x="349" y="-31" type="curve" smooth="yes"/>
      <point x="414" y="-31"/>
      <point x="441" y="21"/>
      <point x="441" y="68" type="curve" smooth="yes"/>
      <point x="441" y="106"/>
      <point x="440" y="146"/>
      <point x="439" y="223" type="curve"/>
      <point x="483" y="193"/>
      <point x="498" y="136"/>
      <point x="498" y="71" type="curve" smooth="yes"/>
      <point x="498" y="29"/>
      <point x="492" y="-69"/>
      <point x="492" y="-71" type="curve"/>
      <point x="564" y="-117" type="line"/>
      <point x="572" y="-117" type="line"/>
      <point x="570" y="75" type="line" smooth="yes"/>
      <point x="569" y="210"/>
      <point x="457" y="300"/>
      <point x="323" y="300" type="curve" smooth="yes"/>
      <point x="256" y="300"/>
      <point x="197" y="278"/>
      <point x="153" y="242" type="curve"/>
      <point x="138" y="259"/>
      <point x="127" y="283"/>
      <point x="127" y="306" type="curve" smooth="yes"/>
      <point x="127" y="360"/>
      <point x="173" y="385"/>
      <point x="252" y="385" type="curve" smooth="yes"/>
      <point x="440" y="385" type="line"/>
      <point x="452" y="393" type="line"/>
      <point x="452" y="440"/>
      <point x="451" y="495"/>
      <point x="450" y="545" type="curve"/>
      <point x="627" y="545" type="line"/>
      <point x="627" y="555" type="line"/>
      <point x="593" y="620" type="line"/>
      <point x="-28" y="620" type="line"/>
      <point x="-28" y="610" type="line"/>
      <point x="6" y="545" type="line"/>
      <point x="369" y="545" type="line"/>
      <point x="369" y="460" type="line"/>
      <point x="234" y="460" type="line" smooth="yes"/>
      <point x="110" y="460"/>
      <point x="54" y="412"/>
      <point x="54" y="341" type="curve" smooth="yes"/>
      <point x="54" y="293"/>
      <point x="82" y="243"/>
      <point x="119" y="208" type="curve"/>
      <point x="92" y="174"/>
      <point x="77" y="132"/>
      <point x="77" y="87" type="curve" smooth="yes"/>
      <point x="77" y="-26"/>
      <point x="179" y="-136"/>
      <point x="387" y="-197" type="curve"/>
    </contour>
    <contour>
      <point x="326" y="23" type="curve" smooth="yes"/>
      <point x="304" y="23"/>
      <point x="291" y="39"/>
      <point x="291" y="68" type="curve" smooth="yes"/>
      <point x="290" y="236" type="line"/>
      <point x="310" y="242"/>
      <point x="331" y="245"/>
      <point x="354" y="245" type="curve" smooth="yes"/>
      <point x="360" y="245"/>
      <point x="365" y="245"/>
      <point x="371" y="244" type="curve"/>
      <point x="371" y="71" type="line" smooth="yes"/>
      <point x="371" y="42"/>
      <point x="353" y="23"/>
    </contour>
  </outline>
</glyph>
<glyph name="dHRa" format="2">
  <advance width="576"/>
  <outline>
    <contour>
      <point x="431" y="-147" type="line"/>
      <point x="227" y="-91"/>
      <point x="171" y="-9"/>
      <point x="171" y="73" type="curve" smooth="yes"/>
      <point x="171" y="170"/>
      <point x="250" y="244"/>
      <point x="354" y="244" type="curve" smooth="yes"/>
      <point x="377" y="244"/>
      <point x="397" y="239"/>
      <point x="414" y="231" type="curve"/>
      <point x="238" y="77" type="line"/>
      <point x="300" y="26" type="line"/>
      <point x="470" y="179" type="line"/>
      <point x="477" y="165"/>
      <point x="481" y="149"/>
      <point x="481" y="133" type="curve" smooth="yes"/>
      <point x="481" y="89"/>
      <point x="458" y="44"/>
      <point x="388" y="9" type="curve"/>
      <point x="434" y="-59" type="line"/>
      <point x="520" y="-18"/>
      <point x="546" y="38"/>
      <point x="546" y="99" type="curve" smooth="yes"/>
      <point x="546" y="200"/>
      <point x="458" y="300"/>
      <point x="326" y="300" type="curve" smooth="yes"/>
      <point x="256" y="300"/>
      <point x="196" y="276"/>
      <point x="154" y="236" type="curve"/>
      <point x="136" y="253"/>
      <point x="122" y="280"/>
      <point x="122" y="306" type="curve" smooth="yes"/>
      <point x="122" y="360"/>
      <point x="168" y="385"/>
      <point x="247" y="385" type="curve" smooth="yes"/>
      <point x="435" y="385" type="line"/>
      <point x="447" y="393" type="line"/>
      <point x="447" y="440"/>
      <point x="446" y="495"/>
      <point x="445" y="545" type="curve"/>
      <point x="604" y="545" type="line"/>
      <point x="604" y="555" type="line"/>
      <point x="570" y="620" type="line"/>
      <point x="-28" y="620" type="line"/>
      <point x="-28" y="610" type="line"/>
      <point x="6" y="545" type="line"/>
      <point x="364" y="545" type="line"/>
      <point x="364" y="460" type="line"/>
      <point x="229" y="460" type="line" smooth="yes"/>
      <point x="105" y="460"/>
      <point x="49" y="412"/>
      <point x="49" y="341" type="curve" smooth="yes"/>
      <point x="49" y="289"/>
      <point x="82" y="235"/>
      <point x="123" y="200" type="curve"/>
      <point x="102" y="168"/>
      <point x="90" y="130"/>
      <point x="90" y="89" type="curve" smooth="yes"/>
      <point x="90" y="-26"/>
      <point x="190" y="-128"/>
      <point x="420" y="-189" type="curve"/>
    </contour>
  </outline>
</glyph>
<glyph name="dHVa" format="2">
  <advance width="591"/>
  <outline>
    <contour>
      <point x="387" y="-153" type="line"/>
      <point x="211" y="-100"/>
      <point x="160" y="-11"/>
      <point x="160" y="71" type="curve" smooth="yes"/>
      <point x="160" y="170"/>
      <point x="246" y="244"/>
      <point x="353" y="244" type="curve" smooth="yes"/>
      <point x="398" y="244"/>
      <point x="434" y="231"/>
      <point x="458" y="208" type="curve" smooth="yes"/>
      <point x="475" y="191"/>
      <point x="484" y="170"/>
      <point x="487" y="115" type="curve"/>
      <point x="457" y="146"/>
      <point x="412" y="172"/>
      <point x="361" y="172" type="curve" smooth="yes"/>
      <point x="294" y="172"/>
      <point x="237" y="127"/>
      <point x="237" y="71" type="curve" smooth="yes"/>
      <point x="237" y="19"/>
      <point x="286" y="-60"/>
      <point x="379" y="-60" type="curve" smooth="yes"/>
      <point x="417" y="-60"/>
      <point x="443" y="-46"/>
      <point x="486" y="-17" type="curve"/>
      <point x="483" y="-91" type="line"/>
      <point x="555" y="-137" type="line"/>
      <point x="563" y="-137" type="line"/>
      <point x="561" y="75" type="line" smooth="yes"/>
      <point x="560" y="210"/>
      <point x="458" y="300"/>
      <point x="323" y="300" type="curve" smooth="yes"/>
      <point x="256" y="300"/>
      <point x="197" y="277"/>
      <point x="153" y="241" type="curve"/>
      <point x="138" y="259"/>
      <point x="127" y="283"/>
      <point x="127" y="306" type="curve" smooth="yes"/>
      <point x="127" y="360"/>
      <point x="173" y="385"/>
      <point x="252" y="385" type="curve" smooth="yes"/>
      <point x="440" y="385" type="line"/>
      <point x="452" y="393" type="line"/>
      <point x="452" y="440"/>
      <point x="451" y="495"/>
      <point x="450" y="545" type="curve"/>
      <point x="619" y="545" type="line"/>
      <point x="619" y="555" type="line"/>
      <point x="585" y="620" type="line"/>
      <point x="-28" y="620" type="line"/>
      <point x="-28" y="610" type="line"/>
      <point x="6" y="545" type="line"/>
      <point x="369" y="545" type="line"/>
      <point x="369" y="460" type="line"/>
      <point x="234" y="460" type="line" smooth="yes"/>
      <point x="110" y="460"/>
      <point x="54" y="412"/>
      <point x="54" y="341" type="curve" smooth="yes"/>
      <point x="54" y="293"/>
      <point x="82" y="242"/>
      <point x="120" y="207" type="curve"/>
      <point x="94" y="173"/>
      <point x="79" y="132"/>
      <point x="79" y="88" type="curve" smooth="yes"/>
      <point x="79" y="-30"/>
      <point x="174" y="-138"/>
      <point x="376" y="-195" type="curve"/>
    </contour>
    <contour>
      <point x="488" y="59" type="line"/>
      <point x="424" y="14"/>
      <point x="389" y="-2"/>
      <point x="359" y="-2" type="curve" smooth="yes"/>
      <point x="329" y="-2"/>
      <point x="302" y="14"/>
      <point x="302" y="46" type="curve" smooth="yes"/>
      <point x="302" y="85"/>
      <point x="339" y="108"/>
      <point x="383" y="108" type="curve" smooth="yes"/>
      <point x="422" y="108"/>
      <point x="462" y="89"/>
      <point x="488" y="67" type="curve"/>
    </contour>
  </outline>
</glyph>
<glyph name="dHYa" format="2">
  <advance width="769"/>
  <outline>
    <contour>
      <point x="432" y="-124" type="line"/>
      <point x="236" y="-73"/>
      <point x="177" y="14"/>
      <point x="177" y="88" type="curve" smooth="yes"/>
      <point x="177" y="174"/>
      <point x="256" y="261"/>
      <point x="347" y="261" type="curve" smooth="yes"/>
      <point x="381" y="261"/>
      <point x="423" y="252"/>
      <point x="423" y="219" type="curve" smooth="yes"/>
      <point x="423" y="177"/>
      <point x="359" y="145"/>
      <point x="292" y="126" type="curve"/>
      <point x="320" y="26"/>
      <point x="399" y="-51"/>
      <point x="492" y="-51" type="curve" smooth="yes"/>
      <point x="527" y="-51"/>
      <point x="559" y="-41"/>
      <point x="591" y="-21" type="curve"/>
      <point x="593" y="-22" type="line"/>
      <point x="592" y="-95" type="line"/>
      <point x="672" y="-147" type="line"/>
      <point x="682" y="-147" type="line"/>
      <point x="680" y="545" type="line"/>
      <point x="797" y="545" type="line"/>
      <point x="797" y="555" type="line"/>
      <point x="763" y="620" type="line"/>
      <point x="-28" y="620" type="line"/>
      <point x="-28" y="610" type="line"/>
      <point x="6" y="545" type="line"/>
      <point x="364" y="545" type="line"/>
      <point x="364" y="460" type="line"/>
      <point x="229" y="460" type="line" smooth="yes"/>
      <point x="105" y="460"/>
      <point x="49" y="412"/>
      <point x="49" y="341" type="curve" smooth="yes"/>
      <point x="49" y="290"/>
      <point x="80" y="237"/>
      <point x="120" y="202" type="curve"/>
      <point x="104" y="174"/>
      <point x="95" y="141"/>
      <point x="95" y="108" type="curve" smooth="yes"/>
      <point x="95" y="1"/>
      <point x="187" y="-109"/>
      <point x="421" y="-167" type="curve"/>
    </contour>
    <contour>
      <point x="122" y="306" type="curve" smooth="yes"/>
      <point x="122" y="360"/>
      <point x="168" y="385"/>
      <point x="247" y="385" type="curve" smooth="yes"/>
      <point x="435" y="385" type="line"/>
      <point x="447" y="393" type="line"/>
      <point x="447" y="440"/>
      <point x="446" y="495"/>
      <point x="445" y="545" type="curve"/>
      <point x="596" y="545" type="line"/>
      <point x="593" y="74" type="line"/>
      <point x="544" y="33"/>
      <point x="500" y="11"/>
      <point x="461" y="11" type="curve" smooth="yes"/>
      <point x="421" y="11"/>
      <point x="387" y="37"/>
      <point x="375" y="69" type="curve"/>
      <point x="457" y="97"/>
      <point x="493" y="135"/>
      <point x="493" y="184" type="curve" smooth="yes"/>
      <point x="493" y="247"/>
      <point x="429" y="319"/>
      <point x="323" y="319" type="curve" smooth="yes"/>
      <point x="255" y="319"/>
      <point x="191" y="288"/>
      <point x="148" y="241" type="curve"/>
      <point x="133" y="259"/>
      <point x="122" y="283"/>
    </contour>
  </outline>
</glyph>
<glyph name="dHa_dSignU" format="2">
  <advance width="532"/>
  <outline>
    <contour>
      <point x="177" y="216" type="line"/>
      <point x="140" y="241"/>
      <point x="122" y="276"/>
      <point x="122" y="306" type="curve" smooth="yes"/>
      <point x="122" y="360"/>
      <point x="168" y="385"/>
      <point x="247" y="385" type="curve" smooth="yes"/>
      <point x="435" y="385" type="line"/>
      <point x="447" y="393" type="line"/>
      <point x="447" y="440"/>
      <point x="446" y="495"/>
      <point x="445" y="591" type="curve"/>
      <point x="364" y="591" type="line"/>
      <point x="364" y="460" type="line"/>
      <point x="229" y="460" type="line" smooth="yes"/>
      <point x="105" y="460"/>
      <point x="49" y="412"/>
      <point x="49" y="341" type="curve" smooth="yes"/>
      <point x="49" y="285"/>
      <point x="90" y="217"/>
      <point x="149" y="183" type="curve"/>
    </contour>
    <contour>
      <point x="378" y="-302" type="curve" smooth="yes"/>
      <point x="447" y="-302"/>
      <point x="504" y="-260"/>
      <point x="504" y="-193" type="curve" smooth="yes"/>
      <point x="504" y="-117"/>
      <point x="435" y="-56"/>
      <point x="357" y="-56" type="curve" smooth="yes"/>
      <point x="322" y="-56"/>
      <point x="276" y="-78"/>
      <point x="253" y="-100" type="curve"/>
      <point x="306" y="-162" type="line"/>
      <point x="328" y="-143"/>
      <point x="357" y="-119"/>
      <point x="393" y="-119" type="curve" smooth="yes"/>
      <point x="421" y="-119"/>
      <point x="445" y="-129"/>
      <point x="445" y="-162" type="curve" smooth="yes"/>
      <point x="445" y="-202"/>
      <point x="409" y="-236"/>
      <point x="345" y="-236" type="curve" smooth="yes"/>
      <point x="281" y="-236"/>
      <point x="211" y="-205"/>
      <point x="110" y="-77" type="curve"/>
      <point x="103" y="-77" type="line"/>
      <point x="69" y="-118" type="line"/>
      <point x="120" y="-177"/>
      <point x="263" y="-302"/>
    </contour>
    <contour>
      <point x="396" y="-62" type="line"/>
      <point x="236" y="-35"/>
      <point x="179" y="35"/>
      <point x="179" y="99" type="curve" smooth="yes"/>
      <point x="179" y="159"/>
      <point x="248" y="239"/>
      <point x="343" y="239" type="curve" smooth="yes"/>
      <point x="390" y="239"/>
      <point x="418" y="222"/>
      <point x="418" y="183" type="curve" smooth="yes"/>
      <point x="418" y="136"/>
      <point x="380" y="106"/>
      <point x="336" y="85" type="curve"/>
      <point x="383" y="18" type="line"/>
      <point x="452" y="47"/>
      <point x="488" y="91"/>
      <point x="488" y="145" type="curve" smooth="yes"/>
      <point x="488" y="201"/>
      <point x="445" y="296"/>
      <point x="320" y="297" type="curve"/>
      <point x="210" y="297"/>
      <point x="97" y="218"/>
      <point x="97" y="118" type="curve" smooth="yes"/>
      <point x="97" y="42"/>
      <point x="155" y="-34"/>
      <point x="311" y="-84" type="curve"/>
    </contour>
    <contour>
      <point x="560" y="545" type="line"/>
      <point x="560" y="555" type="line"/>
      <point x="526" y="620" type="line"/>
      <point x="-28" y="620" type="line"/>
      <point x="-28" y="610" type="line"/>
      <point x="6" y="545" type="line"/>
    </contour>
  </outline>
</glyph>
<glyph name="dJJha" format="2">
  <advance width="1238"/>
  <outline>
    <component base="dJha" xOffset="480"/>
    <contour>
      <point x="367" y="355" type="line"/>
      <point x="560" y="355" type="line"/>
      <point x="575" y="430" type="line"/>
      <point x="260" y="430" type="line"/>
      <point x="260" y="419" type="line"/>
      <point x="287" y="361" type="line"/>
    </contour>
    <contour>
      <point x="611" y="545" type="line"/>
      <point x="611" y="555" type="line"/>
      <point x="577" y="620" type="line"/>
      <point x="-28" y="620" type="line"/>
      <point x="-28" y="610" type="line"/>
      <point x="6" y="545" type="line"/>
    </contour>
    <contour>
      <point x="287" y="361" type="line"/>
      <point x="352" y="332"/>
      <point x="385" y="289"/>
      <point x="385" y="246" type="curve" smooth="yes"/>
      <point x="385" y="202"/>
      <point x="352" y="166"/>
      <point x="298" y="166" type="curve" smooth="yes"/>
      <point x="209" y="166"/>
      <point x="132" y="265"/>
      <point x="63" y="411" type="curve"/>
      <point x="22" y="393" type="line"/>
      <point x="96" y="234"/>
      <point x="189" y="85"/>
      <point x="325" y="85" type="curve" smooth="yes"/>
      <point x="399" y="85"/>
      <point x="464" y="130"/>
      <point x="464" y="208" type="curve" smooth="yes"/>
      <point x="464" y="264"/>
      <point x="431" y="308"/>
      <point x="368" y="371" type="curve"/>
    </contour>
  </outline>
</glyph>
<glyph name="dJR.half" format="2">
  <advance width="501"/>
  <outline>
    <contour>
      <point x="620" y="228" type="line"/>
      <point x="342" y="-14" type="line"/>
      <point x="405" y="-66" type="line"/>
      <point x="676" y="174" type="line"/>
    </contour>
    <contour>
      <point x="287" y="361" type="line"/>
      <point x="352" y="332"/>
      <point x="380" y="294"/>
      <point x="380" y="251" type="curve" smooth="yes"/>
      <point x="380" y="207"/>
      <point x="347" y="171"/>
      <point x="293" y="171" type="curve" smooth="yes"/>
      <point x="204" y="171"/>
      <point x="132" y="265"/>
      <point x="63" y="411" type="curve"/>
      <point x="22" y="393" type="line"/>
      <point x="96" y="234"/>
      <point x="184" y="90"/>
      <point x="320" y="90" type="curve" smooth="yes"/>
      <point x="394" y="90"/>
      <point x="459" y="135"/>
      <point x="459" y="213" type="curve" smooth="yes"/>
      <point x="459" y="264"/>
      <point x="436" y="300"/>
      <point x="383" y="355" type="curve"/>
      <point x="630" y="355" type="line"/>
      <point x="645" y="430" type="line"/>
      <point x="260" y="430" type="line"/>
      <point x="260" y="419" type="line"/>
    </contour>
    <contour>
      <point x="611" y="545" type="line"/>
      <point x="611" y="555" type="line"/>
      <point x="577" y="620" type="line"/>
      <point x="-28" y="620" type="line"/>
      <point x="-28" y="610" type="line"/>
      <point x="6" y="545" type="line"/>
    </contour>
  </outline>
</glyph>
<glyph name="dJh.half" format="2">
  <advance width="508"/>
  <outline>
    <contour>
      <point x="337" y="-155" type="line"/>
      <point x="389" y="-122" type="line"/>
      <point x="261" y="55" type="line"/>
      <point x="258" y="67" type="line"/>
      <point x="206" y="142"/>
      <point x="155" y="177"/>
      <point x="125" y="177" type="curve" smooth="yes"/>
      <point x="101" y="177"/>
      <point x="89" y="153"/>
      <point x="89" y="126" type="curve" smooth="yes"/>
      <point x="89" y="55"/>
      <point x="172" y="20"/>
      <point x="261" y="19" type="curve" smooth="yes"/>
      <point x="342" y="18"/>
      <point x="477" y="74"/>
      <point x="477" y="162" type="curve" smooth="yes"/>
      <point x="477" y="223"/>
      <point x="412" y="319"/>
      <point x="349" y="319" type="curve" smooth="yes"/>
      <point x="313" y="319"/>
      <point x="207" y="291"/>
      <point x="169" y="291" type="curve" smooth="yes"/>
      <point x="131" y="291"/>
      <point x="114" y="320"/>
      <point x="114" y="346" type="curve" smooth="yes"/>
      <point x="114" y="372"/>
      <point x="130" y="395"/>
      <point x="218" y="395" type="curve" smooth="yes"/>
      <point x="422" y="395" type="line"/>
      <point x="434" y="403" type="line"/>
      <point x="434" y="452"/>
      <point x="433" y="535"/>
      <point x="432" y="580" type="curve"/>
      <point x="353" y="580" type="line"/>
      <point x="353" y="469" type="line"/>
      <point x="191" y="469" type="line" smooth="yes"/>
      <point x="99" y="469"/>
      <point x="47" y="448"/>
      <point x="47" y="385" type="curve" smooth="yes"/>
      <point x="47" y="313"/>
      <point x="116" y="220"/>
      <point x="201" y="220" type="curve" smooth="yes"/>
      <point x="247" y="220"/>
      <point x="330" y="247"/>
      <point x="366" y="247" type="curve" smooth="yes"/>
      <point x="388" y="247"/>
      <point x="411" y="238"/>
      <point x="411" y="201" type="curve" smooth="yes"/>
      <point x="411" y="128"/>
      <point x="314" y="84"/>
      <point x="225" y="87" type="curve"/>
      <point x="198" y="71" type="line"/>
      <point x="328" y="-155" type="line"/>
    </contour>
    <contour>
      <point x="551" y="214" type="curve" smooth="yes"/>
      <point x="566" y="214"/>
      <point x="585" y="216"/>
      <point x="616" y="230" type="curve"/>
      <point x="569" y="299" type="line"/>
      <point x="546" y="284"/>
      <point x="521" y="277"/>
      <point x="488" y="277" type="curve" smooth="yes"/>
      <point x="444" y="277"/>
      <point x="414" y="290"/>
      <point x="395" y="302" type="curve"/>
      <point x="437" y="236" type="line"/>
      <point x="450" y="249" type="line"/>
      <point x="471" y="231"/>
      <point x="505" y="214"/>
    </contour>
    <contour>
      <point x="608" y="545" type="line"/>
      <point x="608" y="555" type="line"/>
      <point x="574" y="620" type="line"/>
      <point x="-28" y="620" type="line"/>
      <point x="-28" y="610" type="line"/>
      <point x="6" y="545" type="line"/>
    </contour>
  </outline>
</glyph>
<glyph name="dKKha" format="2">
  <advance width="1341"/>
  <outline>
    <contour>
      <point x="848" y="-20" type="line"/>
      <point x="899" y="22" type="line"/>
      <point x="682" y="246" type="line"/>
      <point x="681" y="235" type="line"/>
      <point x="754" y="249"/>
      <point x="794" y="300"/>
      <point x="794" y="471" type="curve" smooth="yes"/>
      <point x="794" y="487"/>
      <point x="793" y="544"/>
      <point x="788" y="569" type="curve"/>
      <point x="705" y="567" type="line"/>
      <point x="707" y="543"/>
      <point x="710" y="523"/>
      <point x="710" y="482" type="curve" smooth="yes"/>
      <point x="710" y="446"/>
      <point x="709" y="391"/>
      <point x="700" y="358" type="curve"/>
      <point x="712" y="367" type="line"/>
      <point x="689" y="370"/>
      <point x="645" y="374"/>
      <point x="623" y="374" type="curve" smooth="yes"/>
      <point x="603" y="374"/>
      <point x="573" y="368"/>
      <point x="573" y="347" type="curve" smooth="yes"/>
      <point x="573" y="323"/>
      <point x="589" y="285"/>
      <point x="640" y="223" type="curve" smooth="yes"/>
      <point x="838" y="-20" type="line"/>
    </contour>
    <contour>
      <point x="227" y="138" type="curve" smooth="yes"/>
      <point x="287" y="138"/>
      <point x="345" y="177"/>
      <point x="400" y="219" type="curve" smooth="yes"/>
      <point x="465" y="269"/>
      <point x="525" y="324"/>
      <point x="579" y="324" type="curve" smooth="yes"/>
      <point x="582" y="324"/>
      <point x="586" y="324"/>
      <point x="590" y="323" type="curve"/>
      <point x="628" y="358" type="line"/>
      <point x="605" y="389"/>
      <point x="586" y="401"/>
      <point x="560" y="401" type="curve" smooth="yes"/>
      <point x="509" y="401"/>
      <point x="453" y="360"/>
      <point x="396" y="318" type="curve" smooth="yes"/>
      <point x="288" y="238"/>
      <point x="233" y="202"/>
      <point x="184" y="202" type="curve" smooth="yes"/>
      <point x="148" y="202"/>
      <point x="117" y="226"/>
      <point x="117" y="277" type="curve" smooth="yes"/>
      <point x="117" y="342"/>
      <point x="172" y="378"/>
      <point x="229" y="378" type="curve" smooth="yes"/>
      <point x="286" y="378"/>
      <point x="340" y="342"/>
      <point x="375" y="301" type="curve"/>
      <point x="375" y="355" type="line"/>
      <point x="335" y="409"/>
      <point x="276" y="455"/>
      <point x="203" y="455" type="curve" smooth="yes"/>
      <point x="124" y="455"/>
      <point x="45" y="402"/>
      <point x="45" y="316" type="curve" smooth="yes"/>
      <point x="45" y="233"/>
      <point x="119" y="138"/>
    </contour>
    <contour>
      <point x="454" y="-10" type="line"/>
      <point x="451" y="581" type="line"/>
      <point x="369" y="581" type="line"/>
      <point x="364" y="44" type="line"/>
      <point x="444" y="-10" type="line"/>
    </contour>
    <contour>
      <point x="1369" y="545" type="line"/>
      <point x="1369" y="555" type="line"/>
      <point x="1335" y="620" type="line"/>
      <point x="-28" y="620" type="line"/>
      <point x="-28" y="610" type="line"/>
      <point x="6" y="545" type="line"/>
    </contour>
    <contour>
      <point x="1027" y="155" type="curve" smooth="yes"/>
      <point x="1084" y="155"/>
      <point x="1115" y="170"/>
      <point x="1187" y="228" type="curve"/>
      <point x="1187" y="332" type="line"/>
      <point x="1090" y="238"/>
      <point x="1041" y="217"/>
      <point x="999" y="217" type="curve" smooth="yes"/>
      <point x="959" y="217"/>
      <point x="925" y="239"/>
      <point x="925" y="289" type="curve" smooth="yes"/>
      <point x="925" y="357"/>
      <point x="972" y="389"/>
      <point x="1030" y="389" type="curve" smooth="yes"/>
      <point x="1084" y="389"/>
      <point x="1144" y="359"/>
      <point x="1187" y="298" type="curve"/>
      <point x="1194" y="327" type="line"/>
      <point x="1156" y="419"/>
      <point x="1080" y="463"/>
      <point x="1006" y="463" type="curve" smooth="yes"/>
      <point x="924" y="463"/>
      <point x="853" y="412"/>
      <point x="853" y="331" type="curve" smooth="yes"/>
      <point x="853" y="236"/>
      <point x="941" y="155"/>
    </contour>
    <contour>
      <point x="1254" y="-10" type="line"/>
      <point x="1252" y="581" type="line"/>
      <point x="1168" y="581" type="line"/>
      <point x="1164" y="42" type="line"/>
      <point x="1244" y="-10" type="line"/>
    </contour>
  </outline>
</glyph>
<glyph name="dKLa" format="2">
  <advance width="1244"/>
  <outline>
    <contour>
      <point x="227" y="138" type="curve" smooth="yes"/>
      <point x="297" y="138"/>
      <point x="338" y="178"/>
      <point x="378" y="206" type="curve" smooth="yes"/>
      <point x="467" y="269"/>
      <point x="533" y="338"/>
      <point x="597" y="338" type="curve" smooth="yes"/>
      <point x="607" y="338"/>
      <point x="617" y="335"/>
      <point x="631" y="334" type="curve"/>
      <point x="653" y="369" type="line"/>
      <point x="622" y="399"/>
      <point x="596" y="412"/>
      <point x="568" y="412" type="curve" smooth="yes"/>
      <point x="513" y="412"/>
      <point x="456" y="367"/>
      <point x="395" y="320" type="curve" smooth="yes"/>
      <point x="322" y="263"/>
      <point x="244" y="202"/>
      <point x="184" y="202" type="curve" smooth="yes"/>
      <point x="148" y="202"/>
      <point x="117" y="226"/>
      <point x="117" y="277" type="curve" smooth="yes"/>
      <point x="117" y="342"/>
      <point x="172" y="378"/>
      <point x="229" y="378" type="curve" smooth="yes"/>
      <point x="286" y="378"/>
      <point x="340" y="342"/>
      <point x="375" y="301" type="curve"/>
      <point x="375" y="355" type="line"/>
      <point x="335" y="409"/>
      <point x="276" y="455"/>
      <point x="203" y="455" type="curve" smooth="yes"/>
      <point x="124" y="455"/>
      <point x="45" y="402"/>
      <point x="45" y="316" type="curve" smooth="yes"/>
      <point x="45" y="233"/>
      <point x="119" y="138"/>
    </contour>
    <contour>
      <point x="454" y="-10" type="line"/>
      <point x="451" y="581" type="line"/>
      <point x="369" y="581" type="line"/>
      <point x="364" y="44" type="line"/>
      <point x="444" y="-10" type="line"/>
    </contour>
    <contour>
      <point x="822" y="-10" type="line"/>
      <point x="865" y="25" type="line"/>
      <point x="726" y="134"/>
      <point x="687" y="192"/>
      <point x="687" y="265" type="curve" smooth="yes"/>
      <point x="687" y="336"/>
      <point x="726" y="376"/>
      <point x="780" y="376" type="curve" smooth="yes"/>
      <point x="814" y="376"/>
      <point x="845" y="358"/>
      <point x="867" y="333" type="curve"/>
      <point x="888" y="365" type="line"/>
      <point x="852" y="407"/>
      <point x="810" y="450"/>
      <point x="745" y="450" type="curve" smooth="yes"/>
      <point x="661" y="450"/>
      <point x="607" y="381"/>
      <point x="607" y="299" type="curve" smooth="yes"/>
      <point x="607" y="193"/>
      <point x="688" y="110"/>
      <point x="812" y="-10" type="curve"/>
    </contour>
    <contour>
      <point x="1272" y="545" type="line"/>
      <point x="1272" y="555" type="line"/>
      <point x="1238" y="620" type="line"/>
      <point x="-28" y="620" type="line"/>
      <point x="-28" y="610" type="line"/>
      <point x="6" y="545" type="line"/>
    </contour>
    <contour>
      <point x="898" y="225" type="line"/>
      <point x="947" y="331"/>
      <point x="987" y="374"/>
      <point x="1039" y="374" type="curve" smooth="yes"/>
      <point x="1054" y="374"/>
      <point x="1067" y="368"/>
      <point x="1079" y="365" type="curve"/>
      <point x="1081" y="406" type="line"/>
      <point x="1053" y="428"/>
      <point x="1022" y="439"/>
      <point x="997" y="439" type="curve" smooth="yes"/>
      <point x="919" y="439"/>
      <point x="854" y="348"/>
      <point x="821" y="263" type="curve"/>
    </contour>
    <contour>
      <point x="1157" y="-10" type="line"/>
      <point x="1155" y="581" type="line"/>
      <point x="1071" y="581" type="line"/>
      <point x="1067" y="42" type="line"/>
      <point x="1147" y="-10" type="line"/>
    </contour>
  </outline>
</glyph>
<glyph name="dKSDda" format="2">
  <advance width="1456"/>
  <outline>
    <contour>
      <point x="1234" y="7" type="curve" smooth="yes"/>
      <point x="1364" y="7"/>
      <point x="1415" y="85"/>
      <point x="1415" y="137" type="curve" smooth="yes"/>
      <point x="1415" y="219"/>
      <point x="1338" y="298"/>
      <point x="1283" y="298" type="curve" smooth="yes"/>
      <point x="1243" y="298"/>
      <point x="1140" y="273"/>
      <point x="1117" y="273" type="curve" smooth="yes"/>
      <point x="1093" y="273"/>
      <point x="1064" y="298"/>
      <point x="1064" y="339" type="curve" smooth="yes"/>
      <point x="1064" y="370"/>
      <point x="1087" y="385"/>
      <point x="1129" y="385" type="curve" smooth="yes"/>
      <point x="1340" y="385" type="line"/>
      <point x="1352" y="393" type="line"/>
      <point x="1352" y="445"/>
      <point x="1351" y="495"/>
      <point x="1350" y="575" type="curve"/>
      <point x="1269" y="575" type="line"/>
      <point x="1269" y="460" type="line"/>
      <point x="1111" y="460" type="line" smooth="yes"/>
      <point x="1029" y="460"/>
      <point x="992" y="427"/>
      <point x="992" y="378" type="curve" smooth="yes"/>
      <point x="992" y="271"/>
      <point x="1097" y="201"/>
      <point x="1150" y="201" type="curve" smooth="yes"/>
      <point x="1184" y="201"/>
      <point x="1270" y="225"/>
      <point x="1309" y="225" type="curve" smooth="yes"/>
      <point x="1333" y="225"/>
      <point x="1347" y="209"/>
      <point x="1347" y="187" type="curve" smooth="yes"/>
      <point x="1347" y="144"/>
      <point x="1321" y="82"/>
      <point x="1210" y="82" type="curve" smooth="yes"/>
      <point x="1106" y="82"/>
      <point x="1039" y="133"/>
      <point x="988" y="203" type="curve"/>
      <point x="953" y="177" type="line"/>
      <point x="1028" y="70"/>
      <point x="1128" y="7"/>
    </contour>
    <contour>
      <point x="227" y="138" type="curve" smooth="yes"/>
      <point x="294" y="138"/>
      <point x="333" y="173"/>
      <point x="415" y="229" type="curve" smooth="yes"/>
      <point x="489" y="279"/>
      <point x="543" y="331"/>
      <point x="597" y="331" type="curve" smooth="yes"/>
      <point x="609" y="331"/>
      <point x="621" y="328"/>
      <point x="633" y="321" type="curve"/>
      <point x="653" y="362" type="line"/>
      <point x="622" y="391"/>
      <point x="596" y="404"/>
      <point x="568" y="404" type="curve" smooth="yes"/>
      <point x="514" y="404"/>
      <point x="452" y="355"/>
      <point x="400" y="319" type="curve" smooth="yes"/>
      <point x="329" y="270"/>
      <point x="244" y="202"/>
      <point x="184" y="202" type="curve" smooth="yes"/>
      <point x="148" y="202"/>
      <point x="117" y="226"/>
      <point x="117" y="277" type="curve" smooth="yes"/>
      <point x="117" y="342"/>
      <point x="172" y="378"/>
      <point x="229" y="378" type="curve" smooth="yes"/>
      <point x="286" y="378"/>
      <point x="340" y="342"/>
      <point x="375" y="301" type="curve"/>
      <point x="375" y="355" type="line"/>
      <point x="335" y="409"/>
      <point x="276" y="455"/>
      <point x="203" y="455" type="curve" smooth="yes"/>
      <point x="124" y="455"/>
      <point x="45" y="402"/>
      <point x="45" y="316" type="curve" smooth="yes"/>
      <point x="45" y="233"/>
      <point x="119" y="138"/>
    </contour>
    <contour>
      <point x="454" y="-10" type="line"/>
      <point x="451" y="601" type="line"/>
      <point x="369" y="601" type="line"/>
      <point x="364" y="44" type="line"/>
      <point x="444" y="-10" type="line"/>
    </contour>
    <contour>
      <point x="841" y="-20" type="line"/>
      <point x="892" y="22" type="line"/>
      <point x="676" y="246" type="line"/>
      <point x="673" y="235" type="line"/>
      <point x="770" y="250"/>
      <point x="798" y="305"/>
      <point x="798" y="471" type="curve" smooth="yes"/>
      <point x="798" y="487"/>
      <point x="798" y="544"/>
      <point x="789" y="577" type="curve"/>
      <point x="711" y="577" type="line"/>
      <point x="714" y="543"/>
      <point x="716" y="523"/>
      <point x="716" y="482" type="curve" smooth="yes"/>
      <point x="716" y="446"/>
      <point x="715" y="391"/>
      <point x="706" y="358" type="curve"/>
      <point x="717" y="367" type="line"/>
      <point x="698" y="369"/>
      <point x="650" y="373"/>
      <point x="627" y="374" type="curve"/>
      <point x="597" y="374"/>
      <point x="571" y="366"/>
      <point x="571" y="342" type="curve" smooth="yes"/>
      <point x="571" y="307"/>
      <point x="591" y="271"/>
      <point x="654" y="196" type="curve" smooth="yes"/>
      <point x="831" y="-20" type="line"/>
    </contour>
    <contour>
      <point x="938" y="224" type="curve" smooth="yes"/>
      <point x="975" y="224"/>
      <point x="1017" y="236"/>
      <point x="1056" y="262" type="curve"/>
      <point x="1013" y="336" type="line"/>
      <point x="971" y="310"/>
      <point x="934" y="301"/>
      <point x="902" y="301" type="curve" smooth="yes"/>
      <point x="861" y="301"/>
      <point x="808" y="317"/>
      <point x="776" y="340" type="curve"/>
      <point x="760" y="301" type="line"/>
      <point x="810" y="256"/>
      <point x="871" y="224"/>
    </contour>
    <contour>
      <point x="1484" y="545" type="line"/>
      <point x="1484" y="555" type="line"/>
      <point x="1450" y="620" type="line"/>
      <point x="-28" y="620" type="line"/>
      <point x="-28" y="610" type="line"/>
      <point x="6" y="545" type="line"/>
    </contour>
  </outline>
</glyph>
<glyph name="dKSha" format="2">
  <advance width="1268"/>
  <outline>
    <component base="dSha" xOffset="560"/>
    <contour>
      <point x="227" y="138" type="curve" smooth="yes"/>
      <point x="290" y="138"/>
      <point x="320" y="166"/>
      <point x="399" y="217" type="curve" smooth="yes"/>
      <point x="484" y="271"/>
      <point x="528" y="320"/>
      <point x="582" y="320" type="curve" smooth="yes"/>
      <point x="598" y="320"/>
      <point x="610" y="313"/>
      <point x="628" y="281" type="curve"/>
      <point x="678" y="274" type="line"/>
      <point x="629" y="382"/>
      <point x="583" y="394"/>
      <point x="554" y="394" type="curve" smooth="yes"/>
      <point x="507" y="394"/>
      <point x="466" y="366"/>
      <point x="400" y="320" type="curve" smooth="yes"/>
      <point x="326" y="269"/>
      <point x="247" y="202"/>
      <point x="184" y="202" type="curve" smooth="yes"/>
      <point x="148" y="202"/>
      <point x="117" y="226"/>
      <point x="117" y="277" type="curve" smooth="yes"/>
      <point x="117" y="342"/>
      <point x="172" y="378"/>
      <point x="229" y="378" type="curve" smooth="yes"/>
      <point x="286" y="378"/>
      <point x="340" y="342"/>
      <point x="375" y="301" type="curve"/>
      <point x="375" y="355" type="line"/>
      <point x="335" y="409"/>
      <point x="276" y="455"/>
      <point x="203" y="455" type="curve" smooth="yes"/>
      <point x="124" y="455"/>
      <point x="45" y="402"/>
      <point x="45" y="316" type="curve" smooth="yes"/>
      <point x="45" y="233"/>
      <point x="119" y="138"/>
    </contour>
    <contour>
      <point x="454" y="-10" type="line"/>
      <point x="451" y="591" type="line"/>
      <point x="369" y="591" type="line"/>
      <point x="364" y="44" type="line"/>
      <point x="444" y="-10" type="line"/>
    </contour>
    <contour>
      <point x="622" y="545" type="line"/>
      <point x="622" y="555" type="line"/>
      <point x="588" y="620" type="line"/>
      <point x="-28" y="620" type="line"/>
      <point x="-28" y="610" type="line"/>
      <point x="6" y="545" type="line"/>
    </contour>
  </outline>
</glyph>
<glyph name="dKTRa" format="2">
  <advance width="1182"/>
  <outline>
    <contour>
      <point x="1210" y="545" type="line"/>
      <point x="1210" y="555" type="line"/>
      <point x="1176" y="620" type="line"/>
      <point x="-28" y="620" type="line"/>
      <point x="-28" y="610" type="line"/>
      <point x="6" y="545" type="line"/>
    </contour>
    <contour>
      <point x="451" y="581" type="line"/>
      <point x="369" y="581" type="line"/>
      <point x="364" y="44" type="line"/>
      <point x="444" y="-10" type="line"/>
      <point x="454" y="-10" type="line"/>
    </contour>
    <contour>
      <point x="227" y="138" type="curve" smooth="yes"/>
      <point x="297" y="138"/>
      <point x="338" y="178"/>
      <point x="378" y="206" type="curve" smooth="yes"/>
      <point x="467" y="269"/>
      <point x="533" y="338"/>
      <point x="597" y="338" type="curve" smooth="yes"/>
      <point x="607" y="338"/>
      <point x="617" y="335"/>
      <point x="631" y="334" type="curve"/>
      <point x="653" y="369" type="line"/>
      <point x="622" y="399"/>
      <point x="596" y="412"/>
      <point x="568" y="412" type="curve" smooth="yes"/>
      <point x="513" y="412"/>
      <point x="456" y="367"/>
      <point x="395" y="320" type="curve" smooth="yes"/>
      <point x="322" y="263"/>
      <point x="244" y="202"/>
      <point x="184" y="202" type="curve" smooth="yes"/>
      <point x="148" y="202"/>
      <point x="117" y="226"/>
      <point x="117" y="277" type="curve" smooth="yes"/>
      <point x="117" y="342"/>
      <point x="172" y="378"/>
      <point x="229" y="378" type="curve" smooth="yes"/>
      <point x="286" y="378"/>
      <point x="340" y="342"/>
      <point x="375" y="301" type="curve"/>
      <point x="375" y="355" type="line"/>
      <point x="335" y="409"/>
      <point x="276" y="455"/>
      <point x="203" y="455" type="curve" smooth="yes"/>
      <point x="124" y="455"/>
      <point x="45" y="402"/>
      <point x="45" y="316" type="curve" smooth="yes"/>
      <point x="45" y="233"/>
      <point x="119" y="138"/>
    </contour>
    <contour>
      <point x="1030" y="399" type="line"/>
      <point x="979" y="399" type="line"/>
      <point x="979" y="363" type="line"/>
      <point x="789" y="199" type="line"/>
      <point x="852" y="147" type="line"/>
      <point x="1030" y="307" type="line"/>
    </contour>
    <contour>
      <point x="1036" y="431" type="line"/>
      <point x="968" y="441"/>
      <point x="901" y="449"/>
      <point x="835" y="449" type="curve" smooth="yes"/>
      <point x="704" y="449"/>
      <point x="610" y="408"/>
      <point x="610" y="297" type="curve" smooth="yes"/>
      <point x="610" y="206"/>
      <point x="671" y="120"/>
      <point x="772" y="-10" type="curve"/>
      <point x="782" y="-10" type="line"/>
      <point x="825" y="25" type="line"/>
      <point x="713" y="153"/>
      <point x="687" y="187"/>
      <point x="687" y="248" type="curve" smooth="yes"/>
      <point x="687" y="345"/>
      <point x="759" y="374"/>
      <point x="855" y="374" type="curve" smooth="yes"/>
      <point x="920" y="374"/>
      <point x="990" y="364"/>
      <point x="1036" y="356" type="curve"/>
    </contour>
    <contour>
      <point x="1007" y="42" type="line"/>
      <point x="1085" y="-10" type="line"/>
      <point x="1095" y="-10" type="line"/>
      <point x="1093" y="581" type="line"/>
      <point x="1009" y="581" type="line"/>
    </contour>
  </outline>
</glyph>
<glyph name="dKTVa" format="2">
  <advance width="1436"/>
  <outline>
    <contour>
      <point x="227" y="138" type="curve" smooth="yes"/>
      <point x="297" y="138"/>
      <point x="338" y="178"/>
      <point x="378" y="206" type="curve" smooth="yes"/>
      <point x="467" y="269"/>
      <point x="533" y="338"/>
      <point x="597" y="338" type="curve" smooth="yes"/>
      <point x="607" y="338"/>
      <point x="617" y="335"/>
      <point x="631" y="334" type="curve"/>
      <point x="653" y="369" type="line"/>
      <point x="622" y="399"/>
      <point x="596" y="412"/>
      <point x="568" y="412" type="curve" smooth="yes"/>
      <point x="513" y="412"/>
      <point x="456" y="367"/>
      <point x="395" y="320" type="curve" smooth="yes"/>
      <point x="322" y="263"/>
      <point x="244" y="202"/>
      <point x="184" y="202" type="curve" smooth="yes"/>
      <point x="148" y="202"/>
      <point x="117" y="226"/>
      <point x="117" y="277" type="curve" smooth="yes"/>
      <point x="117" y="342"/>
      <point x="172" y="378"/>
      <point x="229" y="378" type="curve" smooth="yes"/>
      <point x="286" y="378"/>
      <point x="340" y="342"/>
      <point x="375" y="301" type="curve"/>
      <point x="375" y="355" type="line"/>
      <point x="335" y="409"/>
      <point x="276" y="455"/>
      <point x="203" y="455" type="curve" smooth="yes"/>
      <point x="124" y="455"/>
      <point x="45" y="402"/>
      <point x="45" y="316" type="curve" smooth="yes"/>
      <point x="45" y="233"/>
      <point x="119" y="138"/>
    </contour>
    <contour>
      <point x="454" y="-10" type="line"/>
      <point x="451" y="574" type="line"/>
      <point x="369" y="574" type="line"/>
      <point x="364" y="44" type="line"/>
      <point x="444" y="-10" type="line"/>
    </contour>
    <contour>
      <point x="785" y="-10" type="line"/>
      <point x="828" y="25" type="line"/>
      <point x="721" y="148"/>
      <point x="687" y="189"/>
      <point x="687" y="244" type="curve" smooth="yes"/>
      <point x="687" y="297"/>
      <point x="717" y="355"/>
      <point x="805" y="355" type="curve" smooth="yes"/>
      <point x="834" y="355"/>
      <point x="862" y="348"/>
      <point x="896" y="334" type="curve"/>
      <point x="919" y="383" type="line"/>
      <point x="854" y="416"/>
      <point x="811" y="428"/>
      <point x="767" y="428" type="curve" smooth="yes"/>
      <point x="675" y="428"/>
      <point x="610" y="376"/>
      <point x="610" y="293" type="curve" smooth="yes"/>
      <point x="610" y="208"/>
      <point x="680" y="112"/>
      <point x="775" y="-10" type="curve"/>
    </contour>
    <contour>
      <point x="1464" y="545" type="line"/>
      <point x="1464" y="555" type="line"/>
      <point x="1430" y="620" type="line"/>
      <point x="-28" y="620" type="line"/>
      <point x="-28" y="610" type="line"/>
      <point x="6" y="545" type="line"/>
    </contour>
    <contour>
      <point x="1090" y="133" type="curve" smooth="yes"/>
      <point x="1159" y="133"/>
      <point x="1197" y="159"/>
      <point x="1279" y="213" type="curve"/>
      <point x="1282" y="322" type="line"/>
      <point x="1164" y="228"/>
      <point x="1100" y="197"/>
      <point x="1047" y="197" type="curve" smooth="yes"/>
      <point x="996" y="197"/>
      <point x="953" y="225"/>
      <point x="953" y="279" type="curve" smooth="yes"/>
      <point x="953" y="350"/>
      <point x="1013" y="389"/>
      <point x="1086" y="389" type="curve" smooth="yes"/>
      <point x="1155" y="389"/>
      <point x="1229" y="350"/>
      <point x="1283" y="292" type="curve"/>
      <point x="1287" y="336" type="line"/>
      <point x="1226" y="420"/>
      <point x="1150" y="467"/>
      <point x="1064" y="467" type="curve" smooth="yes"/>
      <point x="969" y="467"/>
      <point x="880" y="406"/>
      <point x="880" y="322" type="curve" smooth="yes"/>
      <point x="880" y="244"/>
      <point x="952" y="133"/>
    </contour>
    <contour>
      <point x="1349" y="-10" type="line"/>
      <point x="1347" y="581" type="line"/>
      <point x="1263" y="581" type="line"/>
      <point x="1259" y="42" type="line"/>
      <point x="1339" y="-10" type="line"/>
    </contour>
  </outline>
</glyph>
<glyph name="dKTYa" format="2">
  <advance width="1416"/>
  <outline>
    <contour>
      <point x="1243" y="581" type="line"/>
      <point x="1239" y="42" type="line"/>
      <point x="1319" y="-10" type="line"/>
      <point x="1329" y="-10" type="line"/>
      <point x="1327" y="581" type="line"/>
    </contour>
    <contour>
      <point x="451" y="591" type="line"/>
      <point x="369" y="591" type="line"/>
      <point x="364" y="44" type="line"/>
      <point x="444" y="-10" type="line"/>
      <point x="454" y="-10" type="line"/>
    </contour>
    <contour>
      <point x="227" y="138" type="curve" smooth="yes"/>
      <point x="297" y="138"/>
      <point x="338" y="178"/>
      <point x="378" y="206" type="curve" smooth="yes"/>
      <point x="467" y="269"/>
      <point x="533" y="338"/>
      <point x="597" y="338" type="curve" smooth="yes"/>
      <point x="607" y="338"/>
      <point x="617" y="335"/>
      <point x="631" y="334" type="curve"/>
      <point x="653" y="369" type="line"/>
      <point x="622" y="399"/>
      <point x="596" y="412"/>
      <point x="568" y="412" type="curve" smooth="yes"/>
      <point x="513" y="412"/>
      <point x="456" y="367"/>
      <point x="395" y="320" type="curve" smooth="yes"/>
      <point x="322" y="263"/>
      <point x="244" y="202"/>
      <point x="184" y="202" type="curve" smooth="yes"/>
      <point x="148" y="202"/>
      <point x="117" y="226"/>
      <point x="117" y="277" type="curve" smooth="yes"/>
      <point x="117" y="342"/>
      <point x="172" y="378"/>
      <point x="229" y="378" type="curve" smooth="yes"/>
      <point x="286" y="378"/>
      <point x="340" y="342"/>
      <point x="375" y="301" type="curve"/>
      <point x="375" y="355" type="line"/>
      <point x="335" y="409"/>
      <point x="276" y="455"/>
      <point x="203" y="455" type="curve" smooth="yes"/>
      <point x="124" y="455"/>
      <point x="45" y="402"/>
      <point x="45" y="316" type="curve" smooth="yes"/>
      <point x="45" y="233"/>
      <point x="119" y="138"/>
    </contour>
    <contour>
      <point x="937" y="373" type="line"/>
      <point x="861" y="415"/>
      <point x="815" y="428"/>
      <point x="767" y="428" type="curve" smooth="yes"/>
      <point x="675" y="428"/>
      <point x="610" y="376"/>
      <point x="610" y="293" type="curve" smooth="yes"/>
      <point x="610" y="208"/>
      <point x="680" y="112"/>
      <point x="775" y="-10" type="curve"/>
      <point x="785" y="-10" type="line"/>
      <point x="828" y="25" type="line"/>
      <point x="721" y="148"/>
      <point x="687" y="189"/>
      <point x="687" y="244" type="curve" smooth="yes"/>
      <point x="687" y="297"/>
      <point x="717" y="355"/>
      <point x="805" y="355" type="curve" smooth="yes"/>
      <point x="835" y="355"/>
      <point x="863" y="348"/>
      <point x="896" y="334" type="curve"/>
    </contour>
    <contour>
      <point x="1444" y="545" type="line"/>
      <point x="1444" y="555" type="line"/>
      <point x="1410" y="620" type="line"/>
      <point x="-28" y="620" type="line"/>
      <point x="-28" y="610" type="line"/>
      <point x="6" y="545" type="line"/>
    </contour>
    <contour>
      <point x="985" y="563" type="line"/>
      <point x="1013" y="520"/>
      <point x="1025" y="491"/>
      <point x="1025" y="469" type="curve" smooth="yes"/>
      <point x="1025" y="424"/>
      <point x="977" y="396"/>
      <point x="874" y="371" type="curve"/>
      <point x="898" y="239"/>
      <point x="1004" y="136"/>
      <point x="1123" y="136" type="curve" smooth="yes"/>
      <point x="1168" y="136"/>
      <point x="1215" y="151"/>
      <point x="1254" y="182" type="curve"/>
      <point x="1256" y="283" type="line"/>
      <point x="1196" y="229"/>
      <point x="1135" y="199"/>
      <point x="1084" y="199" type="curve" smooth="yes"/>
      <point x="1016" y="199"/>
      <point x="963" y="250"/>
      <point x="961" y="310" type="curve"/>
      <point x="1058" y="337"/>
      <point x="1097" y="375"/>
      <point x="1097" y="426" type="curve" smooth="yes"/>
      <point x="1097" y="463"/>
      <point x="1077" y="503"/>
      <point x="1042" y="562" type="curve"/>
    </contour>
  </outline>
</glyph>
<glyph name="dKTa" format="2">
  <advance width="1135"/>
  <outline>
    <contour>
      <point x="227" y="138" type="curve" smooth="yes"/>
      <point x="297" y="138"/>
      <point x="338" y="178"/>
      <point x="378" y="206" type="curve" smooth="yes"/>
      <point x="467" y="269"/>
      <point x="533" y="338"/>
      <point x="597" y="338" type="curve" smooth="yes"/>
      <point x="607" y="338"/>
      <point x="617" y="335"/>
      <point x="631" y="334" type="curve"/>
      <point x="653" y="369" type="line"/>
      <point x="622" y="399"/>
      <point x="596" y="412"/>
      <point x="568" y="412" type="curve" smooth="yes"/>
      <point x="513" y="412"/>
      <point x="456" y="367"/>
      <point x="395" y="320" type="curve" smooth="yes"/>
      <point x="322" y="263"/>
      <point x="244" y="202"/>
      <point x="184" y="202" type="curve" smooth="yes"/>
      <point x="148" y="202"/>
      <point x="117" y="226"/>
      <point x="117" y="277" type="curve" smooth="yes"/>
      <point x="117" y="342"/>
      <point x="172" y="378"/>
      <point x="229" y="378" type="curve" smooth="yes"/>
      <point x="286" y="378"/>
      <point x="340" y="342"/>
      <point x="375" y="301" type="curve"/>
      <point x="375" y="355" type="line"/>
      <point x="335" y="409"/>
      <point x="276" y="455"/>
      <point x="203" y="455" type="curve" smooth="yes"/>
      <point x="124" y="455"/>
      <point x="45" y="402"/>
      <point x="45" y="316" type="curve" smooth="yes"/>
      <point x="45" y="233"/>
      <point x="119" y="138"/>
    </contour>
    <contour>
      <point x="454" y="-10" type="line"/>
      <point x="451" y="591" type="line"/>
      <point x="369" y="591" type="line"/>
      <point x="364" y="44" type="line"/>
      <point x="444" y="-10" type="line"/>
    </contour>
    <contour>
      <point x="785" y="-10" type="line"/>
      <point x="828" y="25" type="line"/>
      <point x="716" y="153"/>
      <point x="687" y="188"/>
      <point x="687" y="248" type="curve" smooth="yes"/>
      <point x="687" y="311"/>
      <point x="734" y="360"/>
      <point x="831" y="360" type="curve" smooth="yes"/>
      <point x="997" y="360" type="line"/>
      <point x="997" y="435" type="line"/>
      <point x="820" y="435" type="line" smooth="yes"/>
      <point x="699" y="435"/>
      <point x="610" y="396"/>
      <point x="610" y="294" type="curve" smooth="yes"/>
      <point x="610" y="208"/>
      <point x="680" y="112"/>
      <point x="775" y="-10" type="curve"/>
    </contour>
    <contour>
      <point x="1163" y="545" type="line"/>
      <point x="1163" y="555" type="line"/>
      <point x="1129" y="620" type="line"/>
      <point x="-28" y="620" type="line"/>
      <point x="-28" y="610" type="line"/>
      <point x="6" y="545" type="line"/>
    </contour>
    <contour>
      <point x="1048" y="-10" type="line"/>
      <point x="1046" y="581" type="line"/>
      <point x="962" y="581" type="line"/>
      <point x="958" y="42" type="line"/>
      <point x="1038" y="-10" type="line"/>
    </contour>
  </outline>
</glyph>
<glyph name="dKhhSha" format="2">
  <advance width="1299"/>
  <outline>
    <component base="dNukta" xOffset="286" yOffset="90"/>
    <component base="dSha" xOffset="591"/>
    <contour>
      <point x="322" y="-20" type="line"/>
      <point x="373" y="22" type="line"/>
      <point x="164" y="237" type="line"/>
      <point x="231" y="253"/>
      <point x="268" y="307"/>
      <point x="268" y="471" type="curve" smooth="yes"/>
      <point x="268" y="487"/>
      <point x="267" y="544"/>
      <point x="261" y="575" type="curve"/>
      <point x="179" y="575" type="line"/>
      <point x="182" y="543"/>
      <point x="184" y="523"/>
      <point x="184" y="482" type="curve" smooth="yes"/>
      <point x="184" y="449"/>
      <point x="183" y="401"/>
      <point x="176" y="368" type="curve"/>
      <point x="152" y="371"/>
      <point x="116" y="374"/>
      <point x="97" y="374" type="curve" smooth="yes"/>
      <point x="61" y="374"/>
      <point x="46" y="364"/>
      <point x="46" y="342" type="curve" smooth="yes"/>
      <point x="46" y="319"/>
      <point x="65" y="283"/>
      <point x="114" y="223" type="curve" smooth="yes"/>
      <point x="312" y="-20" type="line"/>
    </contour>
    <contour>
      <point x="473" y="217" type="curve" smooth="yes"/>
      <point x="427" y="217"/>
      <point x="399" y="243"/>
      <point x="399" y="292" type="curve" smooth="yes"/>
      <point x="399" y="350"/>
      <point x="439" y="389"/>
      <point x="506" y="389" type="curve" smooth="yes"/>
      <point x="558" y="389"/>
      <point x="611" y="365"/>
      <point x="626" y="316" type="curve"/>
      <point x="604" y="272"/>
      <point x="540" y="217"/>
    </contour>
    <contour>
      <point x="507" y="155" type="curve" smooth="yes"/>
      <point x="595" y="155"/>
      <point x="668" y="224"/>
      <point x="687" y="287" type="curve"/>
      <point x="660" y="385"/>
      <point x="585" y="463"/>
      <point x="481" y="463" type="curve" smooth="yes"/>
      <point x="399" y="463"/>
      <point x="327" y="413"/>
      <point x="327" y="330" type="curve" smooth="yes"/>
      <point x="327" y="240"/>
      <point x="409" y="155"/>
    </contour>
    <contour>
      <point x="671" y="545" type="line"/>
      <point x="671" y="555" type="line"/>
      <point x="637" y="620" type="line"/>
      <point x="-28" y="620" type="line"/>
      <point x="-28" y="610" type="line"/>
      <point x="6" y="545" type="line"/>
    </contour>
  </outline>
</glyph>
<glyph name="dL.half" format="2">
  <advance width="456"/>
  <outline>
    <contour>
      <point x="264" y="-10" type="line"/>
      <point x="307" y="25" type="line"/>
      <point x="168" y="134"/>
      <point x="129" y="192"/>
      <point x="129" y="265" type="curve" smooth="yes"/>
      <point x="129" y="336"/>
      <point x="168" y="376"/>
      <point x="222" y="376" type="curve" smooth="yes"/>
      <point x="256" y="376"/>
      <point x="284" y="358"/>
      <point x="306" y="335" type="curve"/>
      <point x="329" y="366" type="line"/>
      <point x="290" y="412"/>
      <point x="249" y="450"/>
      <point x="187" y="450" type="curve" smooth="yes"/>
      <point x="101" y="450"/>
      <point x="49" y="382"/>
      <point x="49" y="299" type="curve" smooth="yes"/>
      <point x="49" y="193"/>
      <point x="130" y="110"/>
      <point x="254" y="-10" type="curve"/>
    </contour>
    <contour>
      <point x="340" y="225" type="line"/>
      <point x="389" y="331"/>
      <point x="425" y="370"/>
      <point x="477" y="370" type="curve" smooth="yes"/>
      <point x="496" y="370"/>
      <point x="513" y="364"/>
      <point x="528" y="353" type="curve"/>
      <point x="547" y="380" type="line"/>
      <point x="500" y="424"/>
      <point x="463" y="435"/>
      <point x="435" y="435" type="curve" smooth="yes"/>
      <point x="357" y="435"/>
      <point x="296" y="349"/>
      <point x="263" y="263" type="curve"/>
    </contour>
    <contour>
      <point x="556" y="545" type="line"/>
      <point x="556" y="555" type="line"/>
      <point x="522" y="620" type="line"/>
      <point x="-28" y="620" type="line"/>
      <point x="-28" y="610" type="line"/>
      <point x="6" y="545" type="line"/>
    </contour>
  </outline>
</glyph>
<glyph name="dLBh.half" format="2">
  <advance width="804"/>
  <outline>
    <contour>
      <point x="432" y="394" type="curve" smooth="yes"/>
      <point x="356" y="394"/>
      <point x="296" y="306"/>
      <point x="263" y="223" type="curve"/>
      <point x="340" y="185" type="line"/>
      <point x="385" y="286"/>
      <point x="424" y="329"/>
      <point x="468" y="329" type="curve" smooth="yes"/>
      <point x="491" y="329"/>
      <point x="509" y="316"/>
      <point x="525" y="293" type="curve"/>
      <point x="574" y="300" type="line"/>
      <point x="516" y="377"/>
      <point x="465" y="394"/>
    </contour>
    <contour>
      <point x="455" y="545" type="line"/>
      <point x="482" y="620" type="line"/>
      <point x="-28" y="620" type="line"/>
      <point x="-28" y="610" type="line"/>
      <point x="6" y="545" type="line"/>
    </contour>
    <contour>
      <point x="333" y="327" type="line"/>
      <point x="296" y="370"/>
      <point x="253" y="415"/>
      <point x="187" y="415" type="curve" smooth="yes"/>
      <point x="101" y="415"/>
      <point x="49" y="343"/>
      <point x="49" y="260" type="curve" smooth="yes"/>
      <point x="49" y="154"/>
      <point x="130" y="73"/>
      <point x="246" y="-41" type="curve"/>
      <point x="256" y="-41" type="line"/>
      <point x="298" y="-7" type="line"/>
      <point x="165" y="98"/>
      <point x="129" y="153"/>
      <point x="129" y="226" type="curve" smooth="yes"/>
      <point x="129" y="297"/>
      <point x="168" y="341"/>
      <point x="222" y="341" type="curve" smooth="yes"/>
      <point x="257" y="341"/>
      <point x="289" y="322"/>
      <point x="310" y="296" type="curve"/>
    </contour>
    <contour>
      <point x="864" y="545" type="line"/>
      <point x="864" y="555" type="line"/>
      <point x="830" y="620" type="line"/>
      <point x="713" y="620" type="line"/>
      <point x="713" y="610" type="line"/>
      <point x="747" y="545" type="line"/>
    </contour>
    <contour>
      <point x="594" y="235" type="curve"/>
      <point x="920" y="235" type="line"/>
      <point x="885" y="310" type="line"/>
      <point x="532" y="310" type="line" smooth="yes"/>
      <point x="514" y="310"/>
      <point x="507" y="299"/>
      <point x="507" y="286" type="curve" smooth="yes"/>
      <point x="507" y="236"/>
      <point x="602" y="138"/>
      <point x="646" y="138" type="curve" smooth="yes"/>
      <point x="673" y="138"/>
      <point x="676" y="172"/>
      <point x="685" y="257" type="curve" smooth="yes"/>
      <point x="688" y="287"/>
      <point x="692" y="376"/>
      <point x="692" y="424" type="curve" smooth="yes"/>
      <point x="692" y="521"/>
      <point x="604" y="633"/>
      <point x="503" y="633" type="curve" smooth="yes"/>
      <point x="452" y="633"/>
      <point x="397" y="600"/>
      <point x="397" y="538" type="curve" smooth="yes"/>
      <point x="397" y="477"/>
      <point x="442" y="422"/>
      <point x="519" y="422" type="curve"/>
      <point x="520" y="422"/>
      <point x="525" y="422"/>
      <point x="539" y="424" type="curve"/>
      <point x="539" y="435" type="line"/>
      <point x="509" y="451"/>
      <point x="475" y="472"/>
      <point x="475" y="507" type="curve" smooth="yes"/>
      <point x="475" y="541"/>
      <point x="507" y="563"/>
      <point x="540" y="563" type="curve" smooth="yes"/>
      <point x="586" y="563"/>
      <point x="611" y="538"/>
      <point x="611" y="449" type="curve" smooth="yes"/>
      <point x="611" y="392"/>
      <point x="607" y="352"/>
    </contour>
  </outline>
</glyph>
<glyph name="dLBha" format="2">
  <advance width="1060"/>
  <outline>
    <component base="dBha" xOffset="344"/>
    <contour>
      <point x="432" y="394" type="curve" smooth="yes"/>
      <point x="356" y="394"/>
      <point x="296" y="306"/>
      <point x="263" y="223" type="curve"/>
      <point x="340" y="185" type="line"/>
      <point x="385" y="286"/>
      <point x="424" y="329"/>
      <point x="468" y="329" type="curve" smooth="yes"/>
      <point x="491" y="329"/>
      <point x="509" y="316"/>
      <point x="525" y="293" type="curve"/>
      <point x="574" y="300" type="line"/>
      <point x="516" y="377"/>
      <point x="465" y="394"/>
    </contour>
    <contour>
      <point x="455" y="545" type="line"/>
      <point x="482" y="620" type="line"/>
      <point x="-28" y="620" type="line"/>
      <point x="-28" y="610" type="line"/>
      <point x="6" y="545" type="line"/>
    </contour>
    <contour>
      <point x="333" y="327" type="line"/>
      <point x="296" y="370"/>
      <point x="253" y="415"/>
      <point x="187" y="415" type="curve" smooth="yes"/>
      <point x="101" y="415"/>
      <point x="49" y="343"/>
      <point x="49" y="260" type="curve" smooth="yes"/>
      <point x="49" y="154"/>
      <point x="130" y="73"/>
      <point x="246" y="-41" type="curve"/>
      <point x="256" y="-41" type="line"/>
      <point x="298" y="-7" type="line"/>
      <point x="165" y="98"/>
      <point x="129" y="153"/>
      <point x="129" y="226" type="curve" smooth="yes"/>
      <point x="129" y="297"/>
      <point x="168" y="341"/>
      <point x="222" y="341" type="curve" smooth="yes"/>
      <point x="257" y="341"/>
      <point x="289" y="322"/>
      <point x="310" y="296" type="curve"/>
    </contour>
  </outline>
</glyph>
<glyph name="dLDda" format="2">
  <advance width="982"/>
  <outline>
    <component base="dL.half"/>
    <contour>
      <point x="795" y="581" type="line"/>
      <point x="795" y="460" type="line"/>
      <point x="637" y="460" type="line" smooth="yes"/>
      <point x="555" y="460"/>
      <point x="518" y="427"/>
      <point x="518" y="378" type="curve" smooth="yes"/>
      <point x="518" y="293"/>
      <point x="610" y="201"/>
      <point x="676" y="201" type="curve" smooth="yes"/>
      <point x="710" y="201"/>
      <point x="796" y="225"/>
      <point x="835" y="225" type="curve" smooth="yes"/>
      <point x="859" y="225"/>
      <point x="873" y="209"/>
      <point x="873" y="187" type="curve" smooth="yes"/>
      <point x="873" y="144"/>
      <point x="847" y="82"/>
      <point x="736" y="82" type="curve" smooth="yes"/>
      <point x="606" y="82"/>
      <point x="529" y="169"/>
      <point x="475" y="270" type="curve"/>
      <point x="437" y="248" type="line"/>
      <point x="514" y="92"/>
      <point x="634" y="7"/>
      <point x="760" y="7" type="curve" smooth="yes"/>
      <point x="890" y="7"/>
      <point x="941" y="85"/>
      <point x="941" y="137" type="curve" smooth="yes"/>
      <point x="941" y="219"/>
      <point x="864" y="298"/>
      <point x="809" y="298" type="curve" smooth="yes"/>
      <point x="769" y="298"/>
      <point x="666" y="273"/>
      <point x="643" y="273" type="curve" smooth="yes"/>
      <point x="619" y="273"/>
      <point x="590" y="298"/>
      <point x="590" y="339" type="curve" smooth="yes"/>
      <point x="590" y="370"/>
      <point x="613" y="385"/>
      <point x="655" y="385" type="curve" smooth="yes"/>
      <point x="866" y="385" type="line"/>
      <point x="878" y="393" type="line"/>
      <point x="878" y="445"/>
      <point x="877" y="527"/>
      <point x="876" y="581" type="curve"/>
    </contour>
    <contour>
      <point x="1010" y="545" type="line"/>
      <point x="1010" y="555" type="line"/>
      <point x="976" y="620" type="line"/>
      <point x="381" y="620" type="line"/>
      <point x="381" y="610" type="line"/>
      <point x="415" y="545" type="line"/>
    </contour>
  </outline>
</glyph>
<glyph name="dLGa" format="2">
  <advance width="1013"/>
  <outline>
    <contour>
      <point x="264" y="-10" type="line"/>
      <point x="307" y="25" type="line"/>
      <point x="168" y="136"/>
      <point x="129" y="195"/>
      <point x="129" y="269" type="curve" smooth="yes"/>
      <point x="129" y="341"/>
      <point x="168" y="386"/>
      <point x="222" y="386" type="curve" smooth="yes"/>
      <point x="256" y="386"/>
      <point x="287" y="368"/>
      <point x="307" y="344" type="curve"/>
      <point x="329" y="376" type="line"/>
      <point x="293" y="417"/>
      <point x="251" y="460"/>
      <point x="187" y="460" type="curve" smooth="yes"/>
      <point x="101" y="460"/>
      <point x="49" y="387"/>
      <point x="49" y="303" type="curve" smooth="yes"/>
      <point x="49" y="196"/>
      <point x="130" y="112"/>
      <point x="254" y="-10" type="curve"/>
    </contour>
    <contour>
      <point x="340" y="237" type="line"/>
      <point x="387" y="341"/>
      <point x="427" y="385"/>
      <point x="475" y="385" type="curve" smooth="yes"/>
      <point x="502" y="385"/>
      <point x="528" y="366"/>
      <point x="552" y="321" type="curve"/>
      <point x="590" y="339" type="line"/>
      <point x="551" y="403"/>
      <point x="501" y="450"/>
      <point x="437" y="450" type="curve" smooth="yes"/>
      <point x="359" y="450"/>
      <point x="296" y="360"/>
      <point x="263" y="275" type="curve"/>
    </contour>
    <contour>
      <point x="634" y="169" type="curve" smooth="yes"/>
      <point x="649" y="169"/>
      <point x="657" y="177"/>
      <point x="657" y="194" type="curve" smooth="yes"/>
      <point x="655" y="581" type="line"/>
      <point x="573" y="581" type="line"/>
      <point x="572" y="344" type="line"/>
      <point x="510" y="344" type="line" smooth="yes"/>
      <point x="492" y="344"/>
      <point x="485" y="333"/>
      <point x="485" y="321" type="curve" smooth="yes"/>
      <point x="485" y="267"/>
      <point x="590" y="169"/>
    </contour>
    <contour>
      <point x="1041" y="545" type="line"/>
      <point x="1041" y="555" type="line"/>
      <point x="1007" y="620" type="line"/>
      <point x="-28" y="620" type="line"/>
      <point x="-28" y="610" type="line"/>
      <point x="6" y="545" type="line"/>
    </contour>
    <contour>
      <point x="926" y="-10" type="line"/>
      <point x="924" y="581" type="line"/>
      <point x="841" y="581" type="line"/>
      <point x="837" y="41" type="line"/>
      <point x="916" y="-10" type="line"/>
    </contour>
  </outline>
</glyph>
<glyph name="dLKha" format="2">
  <advance width="1265"/>
  <outline>
    <contour>
      <point x="437" y="441" type="curve" smooth="yes"/>
      <point x="358" y="441"/>
      <point x="296" y="351"/>
      <point x="263" y="267" type="curve"/>
      <point x="340" y="229" type="line"/>
      <point x="386" y="331"/>
      <point x="427" y="376"/>
      <point x="472" y="376" type="curve" smooth="yes"/>
      <point x="494" y="376"/>
      <point x="512" y="362"/>
      <point x="528" y="342" type="curve"/>
      <point x="561" y="366" type="line"/>
      <point x="514" y="422"/>
      <point x="465" y="441"/>
    </contour>
    <contour>
      <point x="556" y="545" type="line"/>
      <point x="556" y="555" type="line"/>
      <point x="522" y="620" type="line"/>
      <point x="-28" y="620" type="line"/>
      <point x="-28" y="610" type="line"/>
      <point x="6" y="545" type="line"/>
    </contour>
    <contour>
      <point x="330" y="369" type="line"/>
      <point x="294" y="411"/>
      <point x="252" y="454"/>
      <point x="187" y="454" type="curve" smooth="yes"/>
      <point x="101" y="454"/>
      <point x="49" y="382"/>
      <point x="49" y="299" type="curve" smooth="yes"/>
      <point x="49" y="193"/>
      <point x="130" y="110"/>
      <point x="254" y="-10" type="curve"/>
      <point x="264" y="-10" type="line"/>
      <point x="307" y="25" type="line"/>
      <point x="168" y="134"/>
      <point x="129" y="192"/>
      <point x="129" y="265" type="curve" smooth="yes"/>
      <point x="129" y="336"/>
      <point x="168" y="380"/>
      <point x="222" y="380" type="curve" smooth="yes"/>
      <point x="256" y="380"/>
      <point x="287" y="362"/>
      <point x="309" y="337" type="curve"/>
    </contour>
    <contour>
      <point x="772" y="-20" type="line"/>
      <point x="823" y="22" type="line"/>
      <point x="606" y="246" type="line"/>
      <point x="605" y="235" type="line"/>
      <point x="678" y="249"/>
      <point x="718" y="300"/>
      <point x="718" y="471" type="curve" smooth="yes"/>
      <point x="718" y="487"/>
      <point x="717" y="544"/>
      <point x="711" y="575" type="curve"/>
      <point x="630" y="575" type="line"/>
      <point x="632" y="543"/>
      <point x="634" y="523"/>
      <point x="634" y="482" type="curve" smooth="yes"/>
      <point x="634" y="446"/>
      <point x="633" y="391"/>
      <point x="624" y="358" type="curve"/>
      <point x="636" y="367" type="line"/>
      <point x="613" y="370"/>
      <point x="569" y="374"/>
      <point x="547" y="374" type="curve" smooth="yes"/>
      <point x="511" y="374"/>
      <point x="496" y="364"/>
      <point x="496" y="342" type="curve" smooth="yes"/>
      <point x="496" y="319"/>
      <point x="515" y="283"/>
      <point x="564" y="223" type="curve" smooth="yes"/>
      <point x="762" y="-20" type="line"/>
    </contour>
    <contour>
      <point x="951" y="155" type="curve" smooth="yes"/>
      <point x="1008" y="155"/>
      <point x="1041" y="171"/>
      <point x="1111" y="228" type="curve"/>
      <point x="1111" y="332" type="line"/>
      <point x="1014" y="238"/>
      <point x="965" y="217"/>
      <point x="923" y="217" type="curve" smooth="yes"/>
      <point x="883" y="217"/>
      <point x="849" y="239"/>
      <point x="849" y="289" type="curve" smooth="yes"/>
      <point x="849" y="357"/>
      <point x="896" y="389"/>
      <point x="954" y="389" type="curve" smooth="yes"/>
      <point x="1008" y="389"/>
      <point x="1068" y="357"/>
      <point x="1108" y="303" type="curve"/>
      <point x="1108" y="354" type="line"/>
      <point x="1060" y="426"/>
      <point x="1003" y="463"/>
      <point x="930" y="463" type="curve" smooth="yes"/>
      <point x="848" y="463"/>
      <point x="777" y="412"/>
      <point x="777" y="331" type="curve" smooth="yes"/>
      <point x="777" y="236"/>
      <point x="865" y="155"/>
    </contour>
    <contour>
      <point x="1178" y="-10" type="line"/>
      <point x="1176" y="601" type="line"/>
      <point x="1092" y="601" type="line"/>
      <point x="1088" y="42" type="line"/>
      <point x="1168" y="-10" type="line"/>
    </contour>
    <contour>
      <point x="1293" y="545" type="line"/>
      <point x="1293" y="555" type="line"/>
      <point x="1259" y="620" type="line"/>
      <point x="422" y="620" type="line"/>
      <point x="422" y="610" type="line"/>
      <point x="456" y="545" type="line"/>
    </contour>
  </outline>
</glyph>
<glyph name="dLMa" format="2">
  <advance width="1022"/>
  <outline>
    <contour>
      <point x="438" y="442" type="curve" smooth="yes"/>
      <point x="360" y="442"/>
      <point x="296" y="352"/>
      <point x="263" y="267" type="curve"/>
      <point x="340" y="229" type="line"/>
      <point x="389" y="335"/>
      <point x="428" y="377"/>
      <point x="480" y="377" type="curve" smooth="yes"/>
      <point x="499" y="377"/>
      <point x="521" y="372"/>
      <point x="548" y="346" type="curve"/>
      <point x="550" y="387" type="line"/>
      <point x="503" y="431"/>
      <point x="466" y="442"/>
    </contour>
    <contour>
      <point x="556" y="545" type="line"/>
      <point x="556" y="555" type="line"/>
      <point x="522" y="620" type="line"/>
      <point x="-28" y="620" type="line"/>
      <point x="-28" y="610" type="line"/>
      <point x="6" y="545" type="line"/>
    </contour>
    <contour>
      <point x="330" y="369" type="line"/>
      <point x="294" y="411"/>
      <point x="252" y="454"/>
      <point x="187" y="454" type="curve" smooth="yes"/>
      <point x="101" y="454"/>
      <point x="49" y="382"/>
      <point x="49" y="299" type="curve" smooth="yes"/>
      <point x="49" y="193"/>
      <point x="130" y="110"/>
      <point x="254" y="-10" type="curve"/>
      <point x="264" y="-10" type="line"/>
      <point x="307" y="25" type="line"/>
      <point x="168" y="134"/>
      <point x="129" y="192"/>
      <point x="129" y="265" type="curve" smooth="yes"/>
      <point x="129" y="336"/>
      <point x="168" y="380"/>
      <point x="222" y="380" type="curve" smooth="yes"/>
      <point x="256" y="380"/>
      <point x="287" y="362"/>
      <point x="309" y="337" type="curve"/>
    </contour>
    <contour>
      <point x="488" y="310" type="line" smooth="yes"/>
      <point x="470" y="310"/>
      <point x="463" y="299"/>
      <point x="463" y="287" type="curve" smooth="yes"/>
      <point x="463" y="236"/>
      <point x="563" y="138"/>
      <point x="604" y="138" type="curve" smooth="yes"/>
      <point x="619" y="138"/>
      <point x="627" y="146"/>
      <point x="627" y="163" type="curve" smooth="yes"/>
      <point x="625" y="581" type="line"/>
      <point x="543" y="581" type="line"/>
      <point x="542" y="235" type="line"/>
      <point x="882" y="235" type="line"/>
      <point x="883" y="310" type="line"/>
    </contour>
    <contour>
      <point x="935" y="-10" type="line"/>
      <point x="933" y="581" type="line"/>
      <point x="849" y="581" type="line"/>
      <point x="845" y="42" type="line"/>
      <point x="925" y="-10" type="line"/>
    </contour>
    <contour>
      <point x="1050" y="545" type="line"/>
      <point x="1050" y="555" type="line"/>
      <point x="1016" y="620" type="line"/>
      <point x="382" y="620" type="line"/>
      <point x="382" y="610" type="line"/>
      <point x="416" y="545" type="line"/>
    </contour>
  </outline>
</glyph>
<glyph name="dLRa" format="2">
  <advance width="692"/>
  <outline>
    <contour>
      <point x="519" y="581" type="line"/>
      <point x="515" y="42" type="line"/>
      <point x="595" y="-10" type="line"/>
      <point x="605" y="-10" type="line"/>
      <point x="603" y="581" type="line"/>
    </contour>
    <contour>
      <point x="442" y="443" type="curve" smooth="yes"/>
      <point x="367" y="443"/>
      <point x="302" y="358"/>
      <point x="266" y="267" type="curve"/>
      <point x="343" y="229" type="line"/>
      <point x="392" y="335"/>
      <point x="432" y="378"/>
      <point x="484" y="378" type="curve" smooth="yes"/>
      <point x="500" y="378"/>
      <point x="514" y="373"/>
      <point x="527" y="367" type="curve"/>
      <point x="529" y="408" type="line"/>
      <point x="499" y="433"/>
      <point x="468" y="443"/>
    </contour>
    <contour>
      <point x="529" y="289" type="line"/>
      <point x="325" y="111" type="line"/>
      <point x="388" y="59" type="line"/>
      <point x="528" y="186" type="line"/>
    </contour>
    <contour>
      <point x="720" y="545" type="line"/>
      <point x="720" y="555" type="line"/>
      <point x="686" y="620" type="line"/>
      <point x="-28" y="620" type="line"/>
      <point x="-28" y="610" type="line"/>
      <point x="6" y="545" type="line"/>
    </contour>
    <contour>
      <point x="332" y="367" type="line"/>
      <point x="296" y="410"/>
      <point x="253" y="454"/>
      <point x="187" y="454" type="curve" smooth="yes"/>
      <point x="101" y="454"/>
      <point x="49" y="382"/>
      <point x="49" y="299" type="curve" smooth="yes"/>
      <point x="49" y="193"/>
      <point x="130" y="110"/>
      <point x="254" y="-10" type="curve"/>
      <point x="264" y="-10" type="line"/>
      <point x="307" y="25" type="line"/>
      <point x="168" y="134"/>
      <point x="129" y="192"/>
      <point x="129" y="265" type="curve" smooth="yes"/>
      <point x="129" y="336"/>
      <point x="168" y="380"/>
      <point x="222" y="380" type="curve" smooth="yes"/>
      <point x="257" y="380"/>
      <point x="289" y="359"/>
      <point x="309" y="335" type="curve"/>
    </contour>
  </outline>
</glyph>
<glyph name="dMR.half" format="2">
  <advance width="357"/>
  <outline>
    <contour>
      <point x="133" y="581" type="line"/>
      <point x="132" y="244" type="line"/>
      <point x="458" y="244" type="line"/>
      <point x="458" y="254" type="line"/>
      <point x="148" y="46" type="line"/>
      <point x="205" y="-12" type="line"/>
      <point x="491" y="190" type="line"/>
      <point x="436" y="317" type="line"/>
      <point x="77" y="317" type="line" smooth="yes"/>
      <point x="63" y="317"/>
      <point x="53" y="306"/>
      <point x="53" y="294" type="curve" smooth="yes"/>
      <point x="53" y="248"/>
      <point x="157" y="154"/>
      <point x="195" y="154" type="curve" smooth="yes"/>
      <point x="210" y="154"/>
      <point x="217" y="162"/>
      <point x="217" y="179" type="curve" smooth="yes"/>
      <point x="215" y="581" type="line"/>
    </contour>
    <contour>
      <point x="397" y="545" type="line"/>
      <point x="397" y="555" type="line"/>
      <point x="363" y="620" type="line"/>
      <point x="-28" y="620" type="line"/>
      <point x="-28" y="610" type="line"/>
      <point x="6" y="545" type="line"/>
    </contour>
  </outline>
</glyph>
<glyph name="dNCa" format="2">
  <advance width="927"/>
  <outline>
    <contour>
      <point x="612" y="128" type="curve" smooth="yes"/>
      <point x="656" y="128"/>
      <point x="700" y="138"/>
      <point x="773" y="197" type="curve"/>
      <point x="773" y="301" type="line"/>
      <point x="669" y="209"/>
      <point x="606" y="192"/>
      <point x="565" y="192" type="curve" smooth="yes"/>
      <point x="517" y="192"/>
      <point x="472" y="216"/>
      <point x="472" y="281" type="curve" smooth="yes"/>
      <point x="472" y="376"/>
      <point x="565" y="385"/>
      <point x="653" y="385" type="curve"/>
      <point x="653" y="423" type="line"/>
      <point x="446" y="423" type="line"/>
      <point x="407" y="371"/>
      <point x="400" y="348"/>
      <point x="400" y="318" type="curve" smooth="yes"/>
      <point x="400" y="220"/>
      <point x="489" y="128"/>
    </contour>
    <contour>
      <point x="184" y="158" type="curve" smooth="yes"/>
      <point x="215" y="158"/>
      <point x="219" y="185"/>
      <point x="219" y="263" type="curve"/>
      <point x="425" y="263" type="line"/>
      <point x="420" y="333" type="line"/>
      <point x="306" y="337"/>
      <point x="169" y="340"/>
      <point x="132" y="340" type="curve" smooth="yes"/>
      <point x="80" y="340"/>
      <point x="48" y="336"/>
      <point x="48" y="299" type="curve" smooth="yes"/>
      <point x="48" y="237"/>
      <point x="127" y="158"/>
    </contour>
    <contour>
      <point x="434" y="382" type="line"/>
      <point x="628" y="403" type="line"/>
      <point x="653" y="385" type="line"/>
      <point x="667" y="385"/>
      <point x="673" y="385"/>
      <point x="695" y="384" type="curve"/>
      <point x="695" y="394" type="line"/>
      <point x="662" y="458" type="line"/>
      <point x="288" y="458" type="line"/>
      <point x="288" y="448" type="line"/>
      <point x="323" y="382" type="line"/>
    </contour>
    <contour>
      <point x="955" y="545" type="line"/>
      <point x="955" y="555" type="line"/>
      <point x="921" y="620" type="line"/>
      <point x="-28" y="620" type="line"/>
      <point x="-28" y="610" type="line"/>
      <point x="6" y="545" type="line"/>
    </contour>
    <contour>
      <point x="840" y="-10" type="line"/>
      <point x="838" y="581" type="line"/>
      <point x="754" y="581" type="line"/>
      <point x="750" y="42" type="line"/>
      <point x="830" y="-10" type="line"/>
    </contour>
  </outline>
</glyph>
<glyph name="dNDda" format="2">
  <advance width="867"/>
  <outline>
    <contour>
      <point x="680" y="581" type="line"/>
      <point x="680" y="460" type="line"/>
      <point x="522" y="460" type="line" smooth="yes"/>
      <point x="442" y="460"/>
      <point x="403" y="428"/>
      <point x="403" y="376" type="curve" smooth="yes"/>
      <point x="403" y="299"/>
      <point x="490" y="201"/>
      <point x="561" y="201" type="curve" smooth="yes"/>
      <point x="595" y="201"/>
      <point x="681" y="225"/>
      <point x="720" y="225" type="curve" smooth="yes"/>
      <point x="744" y="225"/>
      <point x="758" y="209"/>
      <point x="758" y="187" type="curve" smooth="yes"/>
      <point x="758" y="144"/>
      <point x="732" y="82"/>
      <point x="621" y="82" type="curve" smooth="yes"/>
      <point x="490" y="82"/>
      <point x="413" y="170"/>
      <point x="359" y="272" type="curve"/>
      <point x="321" y="251" type="line"/>
      <point x="398" y="95"/>
      <point x="519" y="7"/>
      <point x="645" y="7" type="curve" smooth="yes"/>
      <point x="775" y="7"/>
      <point x="826" y="85"/>
      <point x="826" y="137" type="curve" smooth="yes"/>
      <point x="826" y="219"/>
      <point x="749" y="298"/>
      <point x="694" y="298" type="curve" smooth="yes"/>
      <point x="654" y="298"/>
      <point x="551" y="273"/>
      <point x="528" y="273" type="curve" smooth="yes"/>
      <point x="504" y="273"/>
      <point x="475" y="298"/>
      <point x="475" y="339" type="curve" smooth="yes"/>
      <point x="475" y="370"/>
      <point x="498" y="385"/>
      <point x="540" y="385" type="curve" smooth="yes"/>
      <point x="751" y="385" type="line"/>
      <point x="763" y="393" type="line"/>
      <point x="763" y="445"/>
      <point x="762" y="527"/>
      <point x="761" y="581" type="curve"/>
    </contour>
    <contour>
      <point x="424" y="394" type="line"/>
      <point x="310" y="398"/>
      <point x="169" y="401"/>
      <point x="132" y="401" type="curve" smooth="yes"/>
      <point x="80" y="401"/>
      <point x="48" y="397"/>
      <point x="48" y="360" type="curve" smooth="yes"/>
      <point x="48" y="298"/>
      <point x="127" y="219"/>
      <point x="184" y="219" type="curve" smooth="yes"/>
      <point x="215" y="219"/>
      <point x="219" y="246"/>
      <point x="219" y="324" type="curve"/>
      <point x="430" y="324" type="line"/>
    </contour>
    <contour>
      <point x="895" y="545" type="line"/>
      <point x="895" y="555" type="line"/>
      <point x="861" y="620" type="line"/>
      <point x="-28" y="620" type="line"/>
      <point x="-28" y="610" type="line"/>
      <point x="6" y="545" type="line"/>
    </contour>
  </outline>
</glyph>
<glyph name="dNRa" format="2">
  <advance width="595"/>
  <outline>
    <contour>
      <point x="418" y="37" type="line"/>
      <point x="498" y="-15" type="line"/>
      <point x="508" y="-15" type="line"/>
      <point x="506" y="581" type="line"/>
      <point x="422" y="581" type="line"/>
    </contour>
    <contour>
      <point x="623" y="545" type="line"/>
      <point x="623" y="555" type="line"/>
      <point x="589" y="620" type="line"/>
      <point x="-28" y="620" type="line"/>
      <point x="-28" y="610" type="line"/>
      <point x="6" y="545" type="line"/>
    </contour>
    <contour>
      <point x="448" y="332" type="line"/>
      <point x="108" y="122" type="line"/>
      <point x="165" y="62" type="line"/>
      <point x="448" y="241" type="line"/>
    </contour>
    <contour>
      <point x="435" y="329" type="line"/>
      <point x="332" y="431"/>
      <point x="225" y="464"/>
      <point x="132" y="464" type="curve" smooth="yes"/>
      <point x="79" y="464"/>
      <point x="46" y="452"/>
      <point x="46" y="419" type="curve" smooth="yes"/>
      <point x="46" y="363"/>
      <point x="137" y="284"/>
      <point x="183" y="284" type="curve" smooth="yes"/>
      <point x="198" y="284"/>
      <point x="206" y="293"/>
      <point x="207" y="314" type="curve" smooth="yes"/>
      <point x="209" y="378" type="line"/>
      <point x="295" y="383"/>
      <point x="384" y="325"/>
      <point x="428" y="264" type="curve"/>
    </contour>
  </outline>
</glyph>
